<svg width="20" height="20" viewBox="0 0 20 20" fill="none" xmlns="http://www.w3.org/2000/svg">
<path fill-rule="evenodd" clip-rule="evenodd" d="M10.4997 3.33203C10.9599 3.33203 11.333 3.70513 11.333 4.16536V9.16536H16.333C16.7932 9.16536 17.1663 9.53846 17.1663 9.9987C17.1663 10.4589 16.7932 10.832 16.333 10.832H11.333V15.832C11.333 16.2923 10.9599 16.6654 10.4997 16.6654C10.0394 16.6654 9.66634 16.2923 9.66634 15.832V10.832H4.66634C4.2061 10.832 3.83301 10.4589 3.83301 9.9987C3.83301 9.53846 4.2061 9.16536 4.66634 9.16536H9.66634V4.16536C9.66634 3.70513 10.0394 3.33203 10.4997 3.33203Z" fill="white"/>
</svg>
