<svg width="20" height="20" viewBox="0 0 20 20" fill="none" xmlns="http://www.w3.org/2000/svg">
<path fill-rule="evenodd" clip-rule="evenodd" d="M8.33366 3.33464C5.57224 3.33464 3.33366 5.57321 3.33366 8.33464C3.33366 11.0961 5.57224 13.3346 8.33366 13.3346C11.0951 13.3346 13.3337 11.0961 13.3337 8.33464C13.3337 5.57321 11.0951 3.33464 8.33366 3.33464ZM1.66699 8.33464C1.66699 4.65274 4.65176 1.66797 8.33366 1.66797C12.0156 1.66797 15.0003 4.65274 15.0003 8.33464C15.0003 9.87521 14.4778 11.2937 13.6002 12.4226L18.0896 16.9121C18.415 17.2375 18.415 17.7651 18.0896 18.0906C17.7641 18.416 17.2365 18.416 16.9111 18.0906L12.4217 13.6012C11.2928 14.4787 9.87427 15.0013 8.33366 15.0013C4.65176 15.0013 1.66699 12.0165 1.66699 8.33464Z" fill="#878787"/>
</svg>
