<svg width="20" height="20" viewBox="0 0 20 20" fill="none" xmlns="http://www.w3.org/2000/svg">
<g clip-path="url(#clip0_4051_10850)">
<path fill-rule="evenodd" clip-rule="evenodd" d="M5.13487 1.66797L14.8658 1.66797C15.3051 1.66796 15.684 1.66794 15.9962 1.69345C16.3256 1.72036 16.6533 1.77979 16.9686 1.94045C17.439 2.18014 17.8215 2.56259 18.0612 3.03299C18.2218 3.34831 18.2813 3.67599 18.3082 4.00545C18.3337 4.31759 18.3337 4.69655 18.3337 5.13583V5.70011C18.3337 6.13939 18.3337 6.51835 18.3082 6.83049C18.2813 7.15995 18.2218 7.48763 18.0612 7.80295C17.8215 8.27335 17.439 8.6558 16.9686 8.89549C16.6533 9.05615 16.3256 9.11558 15.9962 9.1425C15.684 9.168 15.305 9.16799 14.8657 9.16797H5.13489C4.69559 9.16799 4.31662 9.168 4.00447 9.1425C3.67502 9.11558 3.34733 9.05615 3.03202 8.89549C2.56161 8.6558 2.17916 8.27335 1.93948 7.80295C1.77882 7.48763 1.71939 7.15995 1.69247 6.83049C1.66697 6.51835 1.66698 6.13938 1.66699 5.70009V5.13585C1.66698 4.69656 1.66697 4.31759 1.69247 4.00545C1.71939 3.67599 1.77882 3.34831 1.93948 3.03299C2.17916 2.56259 2.56161 2.18014 3.03202 1.94045C3.34733 1.77979 3.67502 1.72036 4.00447 1.69344C4.31661 1.66794 4.69558 1.66795 5.13487 1.66797ZM4.14019 3.35458C3.9138 3.37307 3.82987 3.40447 3.78867 3.42546C3.63187 3.50536 3.50438 3.63284 3.42449 3.78964C3.40349 3.83085 3.3721 3.91478 3.3536 4.14117C3.33431 4.37728 3.33366 4.68751 3.33366 5.16797V5.66797C3.33366 6.14843 3.33431 6.45866 3.3536 6.69477C3.3721 6.92116 3.40349 7.00509 3.42449 7.0463C3.50438 7.2031 3.63187 7.33058 3.78867 7.41048C3.82987 7.43147 3.9138 7.46287 4.14019 7.48136C4.3763 7.50066 4.68653 7.5013 5.16699 7.5013L14.8337 7.5013C15.3141 7.5013 15.6243 7.50066 15.8605 7.48136C16.0868 7.46287 16.1708 7.43147 16.212 7.41048C16.3688 7.33058 16.4963 7.2031 16.5762 7.0463C16.5972 7.00509 16.6286 6.92116 16.6471 6.69477C16.6663 6.45866 16.667 6.14843 16.667 5.66797V5.16797C16.667 4.68751 16.6663 4.37728 16.6471 4.14117C16.6286 3.91478 16.5972 3.83085 16.5762 3.78965C16.4963 3.63284 16.3688 3.50536 16.212 3.42547C16.1708 3.40447 16.0869 3.37307 15.8605 3.35458C15.6243 3.33529 15.3141 3.33464 14.8337 3.33464L5.16699 3.33464C4.68653 3.33464 4.3763 3.33529 4.14019 3.35458ZM5.13489 10.8346L14.8658 10.8346C15.3051 10.8346 15.684 10.8346 15.9962 10.8601C16.3256 10.887 16.6533 10.9465 16.9686 11.1071C17.439 11.3468 17.8215 11.7293 18.0612 12.1997C18.2218 12.515 18.2813 12.8427 18.3082 13.1721C18.3337 13.4843 18.3337 13.8632 18.3337 14.3025V14.8668C18.3337 15.3061 18.3337 15.685 18.3082 15.9972C18.2813 16.3266 18.2218 16.6543 18.0612 16.9696C17.8215 17.44 17.439 17.8225 16.9686 18.0622C16.6533 18.2228 16.3256 18.2822 15.9962 18.3092C15.684 18.3347 15.3051 18.3347 14.8658 18.3346H5.13485C4.69557 18.3347 4.31661 18.3347 4.00447 18.3092C3.67502 18.2822 3.34733 18.2228 3.03202 18.0622C2.56161 17.8225 2.17916 17.44 1.93948 16.9696C1.77882 16.6543 1.71939 16.3266 1.69247 15.9972C1.66697 15.685 1.66698 15.306 1.66699 14.8668V14.3025C1.66698 13.8632 1.66697 13.4843 1.69247 13.1721C1.71939 12.8427 1.77882 12.515 1.93948 12.1997C2.17916 11.7293 2.56161 11.3468 3.03202 11.1071C3.34733 10.9465 3.67502 10.887 4.00447 10.8601C4.31662 10.8346 4.69559 10.8346 5.13489 10.8346ZM4.14019 12.5212C3.9138 12.5397 3.82987 12.5711 3.78867 12.5921C3.63187 12.672 3.50438 12.7995 3.42449 12.9563C3.40349 12.9975 3.3721 13.0814 3.3536 13.3078C3.33431 13.5439 3.33366 13.8542 3.33366 14.3346V14.8346C3.33366 15.3151 3.33431 15.6253 3.3536 15.8614C3.3721 16.0878 3.40349 16.1718 3.42449 16.213C3.50438 16.3698 3.63187 16.4972 3.78867 16.5771C3.82987 16.5981 3.9138 16.6295 4.14019 16.648C4.3763 16.6673 4.68653 16.668 5.16699 16.668H14.8337C15.3141 16.668 15.6243 16.6673 15.8605 16.648C16.0868 16.6295 16.1708 16.5981 16.212 16.5771C16.3688 16.4972 16.4963 16.3698 16.5762 16.213C16.5972 16.1718 16.6286 16.0878 16.6471 15.8614C16.6663 15.6253 16.667 15.3151 16.667 14.8346V14.3346C16.667 13.8542 16.6663 13.5439 16.6471 13.3078C16.6286 13.0814 16.5972 12.9975 16.5762 12.9563C16.4963 12.7995 16.3688 12.672 16.212 12.5921C16.1708 12.5711 16.0868 12.5397 15.8605 12.5212C15.6243 12.502 15.3141 12.5013 14.8337 12.5013L5.16699 12.5013C4.68653 12.5013 4.3763 12.502 4.14019 12.5212Z" fill="#878787"/>
</g>
<defs>
<clipPath id="clip0_4051_10850">
<rect width="20" height="20" fill="white"/>
</clipPath>
</defs>
</svg>
