<svg width="20" height="20" viewBox="0 0 20 20" fill="none" xmlns="http://www.w3.org/2000/svg">
<g clip-path="url(#clip0_4051_10852)">
<path fill-rule="evenodd" clip-rule="evenodd" d="M2.97328 1.66797C2.98214 1.66797 2.991 1.66797 2.99987 1.66797L17.0264 1.66797C17.2368 1.66795 17.4416 1.66792 17.6151 1.68209C17.8056 1.69766 18.0303 1.73438 18.2565 1.84963C18.5701 2.00942 18.8251 2.26439 18.9849 2.57799C19.1001 2.80418 19.1369 3.02895 19.1524 3.21945C19.1666 3.39291 19.1666 3.59773 19.1665 3.80804L19.1665 4.39247C19.1665 4.40767 19.1666 4.42329 19.1666 4.4393C19.1671 4.61289 19.1678 4.83144 19.1118 5.04443C19.0633 5.22901 18.9834 5.40389 18.8757 5.56143C18.7514 5.74323 18.5858 5.88588 18.4543 5.9992C18.4422 6.00964 18.4304 6.01984 18.4189 6.02979L13.0891 10.649C12.9985 10.7275 12.9531 10.7671 12.9216 10.7973C12.9207 10.7981 12.9199 10.7989 12.9191 10.7997C12.919 10.8008 12.919 10.8019 12.9189 10.8031C12.9168 10.8467 12.9165 10.9069 12.9165 11.0268V15.3833C12.9165 15.3924 12.9166 15.403 12.9168 15.415C12.918 15.5296 12.9205 15.7674 12.8377 15.9895C12.768 16.1762 12.6547 16.3436 12.5072 16.4777C12.3318 16.6371 12.11 16.723 12.0032 16.7644C11.992 16.7688 11.9821 16.7726 11.9736 16.776L9.14029 17.9093C9.13258 17.9124 9.12482 17.9155 9.11701 17.9186C8.98462 17.9717 8.83825 18.0302 8.70915 18.0688C8.57024 18.1102 8.34206 18.1644 8.07888 18.1097C7.75636 18.0427 7.47334 17.8511 7.29133 17.5765C7.14281 17.3525 7.10838 17.1205 7.09528 16.9761C7.0831 16.8419 7.08315 16.6843 7.08319 16.5417L7.0832 11.0268C7.0832 10.9069 7.08297 10.8467 7.0808 10.8031C7.08074 10.8019 7.08068 10.8008 7.08063 10.7997C7.07985 10.7989 7.07903 10.7981 7.07818 10.7973C7.04659 10.7671 7.00127 10.7275 6.91067 10.649L1.58085 6.02979C1.56936 6.01984 1.55753 6.00964 1.5454 5.99919C1.41388 5.88588 1.24831 5.74323 1.12402 5.56143C1.01631 5.40389 0.936454 5.22901 0.887943 5.04443C0.831963 4.83144 0.832601 4.6129 0.833107 4.4393C0.833154 4.42329 0.833199 4.40767 0.833199 4.39247V3.83464C0.833199 3.82577 0.833198 3.81691 0.833197 3.80806C0.833172 3.59774 0.833148 3.39291 0.847321 3.21945C0.862884 3.02895 0.899607 2.80418 1.01486 2.57799C1.17464 2.26439 1.42961 2.00942 1.74322 1.84963C1.9694 1.73438 2.19418 1.69766 2.38467 1.68209C2.55814 1.66792 2.76297 1.66795 2.97328 1.66797ZM2.50941 3.34418C2.50909 3.34764 2.50877 3.3513 2.50845 3.35517C2.50051 3.45232 2.49987 3.58753 2.49987 3.83464V4.39247C2.49987 4.51236 2.5001 4.57254 2.50227 4.61622C2.50232 4.6174 2.50238 4.61853 2.50244 4.61961C2.50322 4.62036 2.50403 4.62114 2.50488 4.62196C2.53647 4.6522 2.5818 4.69179 2.6724 4.77031L8.00222 9.38948C8.0137 9.39944 8.02554 9.40964 8.03767 9.42009C8.16918 9.5334 8.33475 9.67605 8.45905 9.85785C8.56676 10.0154 8.64661 10.1903 8.69512 10.3748C8.7511 10.5878 8.75047 10.8064 8.74996 10.98C8.74991 10.996 8.74987 11.0116 8.74987 11.0268V16.2704L11.2499 15.2704V11.0268C11.2499 11.0116 11.2498 10.996 11.2498 10.98C11.2493 10.8064 11.2486 10.5878 11.3046 10.3748C11.3531 10.1903 11.433 10.0154 11.5407 9.85785C11.665 9.67604 11.8306 9.5334 11.9621 9.42009C11.9742 9.40964 11.986 9.39944 11.9975 9.38948L17.3273 4.77031C17.4179 4.69179 17.4633 4.6522 17.4949 4.62196C17.4957 4.62114 17.4965 4.62036 17.4973 4.61961C17.4974 4.61853 17.4974 4.6174 17.4975 4.61622C17.4996 4.57254 17.4999 4.51236 17.4999 4.39247V3.83464C17.4999 3.58753 17.4992 3.45232 17.4913 3.35517C17.491 3.3513 17.4906 3.34764 17.4903 3.34418C17.4869 3.34386 17.4832 3.34354 17.4793 3.34323C17.3822 3.33529 17.247 3.33464 16.9999 3.33464H2.99987C2.75276 3.33464 2.61755 3.33529 2.52039 3.34323C2.51653 3.34354 2.51287 3.34386 2.50941 3.34418Z" fill="#878787"/>
</g>
<defs>
<clipPath id="clip0_4051_10852">
<rect width="20" height="20" fill="white"/>
</clipPath>
</defs>
</svg>
