<svg width="20" height="20" viewBox="0 0 20 20" fill="none" xmlns="http://www.w3.org/2000/svg">
<g clip-path="url(#clip0_4051_10851)">
<path fill-rule="evenodd" clip-rule="evenodd" d="M3.80708 1.66797C3.81593 1.66797 3.82479 1.66797 3.83366 1.66797H7.00033C7.0092 1.66797 7.01806 1.66797 7.02691 1.66797C7.23723 1.66795 7.44206 1.66792 7.61552 1.68209C7.80602 1.69766 8.03079 1.73438 8.25698 1.84963C8.57058 2.00942 8.82555 2.26439 8.98534 2.57799C9.10059 2.80418 9.13731 3.02895 9.15288 3.21945C9.16705 3.39292 9.16702 3.59775 9.167 3.80807V7.02787C9.16702 7.2382 9.16705 7.44303 9.15288 7.6165C9.13731 7.80699 9.10059 8.03177 8.98534 8.25796C8.82555 8.57156 8.57058 8.82653 8.25698 8.98632C8.03079 9.10156 7.80602 9.13829 7.61552 9.15385C7.44205 9.16802 7.23722 9.168 7.0269 9.16797H3.8071C3.59677 9.168 3.39194 9.16802 3.21847 9.15385C3.02798 9.13829 2.8032 9.10156 2.57701 8.98632C2.26341 8.82653 2.00844 8.57156 1.84865 8.25796C1.7334 8.03177 1.69668 7.80699 1.68112 7.6165C1.66694 7.44303 1.66697 7.23821 1.66699 7.02789C1.667 7.01904 1.667 7.01018 1.667 7.00131V3.83464C1.667 3.82577 1.667 3.81691 1.66699 3.80806C1.66697 3.59774 1.66694 3.39291 1.68112 3.21945C1.69668 3.02895 1.7334 2.80418 1.84865 2.57799C2.00844 2.26439 2.26341 2.00942 2.57701 1.84963C2.8032 1.73438 3.02798 1.69766 3.21847 1.68209C3.39194 1.66792 3.59676 1.66795 3.80708 1.66797ZM3.3432 3.34418C3.34288 3.34764 3.34257 3.3513 3.34225 3.35517C3.33431 3.45232 3.33366 3.58753 3.33366 3.83464V7.00131C3.33366 7.24841 3.33431 7.38362 3.34225 7.48078C3.34257 7.48465 3.34288 7.48831 3.3432 7.49177C3.34666 7.49208 3.35032 7.4924 3.35419 7.49272C3.45135 7.50066 3.58656 7.50131 3.83366 7.50131H7.00033C7.24744 7.50131 7.38265 7.50066 7.4798 7.49272C7.48367 7.4924 7.48733 7.49208 7.49079 7.49177C7.49111 7.48831 7.49143 7.48465 7.49174 7.48078C7.49968 7.38362 7.50033 7.24841 7.50033 7.00131V3.83464C7.50033 3.58753 7.49968 3.45232 7.49174 3.35517C7.49143 3.3513 7.49111 3.34764 7.49079 3.34418C7.48733 3.34386 7.48367 3.34354 7.4798 3.34323C7.38265 3.33529 7.24744 3.33464 7.00033 3.33464H3.83366C3.58656 3.33464 3.45135 3.33529 3.35419 3.34323C3.35032 3.34354 3.34666 3.34386 3.3432 3.34418ZM12.9737 1.66797H16.1936C16.4039 1.66795 16.6087 1.66792 16.7822 1.68209C16.9727 1.69766 17.1975 1.73438 17.4236 1.84963C17.7373 2.00942 17.9922 2.26439 18.152 2.57799C18.2673 2.80418 18.304 3.02895 18.3195 3.21945C18.3337 3.39291 18.3337 3.59773 18.3337 3.80804V7.0279C18.3337 7.23822 18.3337 7.44304 18.3195 7.6165C18.304 7.80699 18.2673 8.03177 18.152 8.25796C17.9922 8.57156 17.7373 8.82653 17.4236 8.98632C17.1975 9.10156 16.9727 9.13829 16.7822 9.15385C16.6087 9.16802 16.4039 9.168 16.1936 9.16797H12.9738C12.7634 9.168 12.5586 9.16802 12.3851 9.15385C12.1946 9.13829 11.9699 9.10156 11.7437 8.98632C11.4301 8.82653 11.1751 8.57156 11.0153 8.25796C10.9001 8.03177 10.8633 7.80699 10.8478 7.6165C10.8336 7.44303 10.8336 7.2382 10.8337 7.02787V3.80807C10.8336 3.59775 10.8336 3.39292 10.8478 3.21945C10.8633 3.02895 10.9001 2.80418 11.0153 2.57799C11.1751 2.26439 11.4301 2.00942 11.7437 1.84963C11.9699 1.73438 12.1946 1.69766 12.3851 1.68209C12.5586 1.66792 12.7634 1.66795 12.9737 1.66797ZM12.5099 3.34418C12.5096 3.34764 12.5092 3.3513 12.5089 3.35517C12.501 3.45232 12.5003 3.58753 12.5003 3.83464V7.00131C12.5003 7.24841 12.501 7.38362 12.5089 7.48078C12.5092 7.48465 12.5096 7.48831 12.5099 7.49177C12.5133 7.49208 12.517 7.4924 12.5209 7.49272C12.618 7.50066 12.7532 7.50131 13.0003 7.50131H16.167C16.4141 7.50131 16.5493 7.50066 16.6465 7.49272C16.6503 7.4924 16.654 7.49208 16.6575 7.49176C16.6578 7.4883 16.6581 7.48464 16.6584 7.48078C16.6663 7.38362 16.667 7.24841 16.667 7.00131V3.83464C16.667 3.58753 16.6663 3.45232 16.6584 3.35517C16.6581 3.3513 16.6578 3.34764 16.6574 3.34418C16.654 3.34386 16.6503 3.34354 16.6465 3.34323C16.5493 3.33529 16.4141 3.33464 16.167 3.33464H13.0003C12.7532 3.33464 12.618 3.33529 12.5209 3.34323C12.517 3.34354 12.5133 3.34386 12.5099 3.34418ZM3.8071 10.8346H7.0269C7.23722 10.8346 7.44205 10.8346 7.61552 10.8488C7.80602 10.8643 8.03079 10.901 8.25698 11.0163C8.57058 11.1761 8.82555 11.4311 8.98534 11.7447C9.10059 11.9708 9.13731 12.1956 9.15288 12.3861C9.16705 12.5596 9.16702 12.7644 9.167 12.9747V16.1945C9.16702 16.4049 9.16705 16.6097 9.15288 16.7832C9.13731 16.9737 9.10059 17.1984 8.98534 17.4246C8.82555 17.7382 8.57058 17.9932 8.25698 18.153C8.03079 18.2682 7.80602 18.305 7.61552 18.3205C7.44206 18.3347 7.23724 18.3347 7.02693 18.3346H3.80707C3.59675 18.3347 3.39193 18.3347 3.21847 18.3205C3.02798 18.305 2.8032 18.2682 2.57701 18.153C2.26341 17.9932 2.00844 17.7382 1.84865 17.4246C1.7334 17.1984 1.69668 16.9737 1.68112 16.7832C1.66694 16.6097 1.66697 16.4049 1.66699 16.1946V12.9747C1.66697 12.7644 1.66694 12.5596 1.68112 12.3861C1.69668 12.1956 1.7334 11.9708 1.84865 11.7447C2.00844 11.4311 2.26341 11.1761 2.57701 11.0163C2.8032 10.901 3.02798 10.8643 3.21847 10.8488C3.39194 10.8346 3.59677 10.8346 3.8071 10.8346ZM3.3432 12.5108C3.34288 12.5143 3.34257 12.518 3.34225 12.5218C3.33431 12.619 3.33366 12.7542 3.33366 13.0013V16.168C3.33366 16.4151 3.33431 16.5503 3.34225 16.6474C3.34256 16.6513 3.34288 16.655 3.3432 16.6584C3.34666 16.6587 3.35033 16.6591 3.35419 16.6594C3.45135 16.6673 3.58656 16.668 3.83366 16.668H7.00033C7.24744 16.668 7.38265 16.6673 7.4798 16.6594C7.48367 16.6591 7.48733 16.6587 7.49079 16.6584C7.49111 16.655 7.49143 16.6513 7.49174 16.6474C7.49968 16.5503 7.50033 16.4151 7.50033 16.168V13.0013C7.50033 12.7542 7.49968 12.619 7.49174 12.5218C7.49143 12.518 7.49111 12.5143 7.49079 12.5108C7.48733 12.5105 7.48367 12.5102 7.4798 12.5099C7.38265 12.502 7.24744 12.5013 7.00033 12.5013H3.83366C3.58656 12.5013 3.45135 12.502 3.35419 12.5099C3.35032 12.5102 3.34666 12.5105 3.3432 12.5108ZM12.9738 10.8346H16.1936C16.4039 10.8346 16.6087 10.8346 16.7822 10.8488C16.9727 10.8643 17.1975 10.901 17.4236 11.0163C17.7373 11.1761 17.9922 11.4311 18.152 11.7447C18.2673 11.9708 18.304 12.1956 18.3195 12.3861C18.3337 12.5596 18.3337 12.7644 18.3337 12.9747V16.1946C18.3337 16.4049 18.3337 16.6097 18.3195 16.7832C18.304 16.9737 18.2673 17.1984 18.152 17.4246C17.9922 17.7382 17.7373 17.9932 17.4236 18.153C17.1975 18.2682 16.9727 18.305 16.7822 18.3205C16.6087 18.3347 16.4039 18.3347 16.1936 18.3346H12.9737C12.7634 18.3347 12.5586 18.3347 12.3851 18.3205C12.1946 18.305 11.9699 18.2682 11.7437 18.153C11.4301 17.9932 11.1751 17.7382 11.0153 17.4246C10.9001 17.1984 10.8633 16.9737 10.8478 16.7832C10.8336 16.6097 10.8336 16.4049 10.8337 16.1945V12.9747C10.8336 12.7644 10.8336 12.5596 10.8478 12.3861C10.8633 12.1956 10.9001 11.9708 11.0153 11.7447C11.1751 11.4311 11.4301 11.1761 11.7437 11.0163C11.9699 10.901 12.1946 10.8643 12.3851 10.8488C12.5586 10.8346 12.7634 10.8346 12.9738 10.8346ZM12.5099 12.5108C12.5096 12.5143 12.5092 12.518 12.5089 12.5218C12.501 12.619 12.5003 12.7542 12.5003 13.0013V16.168C12.5003 16.4151 12.501 16.5503 12.5089 16.6474C12.5092 16.6513 12.5096 16.655 12.5099 16.6584C12.5133 16.6587 12.517 16.6591 12.5209 16.6594C12.618 16.6673 12.7532 16.668 13.0003 16.668H16.167C16.4141 16.668 16.5493 16.6673 16.6465 16.6594C16.6503 16.6591 16.654 16.6587 16.6575 16.6584C16.6578 16.655 16.6581 16.6513 16.6584 16.6474C16.6663 16.5503 16.667 16.4151 16.667 16.168V13.0013C16.667 12.7542 16.6663 12.619 16.6584 12.5218C16.6581 12.518 16.6578 12.5143 16.6574 12.5108C16.654 12.5105 16.6503 12.5102 16.6465 12.5099C16.5493 12.502 16.4141 12.5013 16.167 12.5013H13.0003C12.7532 12.5013 12.618 12.502 12.5209 12.5099C12.517 12.5102 12.5133 12.5105 12.5099 12.5108Z" fill="#003E93"/>
</g>
<defs>
<clipPath id="clip0_4051_10851">
<rect width="20" height="20" fill="white"/>
</clipPath>
</defs>
</svg>
