<svg width="20" height="20" viewBox="0 0 20 20" fill="none" xmlns="http://www.w3.org/2000/svg">
<g clip-path="url(#clip0_5816_14527)">
<path fill-rule="evenodd" clip-rule="evenodd" d="M4.974 0.832032H15.0273C15.3928 0.832022 15.7083 0.832012 15.9693 0.849824C16.2442 0.868577 16.5191 0.90983 16.7907 1.02233C17.4033 1.27607 17.8899 1.76275 18.1437 2.37532C18.2562 2.64693 18.2974 2.92186 18.3162 3.19671C18.334 3.45776 18.334 3.77317 18.334 4.13871V4.19202C18.334 4.55756 18.334 4.87297 18.3162 5.13402C18.2974 5.40888 18.2562 5.6838 18.1437 5.95541C17.8899 6.56798 17.4033 7.05466 16.7907 7.3084C16.5191 7.4209 16.2442 7.46215 15.9693 7.48091C15.7083 7.49872 15.3928 7.49871 15.0273 7.4987L10.834 7.4987V9.9987H12.7017C13.3725 9.99869 13.9262 9.99868 14.3772 10.0355C14.8456 10.0738 15.2762 10.1559 15.6806 10.362C16.3078 10.6816 16.8178 11.1915 17.1373 11.8187C17.3434 12.2232 17.4256 12.6538 17.4638 13.1222C17.4913 13.4583 17.4983 13.8513 17.5 14.3074C18.4714 14.6504 19.1673 15.5766 19.1673 16.6654C19.1673 18.0461 18.048 19.1654 16.6673 19.1654C15.2866 19.1654 14.1673 18.0461 14.1673 16.6654C14.1673 15.5771 14.8627 14.6513 15.8333 14.3079C15.8315 13.8674 15.8252 13.533 15.8027 13.2579C15.7728 12.8926 15.7187 12.7057 15.6523 12.5754C15.4925 12.2618 15.2376 12.0068 14.924 11.847C14.7936 11.7806 14.6068 11.7265 14.2415 11.6967C13.8664 11.666 13.3811 11.6654 12.6673 11.6654H10.834V14.3076C11.805 14.6508 12.5007 15.5769 12.5007 16.6654C12.5007 18.0461 11.3814 19.1654 10.0007 19.1654C8.61994 19.1654 7.50065 18.0461 7.50065 16.6654C7.50065 15.5769 8.19632 14.6508 9.16732 14.3076V11.6654H7.33398C6.62017 11.6654 6.13492 11.666 5.75985 11.6967C5.3945 11.7265 5.20767 11.7806 5.07733 11.847C4.76373 12.0068 4.50876 12.2618 4.34897 12.5754C4.28257 12.7057 4.22846 12.8926 4.19861 13.2579C4.17613 13.533 4.16979 13.8674 4.16801 14.3079C5.13864 14.6513 5.83398 15.5771 5.83398 16.6654C5.83398 18.0461 4.7147 19.1654 3.33398 19.1654C1.95327 19.1654 0.833984 18.0461 0.833984 16.6654C0.833984 15.5766 1.52994 14.6504 2.50125 14.3074C2.50303 13.8513 2.51002 13.4583 2.53748 13.1222C2.57575 12.6538 2.65789 12.2232 2.86396 11.8187C3.18354 11.1915 3.69348 10.6816 4.32068 10.362C4.72513 10.1559 5.15571 10.0738 5.62413 10.0355C6.07513 9.99868 6.62877 9.99869 7.29959 9.9987H9.16732V7.4987L4.97399 7.4987C4.60845 7.49871 4.29305 7.49872 4.032 7.48091C3.75714 7.46215 3.48222 7.4209 3.21061 7.3084C2.59804 7.05466 2.11135 6.56798 1.85762 5.95541C1.74512 5.6838 1.70386 5.40888 1.68511 5.13402C1.6673 4.87297 1.66731 4.55756 1.66732 4.19202V4.13871C1.66731 3.77317 1.6673 3.45776 1.68511 3.19671C1.70386 2.92186 1.74512 2.64693 1.85762 2.37532C2.11135 1.76275 2.59804 1.27607 3.21061 1.02233C3.48222 0.90983 3.75714 0.868577 4.032 0.849824C4.29305 0.832012 4.60846 0.832022 4.974 0.832032ZM15.0006 5.83203C15.4003 5.83203 15.6584 5.83158 15.8559 5.81811C16.0458 5.80514 16.1182 5.78296 16.1529 5.7686C16.3571 5.68402 16.5193 5.52179 16.6039 5.3176C16.6182 5.28292 16.6404 5.21056 16.6534 5.02057C16.6669 4.82308 16.6673 4.56505 16.6673 4.16537C16.6673 3.76568 16.6669 3.50765 16.6534 3.31017C16.6404 3.12017 16.6182 3.04781 16.6039 3.01313C16.5193 2.80894 16.3571 2.64671 16.1529 2.56213C16.1182 2.54777 16.0458 2.52559 15.8559 2.51262C15.6584 2.49915 15.4003 2.4987 15.0006 2.4987H5.00065C4.60096 2.4987 4.34293 2.49915 4.14545 2.51262C3.95545 2.52559 3.88309 2.54777 3.84841 2.56213C3.64422 2.64671 3.482 2.80894 3.39742 3.01313C3.38305 3.04781 3.36087 3.12017 3.34791 3.31017C3.33444 3.50765 3.33398 3.76568 3.33398 4.16537C3.33398 4.56505 3.33444 4.82308 3.34791 5.02057C3.36087 5.21056 3.38305 5.28292 3.39742 5.3176C3.482 5.52179 3.64422 5.68402 3.84841 5.7686C3.88309 5.78296 3.95545 5.80514 4.14545 5.81811C4.34293 5.83158 4.60096 5.83203 5.00065 5.83203H15.0006ZM3.33398 15.832C2.87375 15.832 2.50065 16.2051 2.50065 16.6654C2.50065 17.1256 2.87375 17.4987 3.33398 17.4987C3.79422 17.4987 4.16732 17.1256 4.16732 16.6654C4.16732 16.2051 3.79422 15.832 3.33398 15.832ZM10.0007 15.832C9.54041 15.832 9.16732 16.2051 9.16732 16.6654C9.16732 17.1256 9.54041 17.4987 10.0007 17.4987C10.4609 17.4987 10.834 17.1256 10.834 16.6654C10.834 16.2051 10.4609 15.832 10.0007 15.832ZM16.6673 15.832C16.2071 15.832 15.834 16.2051 15.834 16.6654C15.834 17.1256 16.2071 17.4987 16.6673 17.4987C17.1276 17.4987 17.5006 17.1256 17.5006 16.6654C17.5006 16.2051 17.1276 15.832 16.6673 15.832Z" fill="#141414"/>
</g>
<defs>
<clipPath id="clip0_5816_14527">
<rect width="20" height="20" fill="white"/>
</clipPath>
</defs>
</svg>
