<svg width="24" height="25" viewBox="0 0 24 25" fill="none" xmlns="http://www.w3.org/2000/svg">
<path fill-rule="evenodd" clip-rule="evenodd" d="M20.2683 5.58203H18.4167V3.73036C18.4167 3.23536 18.0133 2.83203 17.5183 2.83203H17.4908C16.9867 2.83203 16.5833 3.23536 16.5833 3.73036V5.58203H14.7408C14.2458 5.58203 13.8425 5.98536 13.8333 6.48036V6.50786C13.8333 7.01203 14.2367 7.41536 14.7408 7.41536H16.5833V9.25786C16.5833 9.75286 16.9867 10.1654 17.4908 10.1562H17.5183C18.0133 10.1562 18.4167 9.75286 18.4167 9.25786V7.41536H20.2683C20.7633 7.41536 21.1667 7.01203 21.1667 6.51703V6.48036C21.1667 5.98536 20.7633 5.58203 20.2683 5.58203ZM15.6667 9.25786V8.33203H14.7408C14.255 8.33203 13.7967 8.13953 13.4483 7.80036C13.1092 7.45203 12.9167 6.9937 12.9167 6.48036C12.9167 6.15036 13.0083 5.84786 13.1642 5.58203H5.58333C4.575 5.58203 3.75 6.40703 3.75 7.41536V18.4154C3.75 19.4237 4.575 20.2487 5.58333 20.2487H16.5833C17.5917 20.2487 18.4167 19.4237 18.4167 18.4154V10.8254C18.1417 10.9812 17.83 11.082 17.4817 11.082C16.4825 11.0729 15.6667 10.257 15.6667 9.25786ZM6.5 18.4154H15.63C16.015 18.4154 16.2258 17.9754 15.9875 17.6729L13.2833 14.2995C13.1 14.0612 12.7425 14.0704 12.5592 14.3087L10.1667 17.4987L8.7 15.2895C8.51667 15.0329 8.14083 15.0145 7.94833 15.2712L6.13333 17.682C5.90417 17.9845 6.12417 18.4154 6.5 18.4154Z" fill="#637381"/>
</svg>
