<svg width="20" height="20" viewBox="0 0 20 20" fill="none" xmlns="http://www.w3.org/2000/svg">
<g clip-path="url(#clip0_3574_19232)">
<path fill-rule="evenodd" clip-rule="evenodd" d="M6.46689 1.66797H13.5357C14.2065 1.66796 14.7602 1.66795 15.2112 1.7048C15.6796 1.74307 16.1102 1.82521 16.5146 2.03128C17.1418 2.35086 17.6517 2.86079 17.9713 3.488C18.1774 3.89245 18.2595 4.32303 18.2978 4.79145C18.3347 5.24244 18.3346 5.79607 18.3346 6.46687V13.5357C18.3346 14.2065 18.3347 14.7602 18.2978 15.2112C18.2595 15.6796 18.1774 16.1102 17.9713 16.5146C17.6517 17.1418 17.1418 17.6517 16.5146 17.9713C16.1102 18.1774 15.6796 18.2595 15.2112 18.2978C14.7602 18.3347 14.2065 18.3346 13.5357 18.3346H6.46687C5.79607 18.3346 5.24244 18.3347 4.79145 18.2978C4.32303 18.2595 3.89245 18.1774 3.488 17.9713C2.86079 17.6517 2.35086 17.1418 2.03128 16.5146C1.82521 16.1102 1.74307 15.6796 1.7048 15.2112C1.66795 14.7602 1.66796 14.2065 1.66797 13.5357V6.46689C1.66796 5.79608 1.66795 5.24244 1.7048 4.79145C1.74307 4.32303 1.82521 3.89245 2.03128 3.488C2.35086 2.86079 2.86079 2.35086 3.488 2.03128C3.89245 1.82521 4.32303 1.74307 4.79145 1.7048C5.24244 1.66795 5.79608 1.66796 6.46689 1.66797ZM4.92717 3.36593C4.56182 3.39578 4.37499 3.44988 4.24465 3.51629C3.93105 3.67608 3.67608 3.93105 3.51629 4.24465C3.44988 4.37499 3.39578 4.56182 3.36593 4.92717C3.33528 5.30224 3.33464 5.78749 3.33464 6.5013V13.5013C3.33464 14.2151 3.33528 14.7004 3.36593 15.0754C3.39578 15.4408 3.44988 15.6276 3.51629 15.758C3.67608 16.0716 3.93105 16.3265 4.24465 16.4863C4.37499 16.5527 4.56182 16.6068 4.92717 16.6367C5.30224 16.6673 5.78749 16.668 6.5013 16.668H13.5013C14.2151 16.668 14.7004 16.6673 15.0754 16.6367C15.4408 16.6068 15.6276 16.5527 15.758 16.4863C16.0716 16.3265 16.3265 16.0716 16.4863 15.758C16.5527 15.6276 16.6068 15.4408 16.6367 15.0754C16.6673 14.7004 16.668 14.2151 16.668 13.5013V6.5013C16.668 5.78749 16.6673 5.30224 16.6367 4.92717C16.6068 4.56182 16.5527 4.37499 16.4863 4.24465C16.3265 3.93105 16.0716 3.67608 15.758 3.51629C15.6276 3.44988 15.4408 3.39578 15.0754 3.36593C14.7004 3.33528 14.2151 3.33464 13.5013 3.33464H6.5013C5.78749 3.33464 5.30224 3.33528 4.92717 3.36593Z" fill="#B8B8B8"/>
</g>
<defs>
<clipPath id="clip0_3574_19232">
<rect width="20" height="20" fill="white"/>
</clipPath>
</defs>
</svg>
