<svg width="20" height="20" viewBox="0 0 20 20" fill="none" xmlns="http://www.w3.org/2000/svg">
<path fill-rule="evenodd" clip-rule="evenodd" d="M9.46172 1.47911C9.80202 1.31686 10.1974 1.31686 10.5377 1.47911C10.8318 1.61937 10.994 1.8629 11.0758 1.99651C11.1604 2.13463 11.2472 2.31057 11.3318 2.48207C11.3361 2.49082 11.3404 2.49957 11.3448 2.5083L13.1282 6.12146L17.1466 6.7088C17.3358 6.73641 17.5299 6.76474 17.6873 6.80259C17.8396 6.83922 18.1212 6.91842 18.3453 7.15496C18.6045 7.4286 18.7264 7.80461 18.6771 8.17831C18.6344 8.50133 18.4529 8.73071 18.3511 8.84973C18.2458 8.97275 18.1053 9.10957 17.9683 9.24292L15.0618 12.0739L15.7476 16.0724C15.78 16.2609 15.8132 16.4544 15.826 16.6159C15.8383 16.772 15.8503 17.0645 15.6947 17.3509C15.5147 17.6822 15.1948 17.9146 14.8241 17.9833C14.5036 18.0427 14.2292 17.941 14.0845 17.8809C13.9349 17.8189 13.7612 17.7275 13.5919 17.6384L9.99969 15.7493L6.40747 17.6384C6.23817 17.7275 6.06449 17.8189 5.91487 17.8809C5.77017 17.941 5.49577 18.0427 5.17526 17.9833C4.80454 17.9146 4.48464 17.6822 4.30468 17.3509C4.14909 17.0645 4.16105 16.772 4.17341 16.6159C4.1862 16.4544 4.21942 16.261 4.25179 16.0724L4.93759 12.0739L2.05204 9.26334C2.04507 9.25656 2.03809 9.24976 2.0311 9.24295C1.89413 9.1096 1.75359 8.97277 1.64832 8.84973C1.54649 8.73071 1.36495 8.50133 1.32229 8.17831C1.27294 7.80461 1.39486 7.4286 1.6541 7.15496C1.8782 6.91842 2.15979 6.83922 2.31209 6.80259C2.46952 6.76474 2.66362 6.73641 2.85278 6.7088C2.86243 6.70739 2.87207 6.70598 2.88169 6.70457L6.87114 6.12146L8.65463 2.5083C8.65894 2.49957 8.66326 2.49082 8.66758 2.48206C8.75219 2.31057 8.83899 2.13463 8.92355 1.99651C9.00535 1.8629 9.16754 1.61937 9.46172 1.47911ZM6.78496 6.294C6.78485 6.29421 6.78485 6.29421 6.78496 6.294V6.294ZM7.06184 6.09267C7.06207 6.09262 7.06207 6.09262 7.06184 6.09267V6.09267ZM15.03 11.8833C15.03 11.8831 15.03 11.8831 15.03 11.8833V11.8833ZM9.99969 3.54878L8.32691 6.93765C8.32372 6.94413 8.32007 6.95167 8.31597 6.96016C8.27627 7.04237 8.19405 7.21259 8.06367 7.35292C7.95361 7.47138 7.82161 7.56736 7.675 7.63554C7.5013 7.71631 7.31403 7.74204 7.22358 7.75447C7.21425 7.75575 7.20595 7.7569 7.1988 7.75794L3.4567 8.3049L6.16328 10.9411C6.16846 10.9462 6.17452 10.952 6.18134 10.9585C6.24738 11.0217 6.38412 11.1526 6.47743 11.3202C6.5562 11.4617 6.60673 11.6171 6.62622 11.7778C6.64931 11.9683 6.61571 12.1546 6.59948 12.2445C6.59781 12.2538 6.59631 12.2621 6.59509 12.2692L5.95651 15.9925L9.30152 14.2334C9.30792 14.23 9.31532 14.226 9.32363 14.2216C9.40417 14.1783 9.57093 14.0888 9.75913 14.0519C9.91799 14.0207 10.0814 14.0207 10.2403 14.0519C10.4285 14.0888 10.5952 14.1783 10.6758 14.2216C10.6841 14.226 10.6915 14.23 10.6979 14.2334L14.0429 15.9925L13.4043 12.2692C13.4031 12.2621 13.4016 12.2538 13.3999 12.2445C13.3837 12.1546 13.3501 11.9683 13.3732 11.7778C13.3927 11.6171 13.4432 11.4617 13.522 11.3202C13.6153 11.1526 13.752 11.0217 13.818 10.9585C13.8249 10.952 13.8309 10.9462 13.8361 10.9411L16.5427 8.3049L12.8006 7.75794C12.7934 7.7569 12.7851 7.75575 12.7758 7.75447C12.6854 7.74204 12.4981 7.71631 12.3244 7.63554C12.1778 7.56736 12.0458 7.47138 11.9357 7.35292C11.8053 7.21259 11.7231 7.04237 11.6834 6.96016C11.6793 6.95167 11.6757 6.94413 11.6725 6.93765L9.99969 3.54878Z" fill="#878787" style="fill:#878787;fill:color(display-p3 0.5294 0.5294 0.5294);fill-opacity:1;"/>
</svg>
