<svg width="19" height="20" viewBox="0 0 19 20" fill="none" xmlns="http://www.w3.org/2000/svg">
<path fill-rule="evenodd" clip-rule="evenodd" d="M9.50065 2.50065C5.35851 2.50065 2.00065 5.85851 2.00065 10.0007C2.00065 14.1428 5.35851 17.5006 9.50065 17.5006C13.6428 17.5006 17.0006 14.1428 17.0006 10.0007C17.0006 5.85851 13.6428 2.50065 9.50065 2.50065ZM0.333984 10.0007C0.333984 4.93804 4.43804 0.833984 9.50065 0.833984C14.5633 0.833984 18.6673 4.93804 18.6673 10.0007C18.6673 15.0633 14.5633 19.1673 9.50065 19.1673C4.43804 19.1673 0.333984 15.0633 0.333984 10.0007ZM13.8399 6.9114C14.1653 7.23683 14.1653 7.76447 13.8399 8.08991L8.83991 13.0899C8.51447 13.4153 7.98683 13.4153 7.6614 13.0899L5.1614 10.5899C4.83596 10.2645 4.83596 9.73683 5.1614 9.4114C5.48683 9.08596 6.01447 9.08596 6.33991 9.4114L8.25065 11.3221L12.6614 6.9114C12.9868 6.58596 13.5145 6.58596 13.8399 6.9114Z" fill="#141414" style="fill:#141414;fill:color(display-p3 0.0792 0.0792 0.0792);fill-opacity:1;"/>
</svg>
