<svg width="20" height="20" viewBox="0 0 20 20" fill="none" xmlns="http://www.w3.org/2000/svg">
<path fill-rule="evenodd" clip-rule="evenodd" d="M6.66602 2.5013C6.66602 2.04106 7.03911 1.66797 7.49935 1.66797H12.4993C12.9596 1.66797 13.3327 2.04106 13.3327 2.5013C13.3327 2.96154 12.9596 3.33464 12.4993 3.33464H7.49935C7.03911 3.33464 6.66602 2.96154 6.66602 2.5013ZM4.15955 4.16797H2.49935C2.03911 4.16797 1.66602 4.54106 1.66602 5.0013C1.66602 5.46154 2.03911 5.83464 2.49935 5.83464H3.38639L3.92113 13.8558C3.96309 14.4854 3.99782 15.0063 4.06008 15.4304C4.1249 15.8719 4.22772 16.2753 4.44193 16.6513C4.77537 17.2366 5.27834 17.7072 5.88454 18.001C6.27395 18.1897 6.68335 18.2654 7.12818 18.3007C7.55542 18.3347 8.07754 18.3346 8.70847 18.3346H11.2902C11.9212 18.3346 12.4433 18.3347 12.8705 18.3007C13.3154 18.2654 13.7247 18.1897 14.1142 18.001C14.7204 17.7072 15.2233 17.2366 15.5568 16.6513C15.771 16.2753 15.8738 15.8719 15.9386 15.4304C16.0009 15.0063 16.0356 14.4853 16.0776 13.8557L16.6123 5.83464H17.4993C17.9596 5.83464 18.3327 5.46154 18.3327 5.0013C18.3327 4.54106 17.9596 4.16797 17.4993 4.16797H15.8391C15.8343 4.16793 15.8294 4.16793 15.8246 4.16797H4.17413C4.16928 4.16793 4.16442 4.16793 4.15955 4.16797ZM14.9419 5.83464H5.05675L5.58191 13.7119C5.62663 14.3828 5.65755 14.8374 5.70906 15.1883C5.7591 15.529 5.82022 15.7037 5.89008 15.8263C6.0568 16.119 6.30829 16.3542 6.61139 16.5011C6.73839 16.5627 6.91673 16.612 7.26006 16.6393C7.61354 16.6674 8.06923 16.668 8.74156 16.668H11.2571C11.9295 16.668 12.3852 16.6674 12.7386 16.6393C13.082 16.612 13.2603 16.5627 13.3873 16.5011C13.6904 16.3542 13.9419 16.119 14.1086 15.8263C14.1785 15.7037 14.2396 15.529 14.2896 15.1883C14.3411 14.8374 14.3721 14.3828 14.4168 13.7119L14.9419 5.83464ZM8.33268 7.91797C8.79292 7.91797 9.16602 8.29107 9.16602 8.7513V12.918C9.16602 13.3782 8.79292 13.7513 8.33268 13.7513C7.87245 13.7513 7.49935 13.3782 7.49935 12.918V8.7513C7.49935 8.29107 7.87245 7.91797 8.33268 7.91797ZM11.666 7.91797C12.1263 7.91797 12.4993 8.29107 12.4993 8.7513V12.918C12.4993 13.3782 12.1263 13.7513 11.666 13.7513C11.2058 13.7513 10.8327 13.3782 10.8327 12.918V8.7513C10.8327 8.29107 11.2058 7.91797 11.666 7.91797Z" fill="#FF3838"/>
</svg>
