<svg width="21" height="20" viewBox="0 0 21 20" fill="none" xmlns="http://www.w3.org/2000/svg">
<path fill-rule="evenodd" clip-rule="evenodd" d="M8.83301 4.16667C8.83301 3.24619 9.5792 2.5 10.4997 2.5C11.4201 2.5 12.1663 3.24619 12.1663 4.16667C12.1663 5.08714 11.4201 5.83333 10.4997 5.83333C9.5792 5.83333 8.83301 5.08714 8.83301 4.16667ZM8.83301 10C8.83301 9.07953 9.5792 8.33333 10.4997 8.33333C11.4201 8.33333 12.1663 9.07953 12.1663 10C12.1663 10.9205 11.4201 11.6667 10.4997 11.6667C9.5792 11.6667 8.83301 10.9205 8.83301 10ZM8.83301 15.8333C8.83301 14.9129 9.5792 14.1667 10.4997 14.1667C11.4201 14.1667 12.1663 14.9129 12.1663 15.8333C12.1663 16.7538 11.4201 17.5 10.4997 17.5C9.5792 17.5 8.83301 16.7538 8.83301 15.8333Z" fill="#141414" style="fill:#141414;fill:color(display-p3 0.0792 0.0792 0.0792);fill-opacity:1;"/>
</svg>
