<svg width="20" height="20" viewBox="0 0 20 20" fill="none" xmlns="http://www.w3.org/2000/svg">
<g clip-path="url(#clip0_6535_95396)">
<path d="M13.757 11.4173L11.5737 10.484C11.5737 10.484 11.532 10.4673 11.507 10.459L10.807 10.2257C10.557 10.1423 10.3487 10.0673 10.0654 10.1007C9.8237 10.1257 9.5987 10.2256 9.4237 10.3673C9.20703 10.5423 9.10703 10.7423 8.99036 10.9757L8.53203 11.884C8.4737 12.0007 8.4237 12.109 8.39036 12.2423C8.35703 12.3673 8.3487 12.5006 8.35703 12.634C8.36536 12.784 8.40703 12.8923 8.4487 13.0257L9.04036 14.809C9.10703 15.0173 9.1737 15.209 9.3237 15.384C9.45703 15.5423 9.63203 15.6673 9.8237 15.7423C10.0487 15.834 10.2404 15.834 10.4654 15.834H12.132C12.307 15.834 12.4487 15.834 12.632 15.7756C12.782 15.7256 12.9237 15.6506 13.0654 15.5423C13.207 15.4256 13.2904 15.3007 13.382 15.159L14.407 13.6257C14.607 13.3257 14.757 13.0923 14.782 12.759C14.7987 12.4673 14.7154 12.1756 14.532 11.934C14.332 11.6673 14.0737 11.5507 13.7487 11.4173H13.757ZM12.0487 14.1673H10.5987L10.057 12.5757L10.4237 11.8507L10.957 12.0257L12.9237 12.8673L12.057 14.159L12.0487 14.1673Z" fill="#141414"/>
<path d="M9.9987 0.833984C4.94036 0.833984 0.832031 4.94232 0.832031 10.0007C0.832031 15.059 4.94036 19.1673 9.9987 19.1673C15.057 19.1673 19.1654 15.059 19.1654 10.0007C19.1654 4.94232 15.057 0.833984 9.9987 0.833984ZM9.9987 2.50065C10.357 2.50065 10.707 2.53398 11.0487 2.58398L10.8654 5.27565L7.73203 6.66732C7.61536 6.71732 7.55703 6.75065 7.4987 6.79232C7.4237 6.84232 7.35703 6.89232 7.30703 6.94232C7.25703 6.98398 7.21536 7.03398 7.14036 7.14232L6.48203 8.01732L3.65703 6.00065C4.99036 3.90065 7.3237 2.50065 9.99036 2.50065H9.9987ZM9.9987 17.5006C5.86536 17.5006 2.4987 14.134 2.4987 10.0007C2.4987 9.13398 2.65703 8.30065 2.93203 7.52565L5.65703 9.47565C5.89036 9.64232 6.09036 9.78398 6.39036 9.83398C6.45703 9.84232 6.5237 9.85065 6.58203 9.85065C6.7737 9.85065 6.96536 9.80898 7.14036 9.71732C7.40703 9.58398 7.55703 9.38398 7.73203 9.15065L8.45703 8.18398L11.6487 6.76732C11.8237 6.69232 11.9737 6.62565 12.1237 6.48398C12.257 6.35898 12.3654 6.20898 12.432 6.04232C12.507 5.85065 12.5237 5.69232 12.532 5.50065L12.6987 3.01732C15.507 4.10065 17.507 6.82565 17.507 10.009C17.507 14.1423 14.1404 17.509 10.007 17.509L9.9987 17.5006Z" fill="#141414"/>
</g>
<defs>
<clipPath id="clip0_6535_95396">
<rect width="20" height="20" fill="white"/>
</clipPath>
</defs>
</svg>
