<svg width="20" height="20" viewBox="0 0 20 20" fill="none" xmlns="http://www.w3.org/2000/svg">
<g clip-path="url(#clip0_5762_50734)">
<path fill-rule="evenodd" clip-rule="evenodd" d="M9.41074 3.57806C9.73618 3.25263 10.2638 3.25263 10.5893 3.57806L14.7559 7.74473C15.0814 8.07017 15.0814 8.5978 14.7559 8.92324C14.4305 9.24868 13.9028 9.24868 13.5774 8.92324L10 5.34583L6.42259 8.92324C6.09715 9.24868 5.56951 9.24868 5.24408 8.92324C4.91864 8.5978 4.91864 8.07017 5.24408 7.74473L9.41074 3.57806Z" fill="#878787"/>
<path fill-rule="evenodd" clip-rule="evenodd" d="M10.5893 16.4232C10.2638 16.7487 9.73618 16.7487 9.41074 16.4232L5.24408 12.2566C4.91864 11.9311 4.91864 11.4035 5.24408 11.0781C5.56951 10.7526 6.09715 10.7526 6.42259 11.0781L10 14.6555L13.5774 11.0781C13.9028 10.7526 14.4305 10.7526 14.7559 11.0781C15.0814 11.4035 15.0814 11.9311 14.7559 12.2566L10.5893 16.4232Z" fill="#878787"/>
<path d="M9.16667 8.33398C9.16667 7.87375 9.53976 7.50065 10 7.50065C10.4602 7.50065 10.8333 7.87375 10.8333 8.33398V11.6673C10.8333 12.1276 10.4602 12.5007 10 12.5007C9.53976 12.5007 9.16667 12.1276 9.16667 11.6673V8.33398Z" fill="#878787"/>
</g>
<defs>
<clipPath id="clip0_5762_50734">
<rect width="20" height="20" rx="10" fill="white"/>
</clipPath>
</defs>
</svg>
