<svg width="20" height="20" viewBox="0 0 20 20" fill="none" xmlns="http://www.w3.org/2000/svg">
<path fill-rule="evenodd" clip-rule="evenodd" d="M10.0013 3.33464C8.39047 3.33464 7.08464 4.64047 7.08464 6.2513C7.08464 7.86213 8.39047 9.16797 10.0013 9.16797C11.6121 9.16797 12.918 7.86213 12.918 6.2513C12.918 4.64047 11.6121 3.33464 10.0013 3.33464ZM5.41797 6.2513C5.41797 3.72 7.47 1.66797 10.0013 1.66797C12.5326 1.66797 14.5846 3.72 14.5846 6.2513C14.5846 8.78261 12.5326 10.8346 10.0013 10.8346C7.47 10.8346 5.41797 8.78261 5.41797 6.2513ZM10.0013 14.168C7.34197 14.168 4.91241 15.3254 3.10764 17.2396C2.79191 17.5745 2.2645 17.59 1.92964 17.2743C1.59477 16.9586 1.57925 16.4312 1.89497 16.0963C3.98318 13.8815 6.839 12.5013 10.0013 12.5013C13.1636 12.5013 16.0194 13.8815 18.1076 16.0963C18.4234 16.4312 18.4078 16.9586 18.073 17.2743C17.7381 17.59 17.2107 17.5745 16.895 17.2396C15.0902 15.3254 12.6606 14.168 10.0013 14.168Z" fill="#141414"/>
</svg>
