<svg width="16" height="16" viewBox="0 0 16 16" fill="none" xmlns="http://www.w3.org/2000/svg">
<g clip-path="url(#clip0_4324_22867)">
<path fill-rule="evenodd" clip-rule="evenodd" d="M8.00033 1.99935C4.68662 1.99935 2.00033 4.68564 2.00033 7.99935C2.00033 11.3131 4.68662 13.9993 8.00033 13.9993C11.314 13.9993 14.0003 11.3131 14.0003 7.99935C14.0003 4.68564 11.314 1.99935 8.00033 1.99935ZM0.666992 7.99935C0.666992 3.94926 3.95024 0.666016 8.00033 0.666016C12.0504 0.666016 15.3337 3.94926 15.3337 7.99935C15.3337 12.0494 12.0504 15.3327 8.00033 15.3327C3.95024 15.3327 0.666992 12.0494 0.666992 7.99935ZM8.00033 3.33268C8.36852 3.33268 8.66699 3.63116 8.66699 3.99935V7.58733L10.9651 8.7364C11.2945 8.90106 11.4279 9.30151 11.2633 9.63082C11.0986 9.96014 10.6982 10.0936 10.3688 9.92897L7.70218 8.59563C7.47633 8.48271 7.33366 8.25186 7.33366 7.99935V3.99935C7.33366 3.63116 7.63213 3.33268 8.00033 3.33268Z" fill="#878787" style="fill:#878787;fill:color(display-p3 0.5294 0.5294 0.5294);fill-opacity:1;"/>
</g>
<defs>
<clipPath id="clip0_4324_22867">
<rect width="16" height="16" fill="white" style="fill:white;fill-opacity:1;"/>
</clipPath>
</defs>
</svg>
