<svg width="20" height="20" viewBox="0 0 20 20" fill="none" xmlns="http://www.w3.org/2000/svg">
<g clip-path="url(#clip0_6535_85049)">
<path fill-rule="evenodd" clip-rule="evenodd" d="M9.41074 3.57611C9.73618 3.25067 10.2638 3.25067 10.5893 3.57611L14.7559 7.74278C15.0814 8.06821 15.0814 8.59585 14.7559 8.92129C14.4305 9.24672 13.9028 9.24672 13.5774 8.92129L10 5.34388L6.42259 8.92129C6.09715 9.24672 5.56951 9.24672 5.24408 8.92129C4.91864 8.59585 4.91864 8.06821 5.24408 7.74278L9.41074 3.57611Z" fill="#878787"/>
<path fill-rule="evenodd" clip-rule="evenodd" d="M10.5893 16.4213C10.2638 16.7467 9.73618 16.7467 9.41074 16.4213L5.24408 12.2546C4.91864 11.9292 4.91864 11.4015 5.24408 11.0761C5.56951 10.7507 6.09715 10.7507 6.42259 11.0761L10 14.6535L13.5774 11.0761C13.9028 10.7507 14.4305 10.7507 14.7559 11.0761C15.0814 11.4015 15.0814 11.9292 14.7559 12.2546L10.5893 16.4213Z" fill="#878787"/>
</g>
<defs>
<clipPath id="clip0_6535_85049">
<rect width="20" height="20" rx="10" fill="white"/>
</clipPath>
</defs>
</svg>
