<svg xmlns="http://www.w3.org/2000/svg" width="20" height="20" viewBox="0 0 20 20" fill="none">
  <path fill-rule="evenodd" clip-rule="evenodd" d="M15.8337 0.833984C16.2939 0.833984 16.667 1.20708 16.667 1.66732V3.33398H18.3337C18.7939 3.33398 19.167 3.70708 19.167 4.16732C19.167 4.62755 18.7939 5.00065 18.3337 5.00065H16.667V6.66732C16.667 7.12755 16.2939 7.50065 15.8337 7.50065C15.3734 7.50065 15.0003 7.12755 15.0003 6.66732V5.00065H13.3337C12.8734 5.00065 12.5003 4.62755 12.5003 4.16732C12.5003 3.70708 12.8734 3.33398 13.3337 3.33398H15.0003V1.66732C15.0003 1.20708 15.3734 0.833984 15.8337 0.833984ZM6.46591 1.66732H10.417C10.8772 1.66732 11.2503 2.04041 11.2503 2.50065C11.2503 2.96089 10.8772 3.33398 10.417 3.33398H6.50033C5.78651 3.33398 5.30127 3.33463 4.92619 3.36528C4.56084 3.39513 4.37401 3.44923 4.24368 3.51564C3.93007 3.67543 3.6751 3.9304 3.51532 4.244C3.44891 4.37433 3.3948 4.56117 3.36495 4.92652C3.33431 5.30159 3.33366 5.78683 3.33366 6.50065V13.5007C3.33366 14.2145 3.33431 14.6997 3.36495 15.0748C3.3948 15.4401 3.44891 15.627 3.51532 15.7573C3.66466 16.0504 3.89716 16.2923 4.18297 16.4531C4.25497 16.3403 4.332 16.255 4.38271 16.2001C4.50913 16.0633 4.6811 15.907 4.859 15.7453L11.9491 9.29983C12.0832 9.17787 12.2158 9.05725 12.3372 8.96262C12.4722 8.85741 12.6396 8.74642 12.8533 8.67698C13.1539 8.57937 13.476 8.5692 13.7821 8.64768C13.9999 8.70351 14.1738 8.80373 14.3152 8.90022C14.4423 8.98701 14.5823 9.09902 14.7239 9.21228L17.0735 11.092C17.0916 11.1065 17.1096 11.1209 17.1275 11.1351C17.3893 11.3442 17.6198 11.5283 17.8002 11.7581C18.0249 12.0443 18.1843 12.3761 18.2675 12.7303C18.3343 13.0148 18.334 13.3097 18.3337 13.6449C18.3337 13.6677 18.3337 13.6907 18.3337 13.714V13.7434C18.3337 13.882 18.3337 14.0148 18.3333 14.142C18.3335 14.1504 18.3337 14.1588 18.3337 14.1673C18.3337 14.2061 18.3337 14.2443 18.3337 14.282C18.3341 14.9448 18.3343 15.437 18.2201 15.8634C18.0852 16.3666 17.8374 16.8217 17.5049 17.2002C17.3858 17.3358 17.2559 17.4616 17.1164 17.5762C16.7552 17.8731 16.3298 18.0953 15.8631 18.2204C15.4367 18.3347 14.9445 18.3344 14.2816 18.334C14.244 18.334 14.2058 18.334 14.167 18.334H13.7937C13.7769 18.334 13.76 18.334 13.7431 18.334H6.46589C6.44579 18.334 6.42579 18.334 6.4059 18.334L5.85982 18.334C5.64664 18.334 5.43975 18.334 5.26624 18.3228C5.09634 18.3173 4.93792 18.3092 4.79047 18.2972C4.32206 18.2589 3.89147 18.1767 3.48702 17.9707C2.85982 17.6511 2.34988 17.1412 2.0303 16.514C1.82423 16.1095 1.74209 15.6789 1.70382 15.2105C1.66697 14.7595 1.66698 14.2059 1.66699 13.5351V6.46623C1.66698 5.79543 1.66697 5.24179 1.70382 4.7908C1.74209 4.32238 1.82423 3.8918 2.0303 3.48735C2.34988 2.86014 2.85982 2.35021 3.48702 2.03063C3.89147 1.82455 4.32206 1.74242 4.79047 1.70415C5.24147 1.6673 5.7951 1.66731 6.46591 1.66732ZM16.3254 16.0117C16.4082 15.903 16.4781 15.7838 16.5327 15.6562C16.5815 15.542 16.6217 15.3786 16.6439 15.0637C16.6665 14.7409 16.667 14.3254 16.667 13.714C16.667 13.2709 16.6618 13.1832 16.6449 13.1112C16.6172 12.9932 16.5641 12.8826 16.4892 12.7872C16.4436 12.7291 16.3783 12.6702 16.0323 12.3934L13.7013 10.5286C13.5338 10.3946 13.4439 10.3234 13.3755 10.2767C13.3731 10.2751 13.3707 10.2735 13.3685 10.272C13.3664 10.2736 13.3642 10.2753 13.3618 10.2772C13.2965 10.3281 13.2113 10.4048 13.0526 10.5491L6.32254 16.6673C6.38018 16.6673 6.43942 16.6673 6.50033 16.6673H13.7136C14.325 16.6673 14.7406 16.6668 15.0634 16.6442C15.3783 16.6221 15.5417 16.5818 15.6558 16.533C15.7856 16.4775 15.9066 16.4062 16.0167 16.3216C16.1327 16.2323 16.2365 16.1281 16.3254 16.0117ZM7.08366 6.25065C6.62342 6.25065 6.25033 6.62375 6.25033 7.08398C6.25033 7.54422 6.62342 7.91732 7.08366 7.91732C7.5439 7.91732 7.91699 7.54422 7.91699 7.08398C7.91699 6.62375 7.5439 6.25065 7.08366 6.25065ZM4.58366 7.08398C4.58366 5.70327 5.70295 4.58398 7.08366 4.58398C8.46437 4.58398 9.58366 5.70327 9.58366 7.08398C9.58366 8.4647 8.46437 9.58398 7.08366 9.58398C5.70295 9.58398 4.58366 8.4647 4.58366 7.08398Z" fill="#878787"/>
</svg>