<svg width="20" height="20" viewBox="0 0 20 20" fill="none" xmlns="http://www.w3.org/2000/svg">
<path d="M9.9672 19.1487C9.45054 19.1487 8.95054 18.9987 8.50887 18.7154C8.07554 18.432 7.73387 18.032 7.5172 17.557L7.03387 16.4654C6.93387 16.232 6.75887 16.0404 6.5422 15.9154C6.32554 15.7904 6.0672 15.732 5.8172 15.7654L4.62554 15.8904C4.10887 15.9487 3.5922 15.8487 3.12554 15.6154C2.65887 15.382 2.28387 15.0154 2.0172 14.5654C1.7672 14.1154 1.6422 13.607 1.6672 13.0904C1.6922 12.5737 1.8672 12.0737 2.17554 11.657L2.88387 10.6904C3.03387 10.482 3.10887 10.2404 3.10887 9.99036C3.10887 9.74036 3.03387 9.49036 2.88387 9.29036L2.17554 8.3237C1.87554 7.89036 1.70054 7.3987 1.6672 6.88203C1.6422 6.36536 1.7672 5.85703 2.02554 5.40703C2.28387 4.95703 2.6672 4.5987 3.12554 4.35703C3.5922 4.1237 4.10887 4.0237 4.62554 4.08203L5.8172 4.20703C6.0672 4.23203 6.3172 4.18203 6.5422 4.05703C6.75887 3.93203 6.92554 3.74036 7.02554 3.51536L7.50887 2.41536C7.7172 1.94036 8.05887 1.54036 8.50054 1.25703C9.3672 0.690365 10.5505 0.690365 11.4172 1.25703C11.8505 1.54036 12.1922 1.94036 12.4089 2.41536L12.9005 3.50703C13.0005 3.74036 13.1755 3.93203 13.3922 4.05703C13.6089 4.18203 13.8589 4.23203 14.1089 4.20703L15.3005 4.08203C15.8172 4.0237 16.3339 4.1237 16.8005 4.35703C17.2672 4.59036 17.6422 4.95703 17.9089 5.40703C18.1672 5.85703 18.2922 6.3737 18.2589 6.89036C18.2339 7.40703 18.0589 7.8987 17.7505 8.3237L17.0422 9.29036C16.8922 9.49036 16.8172 9.74036 16.8172 9.99036C16.8172 10.2487 16.8922 10.4904 17.0422 10.6987L17.7422 11.6654C18.0505 12.082 18.2255 12.582 18.2505 13.0987C18.2755 13.6154 18.1505 14.1237 17.8922 14.5737C17.6339 15.0237 17.2505 15.382 16.7839 15.6237C16.3172 15.8654 15.8005 15.957 15.2922 15.8987L14.1005 15.7737C13.8422 15.7487 13.6005 15.7987 13.3839 15.9237C13.1672 16.0487 13.0005 16.2404 12.8922 16.4654L12.4089 17.557C12.2005 18.032 11.8589 18.432 11.4172 18.7154C10.9755 18.9987 10.4755 19.1487 9.95887 19.1487H9.9672ZM9.9672 17.482C10.1672 17.482 10.3505 17.4237 10.5172 17.3154C10.6839 17.207 10.8089 17.057 10.8922 16.882L11.3755 15.7904C11.6255 15.2404 12.0255 14.782 12.5505 14.482C13.0755 14.1737 13.6839 14.0487 14.2839 14.1154L15.4755 14.2404C15.6672 14.257 15.8672 14.2237 16.0422 14.132C16.2172 14.0404 16.3589 13.907 16.4589 13.7404C16.5589 13.5737 16.6005 13.3737 16.5922 13.182C16.5839 12.9904 16.5172 12.7987 16.4005 12.6404L15.6922 11.6737C15.3339 11.1737 15.1505 10.5904 15.1505 9.98203C15.1505 9.3737 15.3422 8.7987 15.7005 8.30703L16.4089 7.34036C16.5255 7.18203 16.5922 6.9987 16.6005 6.7987C16.6089 6.5987 16.5672 6.40703 16.4672 6.24036C16.3672 6.0737 16.2255 5.93203 16.0505 5.84036C15.8755 5.7487 15.6839 5.71536 15.4839 5.74036L14.2922 5.86537C13.6922 5.93203 13.0922 5.7987 12.5589 5.4987C12.0339 5.19036 11.6255 4.74036 11.3755 4.18203L10.8839 3.09036C10.8005 2.90703 10.6755 2.75703 10.5089 2.6487C10.1839 2.44036 9.73387 2.43203 9.40887 2.6487C9.2422 2.75703 9.1172 2.90703 9.03387 3.08203L8.55054 4.1737C8.30887 4.7237 7.90054 5.18203 7.37554 5.48203C6.85054 5.79036 6.25054 5.91536 5.6422 5.8487L4.45054 5.7237C4.25054 5.6987 4.05887 5.74036 3.88387 5.8237C3.70887 5.91536 3.5672 6.0487 3.4672 6.21536C3.3672 6.38203 3.32554 6.58203 3.33387 6.7737C3.3422 6.96536 3.40887 7.15703 3.52554 7.31536L4.23387 8.28203C4.5922 8.7737 4.78387 9.35703 4.78387 9.96536C4.78387 10.5737 4.5922 11.157 4.2422 11.6487L3.53387 12.6154C3.4172 12.7737 3.35054 12.9654 3.3422 13.157C3.33387 13.3487 3.37554 13.5487 3.47554 13.7154C3.57554 13.882 3.7172 14.0237 3.8922 14.1154C4.0672 14.207 4.2672 14.2404 4.45887 14.2154L5.65054 14.0904C6.25054 14.0237 6.85054 14.1487 7.38387 14.457C7.90887 14.757 8.3172 15.2154 8.5672 15.7737L9.05054 16.8654C9.13387 17.0487 9.25887 17.1987 9.42554 17.2987C9.5922 17.407 9.7672 17.4904 9.97554 17.4654L9.9672 17.482Z" fill="black"/>
<path d="M9.9672 13.3154C8.12554 13.3154 6.63387 11.8237 6.63387 9.98203C6.63387 8.14036 8.12554 6.6487 9.9672 6.6487C11.8089 6.6487 13.3005 8.14036 13.3005 9.98203C13.3005 11.8237 11.8089 13.3154 9.9672 13.3154ZM9.9672 8.31536C9.05054 8.31536 8.30054 9.06536 8.30054 9.98203C8.30054 10.8987 9.05054 11.6487 9.9672 11.6487C10.8839 11.6487 11.6339 10.8987 11.6339 9.98203C11.6339 9.06536 10.8839 8.31536 9.9672 8.31536Z" fill="black"/>
</svg>
