<svg xmlns="http://www.w3.org/2000/svg" width="20" height="20" viewBox="0 0 20 20" fill="none">
  <path fill-rule="evenodd" clip-rule="evenodd" d="M14.9758 3.48585C14.1622 2.67225 12.8431 2.67225 12.0295 3.48585L4.5165 10.9989C3.13339 12.382 3.13339 14.6244 4.5165 16.0075C5.8996 17.3906 8.14206 17.3906 9.52517 16.0075L17.0382 8.49452C17.3636 8.16908 17.8913 8.16908 18.2167 8.49452C18.5421 8.81995 18.5421 9.34759 18.2167 9.67303L10.7037 17.186C8.6697 19.22 5.37197 19.22 3.33799 17.186C1.304 15.1521 1.30401 11.8543 3.33799 9.82034L10.851 2.30733C12.3155 0.842868 14.6898 0.842868 16.1543 2.30733C17.6188 3.7718 17.6188 6.14617 16.1543 7.61063L8.93591 14.829C8.04096 15.724 6.58996 15.724 5.69501 14.829C4.80006 13.9341 4.80006 12.4831 5.69501 11.5881L12.0295 5.25361C12.3549 4.92818 12.8826 4.92818 13.208 5.25361C13.5335 5.57905 13.5335 6.10669 13.208 6.43212L6.87352 12.7666C6.62944 13.0107 6.62944 13.4064 6.87352 13.6505C7.1176 13.8946 7.51333 13.8946 7.7574 13.6505L14.9758 6.43212C15.7894 5.61853 15.7894 4.29944 14.9758 3.48585Z" fill="#878787"/>
</svg>