<svg width="20" height="20" viewBox="0 0 20 20" fill="none" xmlns="http://www.w3.org/2000/svg">
<path fill-rule="evenodd" clip-rule="evenodd" d="M9.76186 0.907758C9.91995 0.884914 10.0805 0.884914 10.2386 0.907758C10.4208 0.934085 10.5903 0.998131 10.7249 1.04899C10.7372 1.05364 10.7493 1.05818 10.761 1.06258L15.2292 2.73814C15.2657 2.75186 15.302 2.76541 15.338 2.77885C15.8528 2.97106 16.305 3.13985 16.6531 3.4467C16.9577 3.71514 17.1924 4.05372 17.3368 4.43317C17.5018 4.86693 17.5011 5.34953 17.5003 5.89906C17.5003 5.93748 17.5002 5.97622 17.5002 6.01529V10.0006C17.5002 12.3561 16.2191 14.32 14.8343 15.7626C13.4403 17.215 11.8452 18.2408 11.0018 18.7328C10.9907 18.7393 10.9793 18.746 10.9677 18.7528C10.8137 18.8432 10.614 18.9605 10.3497 19.0172C10.1335 19.0636 9.86697 19.0636 9.65075 19.0172C9.38647 18.9605 9.18669 18.8432 9.03278 18.7528C9.02114 18.746 9.00976 18.7393 8.99864 18.7328C8.15522 18.2408 6.56019 17.215 5.1661 15.7626C3.7813 14.32 2.50022 12.3561 2.50022 10.0006V6.01529C2.50022 5.97622 2.50016 5.93748 2.50011 5.89907C2.49931 5.34953 2.49861 4.86693 2.66367 4.43317C2.80806 4.05372 3.0427 3.71514 3.34729 3.4467C3.69548 3.13985 4.1476 2.97106 4.66242 2.77885C4.69841 2.76541 4.7347 2.75186 4.77129 2.73814L9.23945 1.06258C9.25117 1.05818 9.2632 1.05364 9.27552 1.04899C9.41013 0.998131 9.57967 0.934085 9.76186 0.907758ZM9.99771 2.56002C9.96367 2.57118 9.9175 2.58831 9.82466 2.62313L5.35649 4.29869C4.66879 4.55658 4.53645 4.62024 4.44924 4.6971C4.34771 4.78657 4.2695 4.89943 4.22137 5.02592C4.18003 5.13455 4.16689 5.28083 4.16689 6.01529V10.0006C4.16689 11.7355 5.11663 13.3043 6.36848 14.6085C7.61106 15.903 9.05853 16.8382 9.83849 17.2932C9.88616 17.321 9.92055 17.3411 9.95044 17.3579C9.97391 17.3711 9.98952 17.3794 10.0002 17.3849C10.0109 17.3794 10.0265 17.3711 10.05 17.3579C10.0799 17.3411 10.1143 17.321 10.162 17.2932C10.9419 16.8382 12.3894 15.903 13.632 14.6085C14.8838 13.3043 15.8336 11.7355 15.8336 10.0006V6.01529C15.8336 5.28083 15.8204 5.13455 15.7791 5.02592C15.7309 4.89943 15.6527 4.78657 15.5512 4.6971C15.464 4.62024 15.3316 4.55658 14.6439 4.29869L10.1758 2.62313C10.0829 2.58831 10.0368 2.57118 10.0027 2.56002C10.0019 2.55973 10.001 2.55946 10.0002 2.5592C9.99942 2.55946 9.99858 2.55973 9.99771 2.56002ZM13.5061 6.91137C13.8316 7.23681 13.8316 7.76444 13.5061 8.08988L9.75614 11.8399C9.43071 12.1653 8.90307 12.1653 8.57763 11.8399L6.91097 10.1732C6.58553 9.84778 6.58553 9.32014 6.91097 8.9947C7.2364 8.66926 7.76404 8.66926 8.08948 8.9947L9.16689 10.0721L12.3276 6.91137C12.6531 6.58593 13.1807 6.58593 13.5061 6.91137Z" fill="#141414"/>
</svg>
