<svg width="16" height="16" viewBox="0 0 16 16" fill="none" xmlns="http://www.w3.org/2000/svg">
<g clip-path="url(#clip0_4676_5482)">
<rect width="16" height="16" rx="8" fill="white"/>
<path fill-rule="evenodd" clip-rule="evenodd" d="M15.3337 7.99935C15.3337 12.0494 12.0504 15.3327 8.00033 15.3327C3.95024 15.3327 0.666992 12.0494 0.666992 7.99935C0.666992 3.94926 3.95024 0.666016 8.00033 0.666016C12.0504 0.666016 15.3337 3.94926 15.3337 7.99935ZM8.66699 4.99935C8.66699 4.63116 8.36852 4.33268 8.00033 4.33268C7.63214 4.33268 7.33366 4.63116 7.33366 4.99935V9.00081C7.33366 9.369 7.63214 9.66747 8.00033 9.66747C8.36852 9.66747 8.66699 9.369 8.66699 9.00081V4.99935ZM8.00033 10.6675C7.63214 10.6675 7.33366 10.966 7.33366 11.3341C7.33366 11.7023 7.63214 12.0008 8.00033 12.0008H8.00699C8.37518 12.0008 8.67366 11.7023 8.67366 11.3341C8.67366 10.966 8.37518 10.6675 8.00699 10.6675H8.00033Z" fill="#FF3838"/>
</g>
<defs>
<clipPath id="clip0_4676_5482">
<rect width="16" height="16" rx="8" fill="white"/>
</clipPath>
</defs>
</svg>
