<svg width="16" height="16" viewBox="0 0 16 16" fill="none" xmlns="http://www.w3.org/2000/svg">
<g clip-path="url(#clip0_6050_42152)">
<path fill-rule="evenodd" clip-rule="evenodd" d="M7.99984 1.99935C4.68613 1.99935 1.99984 4.68564 1.99984 7.99935C1.99984 11.3131 4.68613 13.9993 7.99984 13.9993C11.3135 13.9993 13.9998 11.3131 13.9998 7.99935C13.9998 4.68564 11.3135 1.99935 7.99984 1.99935ZM0.666504 7.99935C0.666504 3.94926 3.94975 0.666016 7.99984 0.666016C12.0499 0.666016 15.3332 3.94926 15.3332 7.99935C15.3332 12.0494 12.0499 15.3327 7.99984 15.3327C3.94975 15.3327 0.666504 12.0494 0.666504 7.99935ZM6.33317 5.33268C6.70136 5.33268 6.99984 5.63116 6.99984 5.99935V9.99935C6.99984 10.3675 6.70136 10.666 6.33317 10.666C5.96498 10.666 5.6665 10.3675 5.6665 9.99935V5.99935C5.6665 5.63116 5.96498 5.33268 6.33317 5.33268ZM9.6665 5.33268C10.0347 5.33268 10.3332 5.63116 10.3332 5.99935V9.99935C10.3332 10.3675 10.0347 10.666 9.6665 10.666C9.29831 10.666 8.99984 10.3675 8.99984 9.99935V5.99935C8.99984 5.63116 9.29831 5.33268 9.6665 5.33268Z" fill="white"/>
</g>
<defs>
<clipPath id="clip0_6050_42152">
<rect width="16" height="16" fill="white"/>
</clipPath>
</defs>
</svg>
