<svg width="28" height="28" viewBox="0 0 28 28" fill="none" xmlns="http://www.w3.org/2000/svg">
<path fill-rule="evenodd" clip-rule="evenodd" d="M8.22515 3.55798C9.7567 2.02643 11.8339 1.16602 13.9999 1.16602C16.1658 1.16602 18.243 2.02643 19.7746 3.55798C21.3061 5.08952 22.1665 7.16675 22.1665 9.33268C22.1665 12.7308 23.0205 14.9839 23.9158 16.4226L23.9295 16.4447C24.3464 17.1147 24.676 17.6443 24.8982 18.0298C25.0095 18.2229 25.1109 18.409 25.186 18.5744C25.2235 18.6569 25.2654 18.7581 25.2982 18.8682C25.3254 18.9594 25.3772 19.1545 25.3578 19.392C25.3447 19.5516 25.3122 19.8243 25.1557 20.106C24.9991 20.3878 24.7848 20.5595 24.6562 20.6549C24.3642 20.8715 24.0289 20.921 23.9169 20.9375L23.9118 20.9383C23.7398 20.9638 23.5446 20.9764 23.3477 20.9841C22.9566 20.9994 22.4151 20.9994 21.7417 20.9993H6.25803C5.5846 20.9994 5.0431 20.9994 4.65197 20.9841C4.45509 20.9764 4.25993 20.9638 4.08796 20.9383L4.08278 20.9375C3.97086 20.921 3.63553 20.8715 3.34353 20.6549C3.21492 20.5595 3.00057 20.3878 2.84406 20.106C2.68755 19.8243 2.65501 19.5516 2.64195 19.392C2.62253 19.1545 2.67433 18.9594 2.70152 18.8682C2.73429 18.7581 2.77623 18.6569 2.81371 18.5744C2.8888 18.409 2.99022 18.2229 3.10155 18.0298C3.3237 17.6443 3.65325 17.1147 4.0701 16.4448L4.08391 16.4226C4.97918 14.9839 5.83319 12.7308 5.83319 9.33268C5.83319 7.16675 6.6936 5.08952 8.22515 3.55798ZM13.9999 3.49935C12.4528 3.49935 10.969 4.11393 9.87507 5.20789C8.78111 6.30186 8.16652 7.78559 8.16652 9.33268C8.16652 13.145 7.20163 15.8287 6.06502 17.6554C5.8167 18.0544 5.60945 18.3876 5.44012 18.6646C5.68112 18.666 5.9615 18.666 6.28685 18.666H21.7129C22.0382 18.666 22.3186 18.666 22.5596 18.6646C22.3903 18.3876 22.183 18.0544 21.9347 17.6554C20.7981 15.8287 19.8332 13.145 19.8332 9.33268C19.8332 7.78559 19.2186 6.30186 18.1246 5.20789C17.0307 4.11393 15.547 3.49935 13.9999 3.49935ZM10.0384 23.7273C10.4647 23.2442 11.202 23.1983 11.6851 23.6247C12.3028 24.1698 13.1114 24.4994 13.9999 24.4994C14.8883 24.4994 15.6969 24.1698 16.3146 23.6247C16.7977 23.1983 17.535 23.2442 17.9613 23.7273C18.3877 24.2104 18.3418 24.9477 17.8587 25.374C16.8311 26.281 15.4785 26.8327 13.9999 26.8327C12.5213 26.8327 11.1687 26.281 10.141 25.374C9.65796 24.9477 9.61199 24.2104 10.0384 23.7273Z" fill="#0098FF"/>
</svg>
