<svg width="20" height="20" viewBox="0 0 20 20" fill="none" xmlns="http://www.w3.org/2000/svg">
<path fill-rule="evenodd" clip-rule="evenodd" d="M5 6.66797C5 3.90654 7.23858 1.66797 10 1.66797C12.7614 1.66797 15 3.90655 15 6.66797V7.62657C15.2355 7.67818 15.4616 7.75332 15.68 7.86461C16.3072 8.18419 16.8171 8.69413 17.1367 9.32133C17.3428 9.72578 17.4249 10.1564 17.4632 10.6248C17.5 11.0758 17.5 11.6294 17.5 12.3002V13.5357C17.5 14.2065 17.5 14.7602 17.4632 15.2112C17.4249 15.6796 17.3428 16.1102 17.1367 16.5146C16.8171 17.1418 16.3072 17.6517 15.68 17.9713C15.2755 18.1774 14.8449 18.2595 14.3765 18.2978C13.9255 18.3347 13.3719 18.3346 12.7011 18.3346H7.2989C6.6281 18.3346 6.07447 18.3347 5.62348 18.2978C5.15506 18.2595 4.72448 18.1774 4.32003 17.9713C3.69283 17.6517 3.18289 17.1418 2.86331 16.5146C2.65724 16.1102 2.5751 15.6796 2.53683 15.2112C2.49998 14.7602 2.49999 14.2065 2.5 13.5357V12.3002C2.49999 11.6294 2.49998 11.0758 2.53683 10.6248C2.5751 10.1564 2.65724 9.72578 2.86331 9.32133C3.18289 8.69413 3.69283 8.18419 4.32003 7.86461C4.53845 7.75332 4.76449 7.67818 5 7.62657V6.66797ZM6.66667 7.50266C6.86476 7.5013 7.07533 7.5013 7.29892 7.5013H12.7011C12.9247 7.5013 13.1352 7.5013 13.3333 7.50266V6.66797C13.3333 4.82702 11.841 3.33464 10 3.33464C8.15905 3.33464 6.66667 4.82702 6.66667 6.66797V7.50266ZM5.7592 9.19926C5.39385 9.22911 5.20702 9.28322 5.07668 9.34963C4.76308 9.50941 4.50811 9.76438 4.34832 10.078C4.28192 10.2083 4.22781 10.3952 4.19796 10.7605C4.16732 11.1356 4.16667 11.6208 4.16667 12.3346V13.5013C4.16667 14.2151 4.16732 14.7004 4.19796 15.0754C4.22781 15.4408 4.28192 15.6276 4.34832 15.758C4.50811 16.0716 4.76308 16.3265 5.07668 16.4863C5.20702 16.5527 5.39385 16.6068 5.7592 16.6367C6.13427 16.6673 6.61952 16.668 7.33333 16.668H12.6667C13.3805 16.668 13.8657 16.6673 14.2408 16.6367C14.6061 16.6068 14.793 16.5527 14.9233 16.4863C15.2369 16.3265 15.4919 16.0716 15.6517 15.758C15.7181 15.6276 15.7722 15.4408 15.802 15.0754C15.8327 14.7004 15.8333 14.2151 15.8333 13.5013V12.3346C15.8333 11.6208 15.8327 11.1356 15.802 10.7605C15.7722 10.3952 15.7181 10.2083 15.6517 10.078C15.4919 9.76438 15.2369 9.50941 14.9233 9.34963C14.793 9.28322 14.6061 9.22911 14.2408 9.19926C13.8657 9.16862 13.3805 9.16797 12.6667 9.16797H7.33333C6.61952 9.16797 6.13427 9.16862 5.7592 9.19926ZM10 11.2513C10.4602 11.2513 10.8333 11.6244 10.8333 12.0846V13.7513C10.8333 14.2115 10.4602 14.5846 10 14.5846C9.53976 14.5846 9.16667 14.2115 9.16667 13.7513V12.0846C9.16667 11.6244 9.53976 11.2513 10 11.2513Z" fill="#141414"/>
</svg>
