<svg width="20" height="20" viewBox="0 0 20 20" fill="none" xmlns="http://www.w3.org/2000/svg">
<path fill-rule="evenodd" clip-rule="evenodd" d="M9.41074 4.41009C9.73618 4.08466 10.2638 4.08466 10.5893 4.41009L14.7559 8.57676C15.0814 8.9022 15.0814 9.42983 14.7559 9.75527C14.4305 10.0807 13.9028 10.0807 13.5774 9.75527L10 6.17786L6.42259 9.75527C6.09715 10.0807 5.56951 10.0807 5.24408 9.75527C4.91864 9.42983 4.91864 8.9022 5.24408 8.57676L9.41074 4.41009ZM5.24408 14.4101L9.41074 10.2434C9.73618 9.91799 10.2638 9.91799 10.5893 10.2434L14.7559 14.4101C15.0814 14.7355 15.0814 15.2632 14.7559 15.5886C14.4305 15.914 13.9028 15.914 13.5774 15.5886L10 12.0112L6.42259 15.5886C6.09715 15.914 5.56951 15.914 5.24408 15.5886C4.91864 15.2632 4.91864 14.7355 5.24408 14.4101Z" fill="#FF3838" style="fill:#FF3838;fill:color(display-p3 1.0000 0.2196 0.2196);fill-opacity:1;"/>
</svg>
