<svg width="60" height="24" viewBox="0 0 60 24" fill="none" xmlns="http://www.w3.org/2000/svg">
<g clip-path="url(#clip0_1510_60767)">
<path d="M12 22C17.5228 22 22 17.5228 22 12C22 6.47715 17.5228 2 12 2C6.47715 2 2 6.47715 2 12C2 17.5228 6.47715 22 12 22Z" stroke="#8CCB46" stroke-width="1.5" stroke-linecap="round" stroke-linejoin="round"/>
<path d="M9.5 8.96533C9.5 8.48805 9.5 8.24941 9.59974 8.11618C9.68666 8.00007 9.81971 7.92744 9.96438 7.9171C10.1304 7.90525 10.3311 8.03429 10.7326 8.29239L15.4532 11.3271C15.8016 11.551 15.9758 11.663 16.0359 11.8054C16.0885 11.9298 16.0885 12.0702 16.0359 12.1946C15.9758 12.337 15.8016 12.449 15.4532 12.6729L10.7326 15.7076C10.3311 15.9657 10.1304 16.0948 9.96438 16.0829C9.81971 16.0726 9.68666 15.9999 9.59974 15.8838C9.5 15.7506 9.5 15.512 9.5 15.0347V8.96533Z" stroke="#8CCB46" stroke-width="1.5" stroke-linecap="round" stroke-linejoin="round"/>
</g>
<path d="M33.4629 9.66895C33.4629 9.52246 33.4401 9.39225 33.3945 9.27832C33.3522 9.16439 33.2757 9.06022 33.165 8.96582C33.0544 8.87142 32.8981 8.78027 32.6963 8.69238C32.4977 8.60124 32.2438 8.50846 31.9346 8.41406C31.596 8.3099 31.2835 8.19434 30.9971 8.06738C30.7139 7.93717 30.4665 7.78743 30.2549 7.61816C30.0433 7.44564 29.8789 7.2487 29.7617 7.02734C29.6445 6.80273 29.5859 6.54395 29.5859 6.25098C29.5859 5.96126 29.6462 5.69759 29.7666 5.45996C29.8903 5.22233 30.0645 5.01725 30.2891 4.84473C30.5169 4.66895 30.7855 4.53385 31.0947 4.43945C31.404 4.3418 31.7458 4.29297 32.1201 4.29297C32.6475 4.29297 33.1016 4.39062 33.4824 4.58594C33.8665 4.78125 34.1611 5.04329 34.3662 5.37207C34.5745 5.70085 34.6787 6.0638 34.6787 6.46094H33.4629C33.4629 6.22656 33.4124 6.01986 33.3115 5.84082C33.2139 5.65853 33.0641 5.5153 32.8623 5.41113C32.6637 5.30697 32.4115 5.25488 32.1055 5.25488C31.8158 5.25488 31.5749 5.29883 31.3828 5.38672C31.1908 5.47461 31.0475 5.59342 30.9531 5.74316C30.8587 5.8929 30.8115 6.06217 30.8115 6.25098C30.8115 6.38444 30.8424 6.50651 30.9043 6.61719C30.9661 6.72461 31.0605 6.82552 31.1875 6.91992C31.3145 7.01107 31.474 7.09733 31.666 7.17871C31.8581 7.26009 32.0843 7.33822 32.3447 7.41309C32.7386 7.53027 33.082 7.66048 33.375 7.80371C33.668 7.94368 33.9121 8.10319 34.1074 8.28223C34.3027 8.46126 34.4492 8.66471 34.5469 8.89258C34.6445 9.11719 34.6934 9.37272 34.6934 9.65918C34.6934 9.95866 34.6331 10.2288 34.5127 10.4697C34.3923 10.7074 34.2197 10.9108 33.9951 11.0801C33.7738 11.2461 33.5068 11.3747 33.1943 11.4658C32.8851 11.5537 32.54 11.5977 32.1592 11.5977C31.8174 11.5977 31.4805 11.5521 31.1484 11.4609C30.8197 11.3698 30.5202 11.2314 30.25 11.0459C29.9798 10.8571 29.765 10.6227 29.6055 10.3428C29.446 10.0596 29.3662 9.72917 29.3662 9.35156H30.5918C30.5918 9.58268 30.6309 9.77962 30.709 9.94238C30.7904 10.1051 30.9027 10.2386 31.0459 10.3428C31.1891 10.4437 31.3551 10.5186 31.5439 10.5674C31.736 10.6162 31.9411 10.6406 32.1592 10.6406C32.4456 10.6406 32.6849 10.5999 32.877 10.5186C33.0723 10.4372 33.2188 10.3232 33.3164 10.1768C33.4141 10.0303 33.4629 9.861 33.4629 9.66895ZM38.7021 4.39062V11.5H37.4863V4.39062H38.7021ZM40.9336 4.39062V5.36719H35.2744V4.39062H40.9336ZM44.1709 5.33789L42.0469 11.5H40.7627L43.4385 4.39062H44.2588L44.1709 5.33789ZM45.9482 11.5L43.8193 5.33789L43.7266 4.39062H44.5518L47.2373 11.5H45.9482ZM45.8457 8.86328V9.83496H41.9785V8.86328H45.8457ZM48.0332 4.39062H50.5479C51.0882 4.39062 51.5488 4.47201 51.9297 4.63477C52.3105 4.79753 52.6019 5.03841 52.8037 5.35742C53.0088 5.67318 53.1113 6.0638 53.1113 6.5293C53.1113 6.88411 53.0462 7.19661 52.916 7.4668C52.7858 7.73698 52.6019 7.96484 52.3643 8.15039C52.1266 8.33268 51.8434 8.47428 51.5146 8.5752L51.1436 8.75586H48.8828L48.873 7.78418H50.5674C50.8604 7.78418 51.1045 7.7321 51.2998 7.62793C51.4951 7.52376 51.6416 7.38216 51.7393 7.20312C51.8402 7.02083 51.8906 6.81576 51.8906 6.58789C51.8906 6.34049 51.8418 6.12565 51.7441 5.94336C51.6497 5.75781 51.5033 5.61621 51.3047 5.51855C51.1061 5.41764 50.8538 5.36719 50.5479 5.36719H49.2588V11.5H48.0332V4.39062ZM52.0908 11.5L50.4209 8.30664L51.7051 8.30176L53.3994 11.4365V11.5H52.0908ZM56.9248 4.39062V11.5H55.709V4.39062H56.9248ZM59.1562 4.39062V5.36719H53.4971V4.39062H59.1562Z" fill="#8CCB46"/>
<rect x="28" y="13.5" width="32" height="8" rx="4" fill="#8CCB46"/>
<path d="M38.1152 16.4639L36.9551 20H36.0205L37.6055 15.7344H38.2002L38.1152 16.4639ZM39.0791 20L37.916 16.4639L37.8223 15.7344H38.4229L40.0166 20H39.0791ZM39.0264 18.4121V19.1006H36.7734V18.4121H39.0264ZM42.7148 15.7344H43.5908V18.5527C43.5908 18.8809 43.5205 19.1572 43.3799 19.3818C43.2412 19.6064 43.0488 19.7754 42.8027 19.8887C42.5586 20.002 42.2773 20.0586 41.959 20.0586C41.6406 20.0586 41.3574 20.002 41.1094 19.8887C40.8633 19.7754 40.6699 19.6064 40.5293 19.3818C40.3906 19.1572 40.3213 18.8809 40.3213 18.5527V15.7344H41.2002V18.5527C41.2002 18.7441 41.2305 18.9004 41.291 19.0215C41.3516 19.1426 41.4385 19.2314 41.5518 19.2881C41.667 19.3447 41.8027 19.373 41.959 19.373C42.1191 19.373 42.2549 19.3447 42.3662 19.2881C42.4795 19.2314 42.5654 19.1426 42.624 19.0215C42.6846 18.9004 42.7148 18.7441 42.7148 18.5527V15.7344ZM46.2217 15.7344V20H45.3457V15.7344H46.2217ZM47.5342 15.7344V16.4229H44.0537V15.7344H47.5342ZM51.457 17.7676V17.9697C51.457 18.2939 51.4131 18.585 51.3252 18.8428C51.2373 19.1006 51.1133 19.3203 50.9531 19.502C50.793 19.6816 50.6016 19.8193 50.3789 19.915C50.1582 20.0107 49.9131 20.0586 49.6436 20.0586C49.376 20.0586 49.1309 20.0107 48.9082 19.915C48.6875 19.8193 48.4961 19.6816 48.334 19.502C48.1719 19.3203 48.0459 19.1006 47.9561 18.8428C47.8682 18.585 47.8242 18.2939 47.8242 17.9697V17.7676C47.8242 17.4414 47.8682 17.1504 47.9561 16.8945C48.0439 16.6367 48.168 16.417 48.3281 16.2354C48.4902 16.0537 48.6816 15.915 48.9023 15.8193C49.125 15.7236 49.3701 15.6758 49.6377 15.6758C49.9072 15.6758 50.1523 15.7236 50.373 15.8193C50.5957 15.915 50.7871 16.0537 50.9473 16.2354C51.1094 16.417 51.2344 16.6367 51.3223 16.8945C51.4121 17.1504 51.457 17.4414 51.457 17.7676ZM50.5693 17.9697V17.7617C50.5693 17.5352 50.5488 17.3359 50.5078 17.1641C50.4668 16.9922 50.4062 16.8477 50.3262 16.7305C50.2461 16.6133 50.1484 16.5254 50.0332 16.4668C49.918 16.4062 49.7861 16.376 49.6377 16.376C49.4893 16.376 49.3574 16.4062 49.2422 16.4668C49.1289 16.5254 49.0322 16.6133 48.9521 16.7305C48.874 16.8477 48.8145 16.9922 48.7734 17.1641C48.7324 17.3359 48.7119 17.5352 48.7119 17.7617V17.9697C48.7119 18.1943 48.7324 18.3936 48.7734 18.5674C48.8145 18.7393 48.875 18.8848 48.9551 19.0039C49.0352 19.1211 49.1328 19.21 49.248 19.2705C49.3633 19.3311 49.4951 19.3613 49.6436 19.3613C49.792 19.3613 49.9238 19.3311 50.0391 19.2705C50.1543 19.21 50.251 19.1211 50.3291 19.0039C50.4072 18.8848 50.4668 18.7393 50.5078 18.5674C50.5488 18.3936 50.5693 18.1943 50.5693 17.9697Z" fill="white"/>
<defs>
<clipPath id="clip0_1510_60767">
<rect width="24" height="24" fill="white"/>
</clipPath>
</defs>
</svg>
