<svg width="16" height="16" viewBox="0 0 16 16" fill="none" xmlns="http://www.w3.org/2000/svg">
<g clip-path="url(#clip0_4422_8534)">
<path fill-rule="evenodd" clip-rule="evenodd" d="M8.00033 1.99935C4.68662 1.99935 2.00033 4.68564 2.00033 7.99935C2.00033 11.3131 4.68662 13.9993 8.00033 13.9993C11.314 13.9993 14.0003 11.3131 14.0003 7.99935C14.0003 4.68564 11.314 1.99935 8.00033 1.99935ZM0.666992 7.99935C0.666992 3.94926 3.95024 0.666016 8.00033 0.666016C12.0504 0.666016 15.3337 3.94926 15.3337 7.99935C15.3337 12.0494 12.0504 15.3327 8.00033 15.3327C3.95024 15.3327 0.666992 12.0494 0.666992 7.99935ZM6.33366 5.33268C6.70185 5.33268 7.00033 5.63116 7.00033 5.99935V9.99935C7.00033 10.3675 6.70185 10.666 6.33366 10.666C5.96547 10.666 5.66699 10.3675 5.66699 9.99935V5.99935C5.66699 5.63116 5.96547 5.33268 6.33366 5.33268ZM9.66699 5.33268C10.0352 5.33268 10.3337 5.63116 10.3337 5.99935V9.99935C10.3337 10.3675 10.0352 10.666 9.66699 10.666C9.2988 10.666 9.00033 10.3675 9.00033 9.99935V5.99935C9.00033 5.63116 9.2988 5.33268 9.66699 5.33268Z" fill="#878787" style="fill:#878787;fill:color(display-p3 0.5294 0.5294 0.5294);fill-opacity:1;"/>
</g>
<defs>
<clipPath id="clip0_4422_8534">
<rect width="16" height="16" fill="white" style="fill:white;fill-opacity:1;"/>
</clipPath>
</defs>
</svg>
