<svg width="16" height="16" viewBox="0 0 16 16" fill="none" xmlns="http://www.w3.org/2000/svg">
<path fill-rule="evenodd" clip-rule="evenodd" d="M7.52925 1.5312C7.7896 1.27085 8.21171 1.27085 8.47206 1.5312L11.8054 4.86453C12.0657 5.12488 12.0657 5.54699 11.8054 5.80734C11.545 6.06769 11.1229 6.06769 10.8626 5.80734L8.66732 3.61208V10.0026C8.66732 10.3708 8.36884 10.6693 8.00065 10.6693C7.63246 10.6693 7.33398 10.3708 7.33398 10.0026V3.61208L5.13872 5.80734C4.87837 6.06769 4.45626 6.06769 4.19591 5.80734C3.93556 5.54699 3.93556 5.12488 4.19591 4.86453L7.52925 1.5312ZM2.00065 9.33594C2.36884 9.33594 2.66732 9.63441 2.66732 10.0026V10.8026C2.66732 11.3737 2.66784 11.7619 2.69235 12.0619C2.71623 12.3542 2.75952 12.5037 2.81264 12.6079C2.94047 12.8588 3.14445 13.0628 3.39533 13.1906C3.4996 13.2437 3.64907 13.287 3.94134 13.3109C4.2414 13.3354 4.6296 13.3359 5.20065 13.3359H10.8007C11.3717 13.3359 11.7599 13.3354 12.06 13.3109C12.3522 13.287 12.5017 13.2437 12.606 13.1906C12.8569 13.0628 13.0608 12.8588 13.1887 12.6079C13.2418 12.5037 13.2851 12.3542 13.3089 12.0619C13.3335 11.7619 13.334 11.3737 13.334 10.8026V10.0026C13.334 9.63441 13.6325 9.33594 14.0007 9.33594C14.3688 9.33594 14.6673 9.63441 14.6673 10.0026V10.8302C14.6673 11.3668 14.6673 11.8097 14.6379 12.1705C14.6072 12.5452 14.5415 12.8897 14.3767 13.2132C14.121 13.715 13.7131 14.123 13.2113 14.3786C12.8877 14.5435 12.5433 14.6092 12.1685 14.6398C11.8077 14.6693 11.3648 14.6693 10.8282 14.6693H5.1731C4.63646 14.6693 4.19356 14.6693 3.83277 14.6398C3.45804 14.6092 3.11357 14.5435 2.79001 14.3786C2.28824 14.123 1.8803 13.715 1.62463 13.2132C1.45977 12.8897 1.39406 12.5452 1.36345 12.1705C1.33397 11.8097 1.33398 11.3668 1.33398 10.8301L1.33398 10.0026C1.33398 9.63441 1.63246 9.33594 2.00065 9.33594Z" fill="#0098FF"/>
</svg>
