<svg width="20" height="20" viewBox="0 0 20 20" fill="none" xmlns="http://www.w3.org/2000/svg">
<path fill-rule="evenodd" clip-rule="evenodd" d="M5.29825 6.86779C4.04301 7.91543 3.16459 9.14651 2.7207 9.84936C2.69125 9.896 2.67065 9.92866 2.65343 9.95701C2.64207 9.97572 2.63457 9.98867 2.62956 9.99769C2.62956 9.99802 2.62956 9.99836 2.62956 9.9987C2.62956 9.99904 2.62956 9.99937 2.62956 9.99971C2.63457 10.0087 2.64207 10.0217 2.65343 10.0404C2.67065 10.0687 2.69125 10.1014 2.7207 10.148C3.16459 10.8509 4.04301 12.082 5.29825 13.1296C6.55153 14.1756 8.13024 14.9987 9.99969 14.9987C11.8691 14.9987 13.4478 14.1756 14.7011 13.1296C15.9564 12.082 16.8348 10.8509 17.2787 10.148C17.3081 10.1014 17.3287 10.0687 17.3459 10.0404C17.3573 10.0217 17.3648 10.0087 17.3698 9.99971C17.3698 9.99937 17.3698 9.99903 17.3698 9.9987C17.3698 9.99836 17.3698 9.99802 17.3698 9.99769C17.3648 9.98867 17.3573 9.97572 17.3459 9.95702C17.3287 9.92866 17.3081 9.896 17.2787 9.84936C16.8348 9.14651 15.9564 7.91542 14.7011 6.86779C13.4478 5.82178 11.8691 4.9987 9.99969 4.9987C8.13024 4.9987 6.55153 5.82178 5.29825 6.86779ZM4.23031 5.58822C5.67081 4.38596 7.61496 3.33203 9.99969 3.33203C12.3844 3.33203 14.3286 4.38596 15.7691 5.58822C17.2076 6.78885 18.1939 8.17727 18.6878 8.9594C18.6944 8.96974 18.7011 8.98029 18.7079 8.99106C18.8059 9.14535 18.9332 9.34566 18.9975 9.62634C19.0495 9.85297 19.0495 10.1444 18.9975 10.3711C18.9332 10.6517 18.8059 10.8521 18.7079 11.0063C18.7011 11.0171 18.6944 11.0277 18.6878 11.038C18.1939 11.8201 17.2076 13.2085 15.7691 14.4092C14.3286 15.6114 12.3844 16.6654 9.99969 16.6654C7.61496 16.6654 5.67081 15.6114 4.23031 14.4092C2.79177 13.2085 1.80549 11.8201 1.31153 11.038C1.30501 11.0277 1.29831 11.0171 1.29146 11.0063C1.19345 10.8521 1.06618 10.6517 1.00185 10.3711C0.949904 10.1444 0.949904 9.85297 1.00185 9.62634C1.06618 9.34566 1.19345 9.14534 1.29146 8.99106C1.29831 8.98029 1.30501 8.96974 1.31153 8.9594C1.80549 8.17727 2.79177 6.78885 4.23031 5.58822ZM9.99969 8.33203C9.07921 8.33203 8.33302 9.07822 8.33302 9.9987C8.33302 10.9192 9.07921 11.6654 9.99969 11.6654C10.9202 11.6654 11.6664 10.9192 11.6664 9.9987C11.6664 9.07822 10.9202 8.33203 9.99969 8.33203ZM6.66635 9.9987C6.66635 8.15775 8.15874 6.66536 9.99969 6.66536C11.8406 6.66536 13.333 8.15775 13.333 9.9987C13.333 11.8396 11.8406 13.332 9.99969 13.332C8.15874 13.332 6.66635 11.8396 6.66635 9.9987Z" fill="#141414"/>
</svg>
