<svg width="66" height="66" viewBox="0 0 66 66" fill="none" xmlns="http://www.w3.org/2000/svg">
<rect x="5" y="5" width="56" height="56" rx="28" fill="#E5F5FF"/>
<svg width="56" height="56" viewBox="0 0 56 56" fill="none" xmlns="http://www.w3.org/2000/svg">
<path fill-rule="evenodd" clip-rule="evenodd" d="M15.7702 7H40.2296C42.1078 6.99997 43.658 6.99995 44.9208 7.10312C46.2324 7.21028 47.438 7.44026 48.5704 8.01727C50.3266 8.91209 51.7544 10.3399 52.6493 12.0961C53.2061 13.1889 53.4397 14.3499 53.5517 15.6084C53.6765 15.9896 53.6983 16.3918 53.6242 16.7757C53.6666 17.826 53.6666 19.0408 53.6665 20.4369V35.5631C53.6666 37.4413 53.6666 38.9915 53.5634 40.2543C53.4563 41.5658 53.2263 42.7715 52.6493 43.9039C51.7544 45.6601 50.3266 47.0879 48.5704 47.9827C47.438 48.5597 46.2324 48.7897 44.9208 48.8969C43.658 49.0001 42.1079 49 40.2296 49H15.7701C13.8919 49 12.3417 49.0001 11.0789 48.8969C9.76739 48.7897 8.56175 48.5597 7.4293 47.9827C5.67312 47.0879 4.2453 45.6601 3.35048 43.9039C2.77347 42.7715 2.54349 41.5658 2.43633 40.2543C2.33315 38.9915 2.33318 37.4413 2.33321 35.563V20.437C2.33318 19.0409 2.33317 17.826 2.37553 16.7757C2.30143 16.3918 2.3233 15.9896 2.44804 15.6084C2.56002 14.3498 2.79367 13.1889 3.35048 12.0961C4.2453 10.3399 5.67312 8.91209 7.4293 8.01727C8.56175 7.44026 9.76739 7.21028 11.0789 7.10312C12.3417 6.99995 13.8919 6.99997 15.7702 7ZM6.99987 20.8149V35.4667C6.99987 37.4654 7.00169 38.824 7.08749 39.8743C7.17107 40.8972 7.32257 41.4204 7.50851 41.7853C7.95592 42.6634 8.66983 43.3773 9.54792 43.8247C9.91285 44.0106 10.436 44.1621 11.459 44.2457C12.5092 44.3315 13.8679 44.3333 15.8665 44.3333H40.1332C42.1319 44.3333 43.4906 44.3315 44.5408 44.2457C45.5638 44.1621 46.0869 44.0106 46.4518 43.8247C47.3299 43.3773 48.0438 42.6634 48.4912 41.7853C48.6772 41.4204 48.8287 40.8972 48.9123 39.8743C48.9981 38.824 48.9999 37.4654 48.9999 35.4667V20.8149L33.6198 31.5809C33.5293 31.6443 33.4396 31.7073 33.3507 31.7697C32.0798 32.6621 30.9639 33.4456 29.6929 33.7624C28.5812 34.0396 27.4185 34.0396 26.3068 33.7624C25.0359 33.4456 23.9199 32.6621 22.6491 31.7697C22.5602 31.7073 22.4705 31.6443 22.3799 31.5809L6.99987 20.8149ZM48.8067 15.2537L30.9436 27.7578C29.2428 28.9484 28.8824 29.155 28.5642 29.2343C28.1937 29.3267 27.8061 29.3267 27.4355 29.2343C27.1173 29.155 26.757 28.9484 25.0561 27.7578L7.193 15.2537C7.27636 14.7703 7.38481 14.4575 7.50851 14.2147C7.95592 13.3366 8.66983 12.6227 9.54792 12.1753C9.91285 11.9894 10.436 11.8379 11.459 11.7543C12.5092 11.6685 13.8679 11.6667 15.8665 11.6667H40.1332C42.1319 11.6667 43.4906 11.6685 44.5408 11.7543C45.5638 11.8379 46.0869 11.9894 46.4518 12.1753C47.3299 12.6227 48.0438 13.3366 48.4912 14.2147C48.6149 14.4575 48.7234 14.7703 48.8067 15.2537Z" fill="#0098FF"/>
</svg>
