<svg width="60" height="24" viewBox="0 0 60 24" fill="none" xmlns="http://www.w3.org/2000/svg">
<path d="M12 22C17.5228 22 22 17.5228 22 12C22 6.47715 17.5228 2 12 2C6.47715 2 2 6.47715 2 12C2 17.5228 6.47715 22 12 22Z" stroke="#1D9BF0" stroke-width="2" stroke-linecap="round" stroke-linejoin="round"/>
<path d="M8 9.6C8 9.03995 8 8.75992 8.10899 8.54601C8.20487 8.35785 8.35785 8.20487 8.54601 8.10899C8.75992 8 9.03995 8 9.6 8H14.4C14.9601 8 15.2401 8 15.454 8.10899C15.6422 8.20487 15.7951 8.35785 15.891 8.54601C16 8.75992 16 9.03995 16 9.6V14.4C16 14.9601 16 15.2401 15.891 15.454C15.7951 15.6422 15.6422 15.7951 15.454 15.891C15.2401 16 14.9601 16 14.4 16H9.6C9.03995 16 8.75992 16 8.54601 15.891C8.35785 15.7951 8.20487 15.6422 8.10899 15.454C8 15.2401 8 14.9601 8 14.4V9.6Z" stroke="#1D9BF0" stroke-width="2" stroke-linecap="round" stroke-linejoin="round"/>
<path d="M32.9219 9.18555H34.1426C34.1035 9.65104 33.9733 10.0661 33.752 10.4307C33.5306 10.792 33.2197 11.0768 32.8193 11.2852C32.4189 11.4935 31.9323 11.5977 31.3594 11.5977C30.9199 11.5977 30.5244 11.5195 30.1729 11.3633C29.8213 11.2038 29.5202 10.9792 29.2695 10.6895C29.0189 10.3965 28.8268 10.0433 28.6934 9.62988C28.5632 9.21647 28.498 8.75423 28.498 8.24316V7.65234C28.498 7.14128 28.5648 6.67904 28.6982 6.26562C28.835 5.85221 29.0303 5.49902 29.2842 5.20605C29.5381 4.90983 29.8424 4.68359 30.1973 4.52734C30.5553 4.37109 30.9574 4.29297 31.4033 4.29297C31.9697 4.29297 32.4482 4.39714 32.8389 4.60547C33.2295 4.8138 33.5322 5.10189 33.7471 5.46973C33.9652 5.83757 34.0986 6.25911 34.1475 6.73438H32.9268C32.8942 6.42839 32.8226 6.16634 32.7119 5.94824C32.6045 5.73014 32.445 5.56413 32.2334 5.4502C32.0218 5.33301 31.7451 5.27441 31.4033 5.27441C31.1234 5.27441 30.8792 5.3265 30.6709 5.43066C30.4626 5.53483 30.2884 5.68783 30.1484 5.88965C30.0085 6.09147 29.9027 6.34049 29.8311 6.63672C29.7627 6.92969 29.7285 7.26497 29.7285 7.64258V8.24316C29.7285 8.60124 29.7594 8.92676 29.8213 9.21973C29.8864 9.50944 29.984 9.75846 30.1143 9.9668C30.2477 10.1751 30.417 10.3363 30.6221 10.4502C30.8271 10.5641 31.0729 10.6211 31.3594 10.6211C31.7077 10.6211 31.9893 10.5658 32.2041 10.4551C32.4222 10.3444 32.5866 10.1833 32.6973 9.97168C32.8112 9.75684 32.8861 9.49479 32.9219 9.18555ZM39.709 10.5283V11.5H36.1396V10.5283H39.709ZM36.4814 4.39062V11.5H35.2559V4.39062H36.4814ZM46.0029 7.75V8.14062C46.0029 8.67773 45.9329 9.15951 45.793 9.58594C45.653 10.0124 45.4528 10.3753 45.1924 10.6748C44.9352 10.9743 44.626 11.2038 44.2646 11.3633C43.9033 11.5195 43.5029 11.5977 43.0635 11.5977C42.6273 11.5977 42.2285 11.5195 41.8672 11.3633C41.5091 11.2038 41.1982 10.9743 40.9346 10.6748C40.6709 10.3753 40.4658 10.0124 40.3193 9.58594C40.1761 9.15951 40.1045 8.67773 40.1045 8.14062V7.75C40.1045 7.21289 40.1761 6.73275 40.3193 6.30957C40.4626 5.88314 40.6644 5.52018 40.9248 5.2207C41.1885 4.91797 41.4993 4.68848 41.8574 4.53223C42.2188 4.37272 42.6175 4.29297 43.0537 4.29297C43.4932 4.29297 43.8936 4.37272 44.2549 4.53223C44.6162 4.68848 44.9271 4.91797 45.1875 5.2207C45.4479 5.52018 45.6481 5.88314 45.7881 6.30957C45.9313 6.73275 46.0029 7.21289 46.0029 7.75ZM44.7773 8.14062V7.74023C44.7773 7.3431 44.7383 6.99316 44.6602 6.69043C44.5853 6.38444 44.473 6.12891 44.3232 5.92383C44.1768 5.71549 43.9961 5.55924 43.7812 5.45508C43.5664 5.34766 43.3239 5.29395 43.0537 5.29395C42.7835 5.29395 42.5426 5.34766 42.3311 5.45508C42.1195 5.55924 41.9388 5.71549 41.7891 5.92383C41.6426 6.12891 41.5303 6.38444 41.4521 6.69043C41.374 6.99316 41.335 7.3431 41.335 7.74023V8.14062C41.335 8.53776 41.374 8.88932 41.4521 9.19531C41.5303 9.5013 41.6442 9.76009 41.7939 9.97168C41.9469 10.18 42.1292 10.3379 42.3408 10.4453C42.5524 10.5495 42.7933 10.6016 43.0635 10.6016C43.3369 10.6016 43.5794 10.5495 43.791 10.4453C44.0026 10.3379 44.1816 10.18 44.3281 9.97168C44.4746 9.76009 44.5853 9.5013 44.6602 9.19531C44.7383 8.88932 44.7773 8.53776 44.7773 8.14062ZM50.9688 9.66895C50.9688 9.52246 50.946 9.39225 50.9004 9.27832C50.8581 9.16439 50.7816 9.06022 50.6709 8.96582C50.5602 8.87142 50.404 8.78027 50.2021 8.69238C50.0036 8.60124 49.7497 8.50846 49.4404 8.41406C49.1019 8.3099 48.7894 8.19434 48.5029 8.06738C48.2197 7.93717 47.9723 7.78743 47.7607 7.61816C47.5492 7.44564 47.3848 7.2487 47.2676 7.02734C47.1504 6.80273 47.0918 6.54395 47.0918 6.25098C47.0918 5.96126 47.152 5.69759 47.2725 5.45996C47.3962 5.22233 47.5703 5.01725 47.7949 4.84473C48.0228 4.66895 48.2913 4.53385 48.6006 4.43945C48.9098 4.3418 49.2516 4.29297 49.626 4.29297C50.1533 4.29297 50.6074 4.39062 50.9883 4.58594C51.3724 4.78125 51.667 5.04329 51.8721 5.37207C52.0804 5.70085 52.1846 6.0638 52.1846 6.46094H50.9688C50.9688 6.22656 50.9183 6.01986 50.8174 5.84082C50.7197 5.65853 50.57 5.5153 50.3682 5.41113C50.1696 5.30697 49.9173 5.25488 49.6113 5.25488C49.3216 5.25488 49.0807 5.29883 48.8887 5.38672C48.6966 5.47461 48.5534 5.59342 48.459 5.74316C48.3646 5.8929 48.3174 6.06217 48.3174 6.25098C48.3174 6.38444 48.3483 6.50651 48.4102 6.61719C48.472 6.72461 48.5664 6.82552 48.6934 6.91992C48.8203 7.01107 48.9798 7.09733 49.1719 7.17871C49.3639 7.26009 49.5902 7.33822 49.8506 7.41309C50.2445 7.53027 50.5879 7.66048 50.8809 7.80371C51.1738 7.94368 51.418 8.10319 51.6133 8.28223C51.8086 8.46126 51.9551 8.66471 52.0527 8.89258C52.1504 9.11719 52.1992 9.37272 52.1992 9.65918C52.1992 9.95866 52.139 10.2288 52.0186 10.4697C51.8981 10.7074 51.7256 10.9108 51.501 11.0801C51.2796 11.2461 51.0127 11.3747 50.7002 11.4658C50.391 11.5537 50.0459 11.5977 49.665 11.5977C49.3232 11.5977 48.9863 11.5521 48.6543 11.4609C48.3255 11.3698 48.026 11.2314 47.7559 11.0459C47.4857 10.8571 47.2708 10.6227 47.1113 10.3428C46.9518 10.0596 46.8721 9.72917 46.8721 9.35156H48.0977C48.0977 9.58268 48.1367 9.77962 48.2148 9.94238C48.2962 10.1051 48.4085 10.2386 48.5518 10.3428C48.695 10.4437 48.861 10.5186 49.0498 10.5674C49.2419 10.6162 49.4469 10.6406 49.665 10.6406C49.9515 10.6406 50.1908 10.5999 50.3828 10.5186C50.5781 10.4372 50.7246 10.3232 50.8223 10.1768C50.9199 10.0303 50.9688 9.861 50.9688 9.66895ZM57.9365 10.5283V11.5H54.1621V10.5283H57.9365ZM54.5088 4.39062V11.5H53.2832V4.39062H54.5088ZM57.4434 7.35938V8.31641H54.1621V7.35938H57.4434ZM57.9121 4.39062V5.36719H54.1621V4.39062H57.9121Z" fill="#1D9BF0"/>
<rect x="28" y="13.5" width="32" height="8" rx="4" fill="#1D9BF0"/>
<path d="M32.2822 15.7344H33.0264L34.1221 18.8662L35.2178 15.7344H35.9619L34.4209 20H33.8232L32.2822 15.7344ZM31.8809 15.7344H32.6221L32.7568 18.7871V20H31.8809V15.7344ZM35.6221 15.7344H36.3662V20H35.4873V18.7871L35.6221 15.7344ZM38.9238 16.4639L37.7637 20H36.8291L38.4141 15.7344H39.0088L38.9238 16.4639ZM39.8877 20L38.7246 16.4639L38.6309 15.7344H39.2314L40.8252 20H39.8877ZM39.835 18.4121V19.1006H37.582V18.4121H39.835ZM44.6924 15.7344V20H43.8135L42.0996 17.1406V20H41.2207V15.7344H42.0996L43.8164 18.5967V15.7344H44.6924ZM47.8125 15.7344H48.6885V18.5527C48.6885 18.8809 48.6182 19.1572 48.4775 19.3818C48.3389 19.6064 48.1465 19.7754 47.9004 19.8887C47.6562 20.002 47.375 20.0586 47.0566 20.0586C46.7383 20.0586 46.4551 20.002 46.207 19.8887C45.9609 19.7754 45.7676 19.6064 45.627 19.3818C45.4883 19.1572 45.4189 18.8809 45.4189 18.5527V15.7344H46.2979V18.5527C46.2979 18.7441 46.3281 18.9004 46.3887 19.0215C46.4492 19.1426 46.5361 19.2314 46.6494 19.2881C46.7646 19.3447 46.9004 19.373 47.0566 19.373C47.2168 19.373 47.3525 19.3447 47.4639 19.2881C47.5771 19.2314 47.6631 19.1426 47.7217 19.0215C47.7822 18.9004 47.8125 18.7441 47.8125 18.5527V15.7344ZM51.082 16.4639L49.9219 20H48.9873L50.5723 15.7344H51.167L51.082 16.4639ZM52.0459 20L50.8828 16.4639L50.7891 15.7344H51.3896L52.9834 20H52.0459ZM51.9932 18.4121V19.1006H49.7402V18.4121H51.9932ZM56.1211 19.3145V20H53.9736V19.3145H56.1211ZM54.2578 15.7344V20H53.3789V15.7344H54.2578Z" fill="white"/>
</svg>
