<svg width="20" height="20" viewBox="0 0 20 20" fill="none" xmlns="http://www.w3.org/2000/svg">
<g clip-path="url(#clip0_5816_27505)">
<path fill-rule="evenodd" clip-rule="evenodd" d="M10.0007 2.4987C5.85851 2.4987 2.50065 5.85656 2.50065 9.9987C2.50065 14.1408 5.85851 17.4987 10.0007 17.4987C14.1428 17.4987 17.5006 14.1408 17.5006 9.9987C17.5006 5.85656 14.1428 2.4987 10.0007 2.4987ZM0.833984 9.9987C0.833984 4.93609 4.93804 0.832031 10.0007 0.832031C15.0633 0.832031 19.1673 4.93609 19.1673 9.9987C19.1673 15.0613 15.0633 19.1654 10.0007 19.1654C4.93804 19.1654 0.833984 15.0613 0.833984 9.9987ZM10.0007 5.83203C10.4609 5.83203 10.834 6.20513 10.834 6.66536V9.16536H13.334C13.7942 9.16536 14.1673 9.53846 14.1673 9.9987C14.1673 10.4589 13.7942 10.832 13.334 10.832H10.834V13.332C10.834 13.7923 10.4609 14.1654 10.0007 14.1654C9.54041 14.1654 9.16732 13.7923 9.16732 13.332V10.832H6.66732C6.20708 10.832 5.83398 10.4589 5.83398 9.9987C5.83398 9.53846 6.20708 9.16536 6.66732 9.16536H9.16732V6.66536C9.16732 6.20513 9.54041 5.83203 10.0007 5.83203Z" fill="#141414"/>
</g>
<defs>
<clipPath id="clip0_5816_27505">
<rect width="20" height="20" fill="white"/>
</clipPath>
</defs>
</svg>
