<svg width="20" height="20" viewBox="0 0 20 20" fill="none" xmlns="http://www.w3.org/2000/svg">
<path fill-rule="evenodd" clip-rule="evenodd" d="M1.6665 4.99935C1.6665 4.53911 2.0396 4.16602 2.49984 4.16602H17.4998C17.9601 4.16602 18.3332 4.53911 18.3332 4.99935C18.3332 5.45959 17.9601 5.83268 17.4998 5.83268H2.49984C2.0396 5.83268 1.6665 5.45959 1.6665 4.99935ZM1.6665 9.99935C1.6665 9.53911 2.0396 9.16602 2.49984 9.16602H17.4998C17.9601 9.16602 18.3332 9.53911 18.3332 9.99935C18.3332 10.4596 17.9601 10.8327 17.4998 10.8327H2.49984C2.0396 10.8327 1.6665 10.4596 1.6665 9.99935ZM1.6665 14.9993C1.6665 14.5391 2.0396 14.166 2.49984 14.166H17.4998C17.9601 14.166 18.3332 14.5391 18.3332 14.9993C18.3332 15.4596 17.9601 15.8327 17.4998 15.8327H2.49984C2.0396 15.8327 1.6665 15.4596 1.6665 14.9993Z" fill="#0098FF"/>
</svg>
