<svg width="28" height="28" viewBox="0 0 28 28" fill="none" xmlns="http://www.w3.org/2000/svg">
<path d="M13.9535 26.8094C13.2302 26.8094 12.5302 26.5993 11.9118 26.2027C11.3052 25.806 10.8268 25.246 10.5235 24.581L9.84683 23.0527C9.70683 22.726 9.46183 22.4577 9.1585 22.2827C8.85516 22.1077 8.4935 22.026 8.1435 22.0727L6.47516 22.2477C5.75183 22.3293 5.0285 22.1894 4.37516 21.8627C3.72183 21.536 3.19683 21.0227 2.8235 20.3927C2.4735 19.7627 2.2985 19.051 2.3335 18.3277C2.3685 17.6044 2.6135 16.9043 3.04516 16.321L4.03683 14.9677C4.24683 14.676 4.35183 14.3377 4.35183 13.9877C4.35183 13.6377 4.24683 13.2877 4.03683 13.0077L3.04516 11.6543C2.62516 11.0477 2.38016 10.3594 2.3335 9.63602C2.2985 8.91268 2.4735 8.20102 2.83516 7.57102C3.19683 6.94102 3.7335 6.43935 4.37516 6.10102C5.0285 5.77435 5.75183 5.63435 6.47516 5.71602L8.1435 5.89102C8.4935 5.92602 8.8435 5.85602 9.1585 5.68102C9.46183 5.50602 9.69516 5.23768 9.83516 4.92268L10.5118 3.38268C10.8035 2.71768 11.2818 2.15768 11.9002 1.76102C13.1135 0.967682 14.7702 0.967682 15.9835 1.76102C16.5902 2.15768 17.0685 2.71768 17.3718 3.38268L18.0602 4.91102C18.2002 5.23768 18.4452 5.50602 18.7485 5.68102C19.0518 5.85602 19.4018 5.92602 19.7518 5.89102L21.4202 5.71602C22.1435 5.63435 22.8668 5.77435 23.5202 6.10102C24.1735 6.42768 24.6985 6.94102 25.0718 7.57102C25.4335 8.20102 25.6085 8.92435 25.5618 9.64768C25.5268 10.371 25.2818 11.0593 24.8502 11.6543L23.8585 13.0077C23.6485 13.2877 23.5435 13.6377 23.5435 13.9877C23.5435 14.3493 23.6485 14.6877 23.8585 14.9794L24.8385 16.3327C25.2702 16.916 25.5152 17.616 25.5502 18.3393C25.5852 19.0627 25.4102 19.7743 25.0485 20.4044C24.6868 21.0343 24.1502 21.536 23.4968 21.8743C22.8435 22.2127 22.1202 22.341 21.4085 22.2593L19.7402 22.0844C19.3785 22.0494 19.0402 22.1194 18.7368 22.2944C18.4335 22.4694 18.2002 22.7377 18.0485 23.0527L17.3718 24.581C17.0802 25.246 16.6018 25.806 15.9835 26.2027C15.3652 26.5993 14.6652 26.8094 13.9418 26.8094H13.9535ZM13.9535 24.476C14.2335 24.476 14.4902 24.3944 14.7235 24.2427C14.9568 24.091 15.1318 23.881 15.2485 23.636L15.9252 22.1077C16.2752 21.3377 16.8352 20.696 17.5702 20.276C18.3052 19.8443 19.1568 19.6693 19.9968 19.7627L21.6652 19.9377C21.9335 19.961 22.2135 19.9144 22.4585 19.786C22.7035 19.6577 22.9018 19.471 23.0418 19.2377C23.1818 19.0044 23.2402 18.7243 23.2285 18.456C23.2168 18.1877 23.1235 17.9193 22.9602 17.6977L21.9685 16.3443C21.4668 15.6444 21.2102 14.8277 21.2102 13.976C21.2102 13.1243 21.4785 12.3193 21.9802 11.631L22.9718 10.2777C23.1352 10.056 23.2285 9.79935 23.2402 9.51935C23.2518 9.23935 23.1935 8.97102 23.0535 8.73768C22.9135 8.50435 22.7152 8.30602 22.4702 8.17768C22.2252 8.04935 21.9568 8.00268 21.6768 8.03768L20.0085 8.21268C19.1685 8.30602 18.3285 8.11935 17.5818 7.69935C16.8468 7.26768 16.2752 6.63768 15.9252 5.85602L15.2368 4.32768C15.1202 4.07102 14.9452 3.86102 14.7118 3.70935C14.2568 3.41768 13.6268 3.40602 13.1718 3.70935C12.9385 3.86102 12.7635 4.07102 12.6468 4.31602L11.9702 5.84435C11.6318 6.61435 11.0602 7.25602 10.3252 7.67602C9.59016 8.10768 8.75016 8.28268 7.8985 8.18935L6.23016 8.01435C5.95016 7.97935 5.68183 8.03768 5.43683 8.15435C5.19183 8.28268 4.9935 8.46935 4.8535 8.70268C4.7135 8.93602 4.65516 9.21602 4.66683 9.48435C4.6785 9.75268 4.77183 10.021 4.93516 10.2427L5.92683 11.596C6.4285 12.2843 6.69683 13.101 6.69683 13.9527C6.69683 14.8043 6.4285 15.621 5.9385 16.3093L4.94683 17.6627C4.7835 17.8843 4.69016 18.1527 4.6785 18.421C4.66683 18.6894 4.72516 18.9694 4.86516 19.2027C5.00516 19.436 5.2035 19.6343 5.4485 19.7627C5.6935 19.891 5.9735 19.9377 6.24183 19.9027L7.91016 19.7277C8.75016 19.6343 9.59016 19.8094 10.3368 20.241C11.0718 20.661 11.6435 21.3027 11.9935 22.0844L12.6702 23.6127C12.7868 23.8694 12.9618 24.0794 13.1952 24.2194C13.4285 24.371 13.6735 24.4877 13.9652 24.4527L13.9535 24.476Z" fill="#0098FF"/>
<path d="M13.9535 18.6427C11.3752 18.6427 9.28683 16.5543 9.28683 13.976C9.28683 11.3977 11.3752 9.30935 13.9535 9.30935C16.5318 9.30935 18.6202 11.3977 18.6202 13.976C18.6202 16.5543 16.5318 18.6427 13.9535 18.6427ZM13.9535 11.6427C12.6702 11.6427 11.6202 12.6927 11.6202 13.976C11.6202 15.2593 12.6702 16.3093 13.9535 16.3093C15.2368 16.3093 16.2868 15.2593 16.2868 13.976C16.2868 12.6927 15.2368 11.6427 13.9535 11.6427Z" fill="#0098FF"/>
</svg>
