<svg width="20" height="20" viewBox="0 0 20 20" fill="none" xmlns="http://www.w3.org/2000/svg">
<path fill-rule="evenodd" clip-rule="evenodd" d="M6.72733 2.13008L7.60862 2.22801C7.62073 2.22935 7.63267 2.23068 7.64444 2.23198C7.85441 2.25527 8.01051 2.27259 8.15134 2.30059C9.6067 2.58996 10.6955 3.80649 10.8224 5.2849C10.8347 5.42797 10.8347 5.58502 10.8346 5.79627C10.8346 5.80811 10.8346 5.82013 10.8346 5.83232C10.8346 6.29256 10.4615 6.66565 10.0013 6.66565C9.54107 6.66565 9.16797 6.29256 9.16797 5.83232C9.16797 5.56934 9.16721 5.48971 9.16187 5.42742C9.09843 4.68821 8.554 4.07994 7.82632 3.93526C7.765 3.92307 7.68594 3.91352 7.42457 3.88448L6.57339 3.7899C5.92208 3.71754 5.47698 3.66857 5.13031 3.65482C4.79007 3.64132 4.61414 3.66612 4.49334 3.70478C4.04182 3.84926 3.6732 4.1792 3.47974 4.612C3.42797 4.72779 3.3839 4.89991 3.35974 5.23956C3.33513 5.58562 3.33464 6.03341 3.33464 6.68873V13.3092C3.33464 13.9646 3.33513 14.4124 3.35974 14.7584C3.3839 15.0981 3.42797 15.2702 3.47973 15.386C3.6732 15.8188 4.04182 16.1487 4.49334 16.2932C4.61414 16.3319 4.79007 16.3566 5.13031 16.3432C5.47699 16.3294 5.92209 16.2804 6.5734 16.2081L7.42457 16.1135C7.68586 16.0845 7.76502 16.0749 7.82632 16.0627C8.554 15.918 9.09843 15.3098 9.16187 14.5706C9.16721 14.5083 9.16797 14.4286 9.16797 14.1657C9.16797 13.7054 9.54107 13.3323 10.0013 13.3323C10.4615 13.3323 10.8346 13.7054 10.8346 14.1657C10.8346 14.1778 10.8346 14.1899 10.8346 14.2017C10.8347 14.413 10.8347 14.57 10.8224 14.7131C10.6955 16.1915 9.6067 17.408 8.15134 17.6974C8.01051 17.7254 7.85431 17.7427 7.64437 17.766L6.72731 17.8679C6.11355 17.9361 5.60934 17.9921 5.19639 18.0085C4.77027 18.0254 4.37252 18.0045 3.98537 17.8806C3.08234 17.5916 2.3451 16.9317 1.95817 16.0661C1.79228 15.695 1.72753 15.302 1.69728 14.8767C1.66795 14.4644 1.66796 13.9571 1.66797 13.3395V6.65844C1.66796 6.04087 1.66795 5.53355 1.69728 5.12131C1.72753 4.69593 1.79228 4.30294 1.95817 3.93184C2.3451 3.06624 3.08234 2.40638 3.98537 2.11741C4.37253 1.99352 4.77026 1.97256 5.19638 1.98946C5.60934 2.00585 6.11355 2.06188 6.72733 2.13008ZM12.7454 5.24306C13.0708 4.91763 13.5985 4.91763 13.9239 5.24306L18.0906 9.40973C18.416 9.73517 18.416 10.2628 18.0906 10.5882L13.9239 14.7549C13.5985 15.0803 13.0708 15.0803 12.7454 14.7549C12.4199 14.4295 12.4199 13.9018 12.7454 13.5764L15.4895 10.8323H7.5013C7.04107 10.8323 6.66797 10.4592 6.66797 9.99899C6.66797 9.53875 7.04107 9.16565 7.5013 9.16565H15.4895L12.7454 6.42158C12.4199 6.09614 12.4199 5.5685 12.7454 5.24306Z" fill="#FF3838"/>
</svg>
