<svg width="40" height="40" viewBox="0 0 40 40" fill="none" xmlns="http://www.w3.org/2000/svg">
<g clip-path="url(#clip0_5699_103394)">
<rect width="40" height="40" rx="20" fill="#1D9BF0"/>
<path d="M26.5368 8.92642C26.5833 10.5338 25.868 11.5733 24.4095 12.377C22.6259 13.3642 20.7866 14.3688 18.9844 15.3472C16.9964 16.4217 16.4948 17.7407 17.9254 19.4792C17.4609 20.4401 15.8445 20.2566 14.9527 20.1256C13.9494 19.549 13.6614 18.2998 13.7172 17.2778C13.8008 15.8189 14.6183 14.4387 15.7423 13.4515C19.3374 10.9007 22.9232 8.36734 26.5275 5.83398C26.5275 6.8648 26.5275 7.89561 26.5368 8.92642Z" fill="white"/>
<path d="M17.9347 19.4792C17.9347 19.4792 17.721 19.3132 17.3587 19.0162C15.6587 17.5922 13.4478 15.3908 15.7423 13.4515C14.9806 13.9931 14.3489 14.6396 13.8101 15.3297C12.1844 17.3738 12.5002 20.6672 12.5745 23.1219C12.6117 24.3013 14.098 24.5633 15.0363 24.0916C16.0767 23.5675 17.1822 22.9909 18.1948 22.4755C19.7368 21.7068 18.9844 20.2654 17.9347 19.4792Z" fill="white"/>
<path d="M12.6067 30.2328C12.5602 28.6254 13.2755 27.5859 14.734 26.7822C16.5176 25.7951 18.3569 24.7905 20.1591 23.8121C22.1471 22.7376 22.6487 21.4185 21.2181 19.6801C21.6826 18.7191 23.299 18.9026 24.1908 19.0336C25.1941 19.6102 25.4821 20.8594 25.4263 21.8815C25.3427 23.3316 24.5252 24.7206 23.4012 25.7077C19.8154 28.2498 16.2203 30.7919 12.6159 33.3252C12.6159 32.2944 12.6159 31.2636 12.6067 30.2328Z" fill="white"/>
<path d="M21.2088 19.6888C21.2088 19.6888 21.4225 19.8548 21.7848 20.1518C23.4848 21.5757 25.6957 23.7684 23.4012 25.7164C24.1629 25.1748 24.7946 24.5284 25.3334 23.8383C26.9591 21.7941 26.6433 18.5008 26.5689 16.0373C26.5318 14.858 25.0454 14.5959 24.1072 15.0676C23.0668 15.5918 21.9613 16.1683 20.958 16.6837C19.4066 17.4612 20.1591 18.8939 21.2088 19.6888Z" fill="white"/>
</g>
<defs>
<clipPath id="clip0_5699_103394">
<rect width="40" height="40" fill="white"/>
</clipPath>
</defs>
</svg>
