<svg xmlns="http://www.w3.org/2000/svg" width="20" height="20" viewBox="0 0 20 20" fill="none">
    <g clip-path="url(#clip0_4835_19402)">
      <path fill-rule="evenodd" clip-rule="evenodd" d="M10 2.5026C6.77834 2.5026 4.16667 5.11428 4.16667 8.33594C4.16667 9.91269 4.87764 11.401 6.0769 12.9582C7.08951 14.273 8.38561 15.5587 9.7769 16.9387C9.851 17.0122 9.92538 17.086 10 17.16C10.0746 17.086 10.149 17.0122 10.2231 16.9387C11.6144 15.5587 12.9105 14.273 13.9231 12.9582C15.1224 11.401 15.8333 9.91269 15.8333 8.33594C15.8333 5.11428 13.2217 2.5026 10 2.5026ZM2.5 8.33594C2.5 4.1938 5.85786 0.835938 10 0.835938C14.1421 0.835938 17.5 4.1938 17.5 8.33594C17.5 10.4411 16.5443 12.2861 15.2436 13.9751C14.1566 15.3865 12.7654 16.7656 11.3757 18.1433C11.1128 18.4039 10.85 18.6645 10.5893 18.9252C10.2638 19.2506 9.73618 19.2506 9.41074 18.9252C9.15003 18.6645 8.88719 18.4039 8.62431 18.1433C7.23456 16.7656 5.84337 15.3865 4.75643 13.9751C3.45569 12.2861 2.5 10.4411 2.5 8.33594ZM10 6.66927C9.07953 6.66927 8.33333 7.41546 8.33333 8.33594C8.33333 9.25641 9.07953 10.0026 10 10.0026C10.9205 10.0026 11.6667 9.25641 11.6667 8.33594C11.6667 7.41546 10.9205 6.66927 10 6.66927ZM6.66667 8.33594C6.66667 6.49499 8.15905 5.0026 10 5.0026C11.8409 5.0026 13.3333 6.49499 13.3333 8.33594C13.3333 10.1769 11.8409 11.6693 10 11.6693C8.15905 11.6693 6.66667 10.1769 6.66667 8.33594Z" fill="#141414"/>
    </g>
    <defs>
      <clipPath id="clip0_4835_19402">
        <rect width="20" height="20" fill="white" transform="translate(0 0.00195312)"/>
      </clipPath>
    </defs>
  </svg>