<svg xmlns="http://www.w3.org/2000/svg" width="20" height="20" viewBox="0 0 20 20" fill="none">
  <path d="M3.36651 2.35015C3.17198 2.26257 2.97804 2.17526 2.81444 2.11859C2.66425 2.06656 2.36186 1.97151 2.02706 2.06467C1.64871 2.16994 1.34183 2.4469 1.19844 2.81251C1.07155 3.13604 1.13521 3.44656 1.17161 3.60129C1.21126 3.76982 1.27829 3.97166 1.34553 4.17412L3.00283 9.16732L7.5 9.16732C7.96024 9.16732 8.33333 9.54041 8.33333 10.0007C8.33333 10.4609 7.96024 10.834 7.5 10.834L3.02038 10.834L1.35152 15.8191C1.28354 16.022 1.21583 16.2242 1.17565 16.3929C1.13883 16.5476 1.07411 16.8587 1.20065 17.1831C1.34355 17.5493 1.65046 17.827 2.02916 17.9327C2.36452 18.0263 2.6676 17.9309 2.81784 17.8789C2.98174 17.8221 3.17613 17.7346 3.37128 17.6467L17.353 11.355C17.5431 11.2695 17.7338 11.1837 17.8826 11.0999C18.0208 11.0222 18.2876 10.861 18.4396 10.5535C18.6122 10.2043 18.6122 9.79465 18.4396 9.44548C18.2876 9.13803 18.0208 8.97682 17.8826 8.89905C17.7338 8.81532 17.5431 8.72954 17.353 8.64401L3.36651 2.35015Z" fill="#878787"/>
</svg>