<svg width="24" height="24" viewBox="0 0 24 24" fill="none" xmlns="http://www.w3.org/2000/svg">
    <path fill-rule="evenodd" clip-rule="evenodd" d="M11.7142 1.08697C11.9039 1.05955 12.0966 1.05955 12.2863 1.08697C12.5049 1.11856 12.7084 1.19541 12.8699 1.25644C12.8847 1.26202 12.8991 1.26748 12.9132 1.27275L18.275 3.28342C18.3189 3.29989 18.3624 3.31615 18.4056 3.33227C19.0234 3.56292 19.566 3.76548 19.9838 4.1337C20.3493 4.45582 20.6309 4.86212 20.8041 5.31746C21.0022 5.83797 21.0014 6.41709 21.0004 7.07653C21.0003 7.12263 21.0003 7.16912 21.0003 7.21601V11.9984C21.0003 14.825 19.463 17.1816 17.8012 18.9128C16.1283 20.6556 14.2143 21.8866 13.2022 22.477C13.1888 22.4848 13.1752 22.4928 13.1612 22.501C12.9765 22.6095 12.7368 22.7503 12.4196 22.8183C12.1602 22.8739 11.8404 22.8739 11.5809 22.8183C11.2638 22.7503 11.024 22.6095 10.8393 22.501C10.8254 22.4928 10.8117 22.4848 10.7984 22.477C9.78626 21.8866 7.87222 20.6556 6.19932 18.9128C4.53756 17.1816 3.00026 14.825 3.00026 11.9984V7.21601C3.00026 7.16912 3.0002 7.12263 3.00013 7.07654C2.99918 6.41709 2.99834 5.83797 3.19641 5.31746C3.36968 4.86212 3.65124 4.45582 4.01675 4.1337C4.43457 3.76548 4.97712 3.56292 5.59491 3.33227C5.63809 3.31615 5.68164 3.29989 5.72555 3.28342L11.0873 1.27275C11.1014 1.26748 11.1158 1.26202 11.1306 1.25644C11.2922 1.19541 11.4956 1.11856 11.7142 1.08697ZM11.9972 3.06968C11.9564 3.08307 11.901 3.10363 11.7896 3.14541L6.42779 5.15608C5.60255 5.46555 5.44374 5.54195 5.33909 5.63417C5.21726 5.74155 5.1234 5.87698 5.06564 6.02876C5.01604 6.15912 5.00026 6.33465 5.00026 7.21601V11.9984C5.00026 14.0802 6.13995 15.9628 7.64218 17.5278C9.13327 19.0812 10.8702 20.2035 11.8062 20.7495C11.8634 20.7829 11.9047 20.8069 11.9405 20.8271C11.9687 20.843 11.9874 20.853 12.0003 20.8595C12.0131 20.853 12.0318 20.843 12.06 20.8271C12.0959 20.8069 12.1371 20.7829 12.1943 20.7495C13.1303 20.2035 14.8673 19.0812 16.3584 17.5278C17.8606 15.9628 19.0003 14.0802 19.0003 11.9984V7.21601C19.0003 6.33465 18.9845 6.15912 18.9349 6.02876C18.8771 5.87698 18.7833 5.74155 18.6614 5.63417C18.5568 5.54195 18.398 5.46555 17.5727 5.15608L12.2109 3.14541C12.0995 3.10363 12.0441 3.08307 12.0033 3.06968C12.0022 3.06934 12.0012 3.06901 12.0003 3.0687C11.9993 3.06901 11.9983 3.06934 11.9972 3.06968ZM16.2074 8.2913C16.5979 8.68182 16.5979 9.31499 16.2074 9.70551L11.7074 14.2055C11.3168 14.596 10.6837 14.596 10.2932 14.2055L8.29316 12.2055C7.90263 11.815 7.90263 11.1818 8.29316 10.7913C8.68368 10.4008 9.31685 10.4008 9.70737 10.7913L11.0003 12.0842L14.7932 8.2913C15.1837 7.90077 15.8168 7.90077 16.2074 8.2913Z" fill="black"/>
</svg>