<svg width="68" height="32" viewBox="0 0 68 32" fill="none" xmlns="http://www.w3.org/2000/svg">
<rect width="68" height="32" rx="8" fill="#8CCB46"/>
<g clip-path="url(#clip0_1924_6793)">
<path d="M16 26C21.5228 26 26 21.5228 26 16C26 10.4772 21.5228 6 16 6C10.4772 6 6 10.4772 6 16C6 21.5228 10.4772 26 16 26Z" stroke="white" stroke-width="1.5" stroke-linecap="round" stroke-linejoin="round"/>
<path d="M13.5 12.9653C13.5 12.488 13.5 12.2494 13.5997 12.1162C13.6867 12.0001 13.8197 11.9274 13.9644 11.9171C14.1304 11.9052 14.3311 12.0343 14.7326 12.2924L19.4532 15.3271C19.8016 15.551 19.9758 15.663 20.0359 15.8054C20.0885 15.9298 20.0885 16.0702 20.0359 16.1946C19.9758 16.337 19.8016 16.449 19.4532 16.6729L14.7326 19.7076C14.3311 19.9657 14.1304 20.0948 13.9644 20.0829C13.8197 20.0726 13.6867 19.9999 13.5997 19.8838C13.5 19.7506 13.5 19.512 13.5 19.0347V12.9653Z" stroke="white" stroke-width="1.5" stroke-linecap="round" stroke-linejoin="round"/>
</g>
<path d="M37.4629 13.6689C37.4629 13.5225 37.4401 13.3923 37.3945 13.2783C37.3522 13.1644 37.2757 13.0602 37.165 12.9658C37.0544 12.8714 36.8981 12.7803 36.6963 12.6924C36.4977 12.6012 36.2438 12.5085 35.9346 12.4141C35.596 12.3099 35.2835 12.1943 34.9971 12.0674C34.7139 11.9372 34.4665 11.7874 34.2549 11.6182C34.0433 11.4456 33.8789 11.2487 33.7617 11.0273C33.6445 10.8027 33.5859 10.5439 33.5859 10.251C33.5859 9.96126 33.6462 9.69759 33.7666 9.45996C33.8903 9.22233 34.0645 9.01725 34.2891 8.84473C34.5169 8.66895 34.7855 8.53385 35.0947 8.43945C35.404 8.3418 35.7458 8.29297 36.1201 8.29297C36.6475 8.29297 37.1016 8.39062 37.4824 8.58594C37.8665 8.78125 38.1611 9.04329 38.3662 9.37207C38.5745 9.70085 38.6787 10.0638 38.6787 10.4609H37.4629C37.4629 10.2266 37.4124 10.0199 37.3115 9.84082C37.2139 9.65853 37.0641 9.5153 36.8623 9.41113C36.6637 9.30697 36.4115 9.25488 36.1055 9.25488C35.8158 9.25488 35.5749 9.29883 35.3828 9.38672C35.1908 9.47461 35.0475 9.59342 34.9531 9.74316C34.8587 9.8929 34.8115 10.0622 34.8115 10.251C34.8115 10.3844 34.8424 10.5065 34.9043 10.6172C34.9661 10.7246 35.0605 10.8255 35.1875 10.9199C35.3145 11.0111 35.474 11.0973 35.666 11.1787C35.8581 11.2601 36.0843 11.3382 36.3447 11.4131C36.7386 11.5303 37.082 11.6605 37.375 11.8037C37.668 11.9437 37.9121 12.1032 38.1074 12.2822C38.3027 12.4613 38.4492 12.6647 38.5469 12.8926C38.6445 13.1172 38.6934 13.3727 38.6934 13.6592C38.6934 13.9587 38.6331 14.2288 38.5127 14.4697C38.3923 14.7074 38.2197 14.9108 37.9951 15.0801C37.7738 15.2461 37.5068 15.3747 37.1943 15.4658C36.8851 15.5537 36.54 15.5977 36.1592 15.5977C35.8174 15.5977 35.4805 15.5521 35.1484 15.4609C34.8197 15.3698 34.5202 15.2314 34.25 15.0459C33.9798 14.8571 33.765 14.6227 33.6055 14.3428C33.446 14.0596 33.3662 13.7292 33.3662 13.3516H34.5918C34.5918 13.5827 34.6309 13.7796 34.709 13.9424C34.7904 14.1051 34.9027 14.2386 35.0459 14.3428C35.1891 14.4437 35.3551 14.5186 35.5439 14.5674C35.736 14.6162 35.9411 14.6406 36.1592 14.6406C36.4456 14.6406 36.6849 14.5999 36.877 14.5186C37.0723 14.4372 37.2188 14.3232 37.3164 14.1768C37.4141 14.0303 37.4629 13.861 37.4629 13.6689ZM42.7021 8.39062V15.5H41.4863V8.39062H42.7021ZM44.9336 8.39062V9.36719H39.2744V8.39062H44.9336ZM48.1709 9.33789L46.0469 15.5H44.7627L47.4385 8.39062H48.2588L48.1709 9.33789ZM49.9482 15.5L47.8193 9.33789L47.7266 8.39062H48.5518L51.2373 15.5H49.9482ZM49.8457 12.8633V13.835H45.9785V12.8633H49.8457ZM52.0332 8.39062H54.5479C55.0882 8.39062 55.5488 8.47201 55.9297 8.63477C56.3105 8.79753 56.6019 9.03841 56.8037 9.35742C57.0088 9.67318 57.1113 10.0638 57.1113 10.5293C57.1113 10.8841 57.0462 11.1966 56.916 11.4668C56.7858 11.737 56.6019 11.9648 56.3643 12.1504C56.1266 12.3327 55.8434 12.4743 55.5146 12.5752L55.1436 12.7559H52.8828L52.873 11.7842H54.5674C54.8604 11.7842 55.1045 11.7321 55.2998 11.6279C55.4951 11.5238 55.6416 11.3822 55.7393 11.2031C55.8402 11.0208 55.8906 10.8158 55.8906 10.5879C55.8906 10.3405 55.8418 10.1257 55.7441 9.94336C55.6497 9.75781 55.5033 9.61621 55.3047 9.51855C55.1061 9.41764 54.8538 9.36719 54.5479 9.36719H53.2588V15.5H52.0332V8.39062ZM56.0908 15.5L54.4209 12.3066L55.7051 12.3018L57.3994 15.4365V15.5H56.0908ZM60.9248 8.39062V15.5H59.709V8.39062H60.9248ZM63.1562 8.39062V9.36719H57.4971V8.39062H63.1562Z" fill="white"/>
<rect x="32" y="17.5" width="32" height="8" rx="4" fill="white"/>
<path d="M42.1152 20.4639L40.9551 24H40.0205L41.6055 19.7344H42.2002L42.1152 20.4639ZM43.0791 24L41.916 20.4639L41.8223 19.7344H42.4229L44.0166 24H43.0791ZM43.0264 22.4121V23.1006H40.7734V22.4121H43.0264ZM46.7148 19.7344H47.5908V22.5527C47.5908 22.8809 47.5205 23.1572 47.3799 23.3818C47.2412 23.6064 47.0488 23.7754 46.8027 23.8887C46.5586 24.002 46.2773 24.0586 45.959 24.0586C45.6406 24.0586 45.3574 24.002 45.1094 23.8887C44.8633 23.7754 44.6699 23.6064 44.5293 23.3818C44.3906 23.1572 44.3213 22.8809 44.3213 22.5527V19.7344H45.2002V22.5527C45.2002 22.7441 45.2305 22.9004 45.291 23.0215C45.3516 23.1426 45.4385 23.2314 45.5518 23.2881C45.667 23.3447 45.8027 23.373 45.959 23.373C46.1191 23.373 46.2549 23.3447 46.3662 23.2881C46.4795 23.2314 46.5654 23.1426 46.624 23.0215C46.6846 22.9004 46.7148 22.7441 46.7148 22.5527V19.7344ZM50.2217 19.7344V24H49.3457V19.7344H50.2217ZM51.5342 19.7344V20.4229H48.0537V19.7344H51.5342ZM55.457 21.7676V21.9697C55.457 22.2939 55.4131 22.585 55.3252 22.8428C55.2373 23.1006 55.1133 23.3203 54.9531 23.502C54.793 23.6816 54.6016 23.8193 54.3789 23.915C54.1582 24.0107 53.9131 24.0586 53.6436 24.0586C53.376 24.0586 53.1309 24.0107 52.9082 23.915C52.6875 23.8193 52.4961 23.6816 52.334 23.502C52.1719 23.3203 52.0459 23.1006 51.9561 22.8428C51.8682 22.585 51.8242 22.2939 51.8242 21.9697V21.7676C51.8242 21.4414 51.8682 21.1504 51.9561 20.8945C52.0439 20.6367 52.168 20.417 52.3281 20.2354C52.4902 20.0537 52.6816 19.915 52.9023 19.8193C53.125 19.7236 53.3701 19.6758 53.6377 19.6758C53.9072 19.6758 54.1523 19.7236 54.373 19.8193C54.5957 19.915 54.7871 20.0537 54.9473 20.2354C55.1094 20.417 55.2344 20.6367 55.3223 20.8945C55.4121 21.1504 55.457 21.4414 55.457 21.7676ZM54.5693 21.9697V21.7617C54.5693 21.5352 54.5488 21.3359 54.5078 21.1641C54.4668 20.9922 54.4062 20.8477 54.3262 20.7305C54.2461 20.6133 54.1484 20.5254 54.0332 20.4668C53.918 20.4062 53.7861 20.376 53.6377 20.376C53.4893 20.376 53.3574 20.4062 53.2422 20.4668C53.1289 20.5254 53.0322 20.6133 52.9521 20.7305C52.874 20.8477 52.8145 20.9922 52.7734 21.1641C52.7324 21.3359 52.7119 21.5352 52.7119 21.7617V21.9697C52.7119 22.1943 52.7324 22.3936 52.7734 22.5674C52.8145 22.7393 52.875 22.8848 52.9551 23.0039C53.0352 23.1211 53.1328 23.21 53.248 23.2705C53.3633 23.3311 53.4951 23.3613 53.6436 23.3613C53.792 23.3613 53.9238 23.3311 54.0391 23.2705C54.1543 23.21 54.251 23.1211 54.3291 23.0039C54.4072 22.8848 54.4668 22.7393 54.5078 22.5674C54.5488 22.3936 54.5693 22.1943 54.5693 21.9697Z" fill="#8CCB46"/>
<defs>
<clipPath id="clip0_1924_6793">
<rect width="24" height="24" fill="white" transform="translate(4 4)"/>
</clipPath>
</defs>
</svg>
