<svg width="56" height="56" viewBox="0 0 56 56" fill="none" xmlns="http://www.w3.org/2000/svg">
<path fill-rule="evenodd" clip-rule="evenodd" d="M18.6665 20.9993C18.6665 11.9787 25.9791 4.66602 34.9998 4.66602C44.0204 4.66602 51.3331 11.9787 51.3331 20.9993C51.3331 30.02 44.0204 37.3327 34.9998 37.3327C34.2569 37.3327 33.5245 37.2829 32.8058 37.1863C32.2808 37.1157 31.9523 37.072 31.7128 37.0488C31.6701 37.0447 31.635 37.0418 31.6068 37.0397C31.5998 37.046 31.5921 37.0529 31.5838 37.0605C31.459 37.1741 31.2948 37.3375 31.001 37.6313L27.3164 41.3159C26.8788 41.7535 26.2853 41.9993 25.6665 41.9993H23.3331V44.3327C23.3331 45.6213 22.2885 46.666 20.9998 46.666H18.6665V48.9993C18.6665 50.288 17.6218 51.3327 16.3331 51.3327L10.6587 51.3327C10.0698 51.3328 9.49628 51.3328 9.01059 51.2931C8.47721 51.2496 7.84783 51.1467 7.21451 50.824C6.33642 50.3766 5.62251 49.6627 5.1751 48.7846C4.8524 48.1513 4.74958 47.5219 4.706 46.9885C4.66632 46.5028 4.66639 45.9293 4.66646 45.3404L4.66646 41.2124C4.66646 41.1737 4.66636 41.134 4.66625 41.0933C4.66506 40.6502 4.66357 40.0922 4.7954 39.5431C4.90972 39.0669 5.09827 38.6117 5.35414 38.1942C5.6492 37.7127 6.04482 37.3192 6.35899 37.0067C6.38784 36.978 6.41601 36.95 6.44335 36.9226L18.3679 24.9981C18.6617 24.7043 18.825 24.5401 18.9387 24.4153C18.9462 24.407 18.9531 24.3994 18.9594 24.3923C18.9573 24.3641 18.9544 24.329 18.9503 24.2863C18.9272 24.0469 18.8834 23.7183 18.8128 23.1933C18.7162 22.4747 18.6665 21.7422 18.6665 20.9993ZM18.6665 41.9993V39.666C18.6665 38.3773 19.7111 37.3327 20.9998 37.3327H24.7L27.7012 34.3315C27.741 34.2916 27.7818 34.2506 27.8234 34.2087C28.2417 33.7877 28.7504 33.2758 29.3303 32.9516C29.8749 32.6472 30.3287 32.4939 30.9464 32.4055C31.3976 32.341 31.837 32.3725 32.1613 32.4038C32.4985 32.4363 32.9152 32.4924 33.3862 32.5557L33.4276 32.5613C33.9407 32.6302 34.4655 32.666 34.9998 32.666C41.4431 32.666 46.6665 27.4427 46.6665 20.9993C46.6665 14.556 41.4431 9.33268 34.9998 9.33268C28.5565 9.33268 23.3331 14.556 23.3331 20.9993C23.3331 21.5337 23.3689 22.0584 23.4379 22.5715L23.4435 22.6131C23.5068 23.084 23.5628 23.5006 23.5954 23.8379C23.6267 24.1621 23.6582 24.6015 23.5936 25.0528C23.5053 25.6704 23.3519 26.1243 23.0475 26.6689C22.7234 27.2487 22.2114 27.7575 21.7904 28.1757C21.7485 28.2174 21.7075 28.2581 21.6677 28.298L9.74318 40.2225C9.52704 40.4386 9.41956 40.5469 9.34478 40.6288C9.34282 40.631 9.34095 40.633 9.33915 40.635C9.33902 40.6377 9.33888 40.6405 9.33875 40.6434C9.33368 40.7542 9.33313 40.9067 9.33313 41.2124V45.266C9.33313 45.9579 9.33494 46.3365 9.35717 46.6085C9.35805 46.6194 9.35895 46.6296 9.35984 46.6393C9.36952 46.6402 9.37978 46.6411 9.39061 46.642C9.66264 46.6642 10.0412 46.666 10.7331 46.666H13.9998V44.3327C13.9998 43.044 15.0445 41.9993 16.3331 41.9993H18.6665ZM32.6665 16.3327C32.6665 15.044 33.7111 13.9993 34.9998 13.9993C36.7876 13.9993 38.5832 14.6832 39.9495 16.0496C41.3159 17.4159 41.9997 19.2114 41.9998 20.9991C41.9998 22.2878 40.9552 23.3325 39.6665 23.3325C38.3779 23.3326 37.3332 22.2879 37.3331 20.9993C37.3331 20.3985 37.1058 19.8055 36.6497 19.3494C36.1936 18.8934 35.6006 18.666 34.9998 18.666C33.7111 18.666 32.6665 17.6213 32.6665 16.3327Z" fill="#0098FF"/>
</svg>
