<svg width="20" height="20" viewBox="0 0 20 20" fill="none" xmlns="http://www.w3.org/2000/svg">
<path fill-rule="evenodd" clip-rule="evenodd" d="M6.66602 0.833984C7.12625 0.833984 7.49935 1.20708 7.49935 1.66732V2.50065H12.4993V1.66732C12.4993 1.20708 12.8724 0.833984 13.3327 0.833984C13.7929 0.833984 14.166 1.20708 14.166 1.66732V2.50201C14.5622 2.50473 14.9085 2.51291 15.2092 2.53748C15.6776 2.57575 16.1082 2.65789 16.5127 2.86396C17.1399 3.18354 17.6498 3.69348 17.9694 4.32068C18.1754 4.72513 18.2576 5.15571 18.2959 5.62413C18.3327 6.07512 18.3327 6.62875 18.3327 7.29955V9.58398C18.3327 10.0442 17.9596 10.4173 17.4993 10.4173C17.0391 10.4173 16.666 10.0442 16.666 9.58398V9.16732H3.33268V14.334C3.33268 15.0478 3.33333 15.533 3.36398 15.9081C3.39383 16.2735 3.44793 16.4603 3.51434 16.5906C3.67413 16.9042 3.92909 17.1592 4.2427 17.319C4.37303 17.3854 4.55987 17.4395 4.92521 17.4694C5.30029 17.5 5.78553 17.5006 6.49935 17.5006H10.416C10.8763 17.5006 11.2493 17.8737 11.2493 18.334C11.2493 18.7942 10.8763 19.1673 10.416 19.1673H6.46491C5.79411 19.1673 5.24049 19.1673 4.78949 19.1305C4.32108 19.0922 3.89049 19.0101 3.48605 18.804C2.85884 18.4844 2.34891 17.9745 2.02933 17.3473C1.82325 16.9428 1.74112 16.5123 1.70284 16.0438C1.666 15.5928 1.66601 15.0392 1.66602 14.3684V7.29957C1.66601 6.62876 1.666 6.07512 1.70284 5.62413C1.74112 5.15571 1.82325 4.72513 2.02933 4.32068C2.34891 3.69348 2.85884 3.18354 3.48605 2.86396C3.89049 2.65789 4.32108 2.57575 4.78949 2.53748C5.09017 2.51291 5.43646 2.50473 5.83268 2.50201V1.66732C5.83268 1.20708 6.20578 0.833984 6.66602 0.833984ZM5.83268 4.16879C5.46141 4.17139 5.16987 4.17862 4.92521 4.19861C4.55987 4.22846 4.37303 4.28257 4.2427 4.34897C3.9291 4.50876 3.67413 4.76373 3.51434 5.07733C3.44793 5.20767 3.39383 5.3945 3.36398 5.75985C3.33333 6.13492 3.33268 6.62017 3.33268 7.33398V7.50065H16.666V7.33398C16.666 6.62017 16.6654 6.13492 16.6347 5.75985C16.6049 5.3945 16.5508 5.20767 16.4844 5.07733C16.3246 4.76373 16.0696 4.50876 15.756 4.34897C15.6257 4.28257 15.4388 4.22846 15.0735 4.19861C14.8288 4.17862 14.5373 4.17139 14.166 4.16879V5.00065C14.166 5.46089 13.7929 5.83398 13.3327 5.83398C12.8724 5.83398 12.4993 5.46089 12.4993 5.00065V4.16732H7.49935V5.00065C7.49935 5.46089 7.12625 5.83398 6.66602 5.83398C6.20578 5.83398 5.83268 5.46089 5.83268 5.00065V4.16879ZM14.9993 11.6673C15.4596 11.6673 15.8327 12.0404 15.8327 12.5007V14.1673H17.4993C17.9596 14.1673 18.3327 14.5404 18.3327 15.0006C18.3327 15.4609 17.9596 15.834 17.4993 15.834H15.8327V17.5006C15.8327 17.9609 15.4596 18.334 14.9993 18.334C14.5391 18.334 14.166 17.9609 14.166 17.5006V15.834H12.4993C12.0391 15.834 11.666 15.4609 11.666 15.0006C11.666 14.5404 12.0391 14.1673 12.4993 14.1673H14.166V12.5007C14.166 12.0404 14.5391 11.6673 14.9993 11.6673Z" fill="white"/>
</svg>
