<svg width="20" height="20" viewBox="0 0 18 18" fill="none" xmlns="http://www.w3.org/2000/svg">
<g clip-path="url(#clip0_3312_9679)">
<path fill-rule="evenodd" clip-rule="evenodd" d="M7.99935 2.0013C4.68564 2.0013 1.99935 4.68759 1.99935 8.0013C1.99935 11.315 4.68564 14.0013 7.99935 14.0013C11.3131 14.0013 13.9993 11.315 13.9993 8.0013C13.9993 4.68759 11.3131 2.0013 7.99935 2.0013ZM0.666016 8.0013C0.666016 3.95121 3.94926 0.667969 7.99935 0.667969C12.0494 0.667969 15.3327 3.95121 15.3327 8.0013C15.3327 12.0514 12.0494 15.3346 7.99935 15.3346C3.94926 15.3346 0.666016 12.0514 0.666016 8.0013ZM5.52794 5.5299C5.78829 5.26955 6.2104 5.26955 6.47075 5.5299L7.99935 7.05849L9.52794 5.5299C9.78829 5.26955 10.2104 5.26955 10.4708 5.5299C10.7311 5.79025 10.7311 6.21236 10.4708 6.47271L8.94216 8.0013L10.4708 9.5299C10.7311 9.79025 10.7311 10.2124 10.4708 10.4727C10.2104 10.7331 9.78829 10.7331 9.52794 10.4727L7.99935 8.94411L6.47075 10.4727C6.2104 10.7331 5.78829 10.7331 5.52794 10.4727C5.26759 10.2124 5.26759 9.79025 5.52794 9.5299L7.05654 8.0013L5.52794 6.47271C5.26759 6.21236 5.26759 5.79025 5.52794 5.5299Z" fill="#FF3838"/>
</g>
<defs>
<clipPath id="clip0_3312_9679">
<rect width="20" height="20" fill="white"/>
</clipPath>
</defs>
</svg>
