<svg width="16" height="16" viewBox="0 0 16 16" fill="none" xmlns="http://www.w3.org/2000/svg">
<path fill-rule="evenodd" clip-rule="evenodd" d="M8.00008 1.99935C4.68637 1.99935 2.00008 4.68564 2.00008 7.99935C2.00008 11.3131 4.68637 13.9993 8.00008 13.9993C11.3138 13.9993 14.0001 11.3131 14.0001 7.99935C14.0001 4.68564 11.3138 1.99935 8.00008 1.99935ZM0.666748 7.99935C0.666748 3.94926 3.94999 0.666016 8.00008 0.666016C12.0502 0.666016 15.3334 3.94926 15.3334 7.99935C15.3334 12.0494 12.0502 15.3327 8.00008 15.3327C3.94999 15.3327 0.666748 12.0494 0.666748 7.99935ZM6.37882 4.66601C6.3859 4.66601 6.39299 4.66602 6.40008 4.66602L9.62135 4.66601C9.7896 4.66599 9.95346 4.66597 10.0922 4.67731C10.2446 4.68976 10.4245 4.71914 10.6054 4.81134C10.8563 4.93917 11.0603 5.14315 11.1881 5.39403C11.2803 5.57498 11.3097 5.7548 11.3221 5.9072C11.3335 6.04597 11.3334 6.20984 11.3334 6.37809V9.6206C11.3334 9.78886 11.3335 9.95273 11.3221 10.0915C11.3097 10.2439 11.2803 10.4237 11.1881 10.6047C11.0603 10.8556 10.8563 11.0595 10.6054 11.1874C10.4245 11.2796 10.2446 11.3089 10.0922 11.3214C9.95346 11.3327 9.78959 11.3327 9.62133 11.3327H6.37883C6.21057 11.3327 6.0467 11.3327 5.90793 11.3214C5.75553 11.3089 5.57571 11.2796 5.39476 11.1874C5.14388 11.0595 4.9399 10.8556 4.81207 10.6047C4.71987 10.4237 4.6905 10.2439 4.67804 10.0915C4.66671 9.95273 4.66673 9.78887 4.66675 9.62061L4.66675 6.39935C4.66675 6.39225 4.66675 6.38516 4.66675 6.37808C4.66673 6.20983 4.66671 6.04597 4.67804 5.9072C4.6905 5.7548 4.71987 5.57498 4.81207 5.39403C4.9399 5.14315 5.14388 4.93917 5.39476 4.81134C5.57571 4.71914 5.75553 4.68976 5.90793 4.67731C6.0467 4.66597 6.21056 4.66599 6.37882 4.66601ZM6.00771 6.00698C6.00746 6.00975 6.0072 6.01268 6.00695 6.01577C6.0006 6.09349 6.00008 6.20166 6.00008 6.39935V9.59935C6.00008 9.79703 6.0006 9.9052 6.00695 9.98293C6.0072 9.98602 6.00746 9.98895 6.00771 9.99172C6.01048 9.99197 6.01341 9.99223 6.0165 9.99248C6.09423 9.99883 6.2024 9.99935 6.40008 9.99935H9.60008C9.79777 9.99935 9.90593 9.99883 9.98366 9.99248C9.98675 9.99223 9.98968 9.99197 9.99245 9.99172C9.9927 9.98895 9.99296 9.98602 9.99321 9.98293C9.99956 9.9052 10.0001 9.79703 10.0001 9.59935V6.39935C10.0001 6.20166 9.99956 6.09349 9.99321 6.01577C9.99296 6.01268 9.9927 6.00975 9.99245 6.00698C9.98968 6.00673 9.98675 6.00647 9.98366 6.00622C9.90593 5.99987 9.79777 5.99935 9.60008 5.99935H6.40008C6.2024 5.99935 6.09423 5.99987 6.0165 6.00622C6.01341 6.00647 6.01048 6.00673 6.00771 6.00698Z" fill="#878787"/>
</svg>
