<svg width="46" height="46" viewBox="0 0 46 46" fill="none" xmlns="http://www.w3.org/2000/svg">
<rect x="3" y="3" width="40" height="40" rx="20" fill="#F2F4F7"/>
<rect x="3" y="3" width="40" height="40" rx="20" stroke="#F9FAFB" stroke-width="6"/>
<path fill-rule="evenodd" clip-rule="evenodd" d="M17.3731 18.9519C18.0514 16.4812 20.3124 14.666 22.9987 14.666C25.685 14.666 27.946 16.4812 28.6243 18.9519C30.6538 19.424 32.1654 21.2431 32.1654 23.416C32.1654 25.0059 31.3551 26.4062 30.1289 27.227C29.7465 27.4831 29.2289 27.3805 28.9729 26.9981C28.7168 26.6156 28.8194 26.098 29.2018 25.842C29.9856 25.3174 30.4987 24.4265 30.4987 23.416C30.4987 21.8975 29.3376 20.6492 27.8554 20.5119C27.4778 20.477 27.1715 20.1915 27.1099 19.8173C26.785 17.8407 25.0672 16.3327 22.9987 16.3327C20.9302 16.3327 19.2124 17.8407 18.8874 19.8173C18.8259 20.1915 18.5196 20.477 18.142 20.5119C16.6598 20.6492 15.4987 21.8975 15.4987 23.416C15.4987 24.4265 16.0118 25.3174 16.7956 25.842C17.178 26.098 17.2805 26.6156 17.0245 26.9981C16.7685 27.3805 16.2509 27.4831 15.8685 27.227C14.6423 26.4062 13.832 25.0059 13.832 23.416C13.832 21.2431 15.3436 19.424 17.3731 18.9519ZM22.1654 25.0112L20.2546 26.9219C19.9292 27.2474 19.4015 27.2474 19.0761 26.9219C18.7507 26.5965 18.7507 26.0689 19.0761 25.7434L22.4094 22.4101C22.7349 22.0847 23.2625 22.0847 23.588 22.4101L26.9213 25.7434C27.2467 26.0689 27.2467 26.5965 26.9213 26.9219C26.5958 27.2474 26.0682 27.2474 25.7428 26.9219L23.832 25.0112V30.4993C23.832 30.9596 23.4589 31.3327 22.9987 31.3327C22.5385 31.3327 22.1654 30.9596 22.1654 30.4993V25.0112Z" fill="#141414"/>
</svg>
