<svg width="15" height="15" viewBox="0 0 15 15" fill="none" xmlns="http://www.w3.org/2000/svg">
<path fill-rule="evenodd" clip-rule="evenodd" d="M11.6654 0.666016C12.0336 0.666016 12.332 0.964492 12.332 1.33268V2.66602H13.6654C14.0336 2.66602 14.332 2.96449 14.332 3.33268C14.332 3.70087 14.0336 3.99935 13.6654 3.99935H12.332V5.33268C12.332 5.70087 12.0336 5.99935 11.6654 5.99935C11.2972 5.99935 10.9987 5.70087 10.9987 5.33268V3.99935H9.66537C9.29718 3.99935 8.9987 3.70087 8.9987 3.33268C8.9987 2.96449 9.29718 2.66602 9.66537 2.66602H10.9987V1.33268C10.9987 0.964492 11.2972 0.666016 11.6654 0.666016ZM4.17117 1.33268H7.33203C7.70022 1.33268 7.9987 1.63116 7.9987 1.99935C7.9987 2.36754 7.70022 2.66602 7.33203 2.66602H4.1987C3.62765 2.66602 3.23945 2.66653 2.93939 2.69105C2.64711 2.71493 2.49764 2.75821 2.39338 2.81134C2.1425 2.93917 1.93852 3.14315 1.81069 3.39403C1.75756 3.49829 1.71428 3.64776 1.6904 3.94004C1.66588 4.2401 1.66537 4.6283 1.66537 5.19935V10.7993C1.66537 11.3704 1.66588 11.7586 1.6904 12.0587C1.71428 12.3509 1.75756 12.5004 1.81069 12.6047C1.93017 12.8392 2.11617 13.0327 2.34481 13.1613C2.40241 13.0711 2.46404 13.0028 2.5046 12.9589C2.60574 12.8495 2.74332 12.7244 2.88564 12.5951L8.55768 7.43869C8.66498 7.34112 8.77109 7.24463 8.86823 7.16892C8.97621 7.08476 9.11008 6.99597 9.28111 6.94042C9.52156 6.86232 9.77924 6.85419 10.0241 6.91698C10.1983 6.96164 10.3375 7.04181 10.4506 7.119C10.5523 7.18844 10.6643 7.27804 10.7775 7.36866L12.6572 8.87241C12.6717 8.88402 12.6861 8.89552 12.7004 8.90692C12.9099 9.07421 13.0943 9.22143 13.2386 9.40533C13.4183 9.63429 13.5459 9.89972 13.6124 10.1831C13.6659 10.4107 13.6656 10.6466 13.6654 10.9147C13.6654 10.933 13.6654 10.9514 13.6654 10.97V10.9935C13.6654 11.1045 13.6654 11.2107 13.6651 11.3124C13.6653 11.3192 13.6654 11.3259 13.6654 11.3327C13.6654 11.3637 13.6654 11.3943 13.6654 11.4244C13.6657 11.9547 13.6659 12.3484 13.5745 12.6895C13.4666 13.0921 13.2684 13.4562 13.0024 13.759C12.9071 13.8675 12.8032 13.9681 12.6916 14.0598C12.4026 14.2973 12.0623 14.4751 11.6889 14.5752C11.3478 14.6665 10.954 14.6663 10.4237 14.666C10.3936 14.666 10.3631 14.666 10.332 14.666H10.0334C10.0199 14.666 10.0065 14.666 9.9929 14.666H4.17115C4.15507 14.666 4.13907 14.666 4.12316 14.666L3.68629 14.666C3.51575 14.666 3.35024 14.6661 3.21143 14.657C3.07551 14.6527 2.94877 14.6462 2.83081 14.6366C2.45608 14.6059 2.11161 14.5402 1.78806 14.3754C1.28629 14.1197 0.878344 13.7118 0.622681 13.21C0.457821 12.8864 0.392111 12.542 0.361494 12.1672C0.332016 11.8064 0.332023 11.3635 0.332032 10.8269V5.17182C0.332023 4.63517 0.332016 4.19226 0.361494 3.83146C0.392111 3.45673 0.457821 3.11226 0.622681 2.78871C0.878343 2.28694 1.28629 1.87899 1.78806 1.62333C2.11161 1.45847 2.45608 1.39276 2.83081 1.36214C3.19161 1.33267 3.63452 1.33267 4.17117 1.33268ZM12.0587 12.8082C12.125 12.7213 12.1809 12.6259 12.2246 12.5238C12.2636 12.4324 12.2958 12.3017 12.3135 12.0498C12.3316 11.7916 12.332 11.4591 12.332 10.97C12.332 10.6156 12.3279 10.5454 12.3144 10.4878C12.2922 10.3934 12.2497 10.3049 12.1898 10.2286C12.1533 10.1821 12.1011 10.135 11.8243 9.91357L9.95945 8.4217C9.82545 8.3145 9.75357 8.25757 9.69885 8.22021C9.69689 8.21888 9.69502 8.21761 9.69325 8.21642C9.69155 8.21772 9.68976 8.2191 9.68789 8.22056C9.63563 8.26129 9.56749 8.32264 9.44051 8.43807L4.05647 13.3327C4.10258 13.3327 4.14998 13.3327 4.1987 13.3327H9.96935C10.4585 13.3327 10.7909 13.3323 11.0491 13.3142C11.3011 13.2965 11.4318 13.2643 11.5231 13.2252C11.6269 13.1808 11.7238 13.1238 11.8118 13.0561C11.9046 12.9847 11.9877 12.9013 12.0587 12.8082ZM4.66537 4.99935C4.29718 4.99935 3.9987 5.29783 3.9987 5.66602C3.9987 6.03421 4.29718 6.33268 4.66537 6.33268C5.03356 6.33268 5.33203 6.03421 5.33203 5.66602C5.33203 5.29783 5.03356 4.99935 4.66537 4.99935ZM2.66537 5.66602C2.66537 4.56145 3.5608 3.66602 4.66537 3.66602C5.76994 3.66602 6.66537 4.56145 6.66537 5.66602C6.66537 6.77059 5.76994 7.66602 4.66537 7.66602C3.5608 7.66602 2.66537 6.77059 2.66537 5.66602Z" fill="#878787"/>
</svg>
