<svg width="68" height="32" viewBox="0 0 68 32" fill="none" xmlns="http://www.w3.org/2000/svg">
<rect width="68" height="32" rx="8" fill="#8CCB46"/>
<g clip-path="url(#clip0_1924_6784)">
<path d="M16 26C21.5228 26 26 21.5228 26 16C26 10.4772 21.5228 6 16 6C10.4772 6 6 10.4772 6 16C6 21.5228 10.4772 26 16 26Z" stroke="white" stroke-width="1.5" stroke-linecap="round" stroke-linejoin="round"/>
<path d="M13.5 12.9653C13.5 12.488 13.5 12.2494 13.5997 12.1162C13.6867 12.0001 13.8197 11.9274 13.9644 11.9171C14.1304 11.9052 14.3311 12.0343 14.7326 12.2924L19.4532 15.3271C19.8016 15.551 19.9758 15.663 20.0359 15.8054C20.0885 15.9298 20.0885 16.0702 20.0359 16.1946C19.9758 16.337 19.8016 16.449 19.4532 16.6729L14.7326 19.7076C14.3311 19.9657 14.1304 20.0948 13.9644 20.0829C13.8197 20.0726 13.6867 19.9999 13.5997 19.8838C13.5 19.7506 13.5 19.512 13.5 19.0347V12.9653Z" stroke="white" stroke-width="1.5" stroke-linecap="round" stroke-linejoin="round"/>
</g>
<path d="M37.4629 13.6689C37.4629 13.5225 37.4401 13.3923 37.3945 13.2783C37.3522 13.1644 37.2757 13.0602 37.165 12.9658C37.0544 12.8714 36.8981 12.7803 36.6963 12.6924C36.4977 12.6012 36.2438 12.5085 35.9346 12.4141C35.596 12.3099 35.2835 12.1943 34.9971 12.0674C34.7139 11.9372 34.4665 11.7874 34.2549 11.6182C34.0433 11.4456 33.8789 11.2487 33.7617 11.0273C33.6445 10.8027 33.5859 10.5439 33.5859 10.251C33.5859 9.96126 33.6462 9.69759 33.7666 9.45996C33.8903 9.22233 34.0645 9.01725 34.2891 8.84473C34.5169 8.66895 34.7855 8.53385 35.0947 8.43945C35.404 8.3418 35.7458 8.29297 36.1201 8.29297C36.6475 8.29297 37.1016 8.39062 37.4824 8.58594C37.8665 8.78125 38.1611 9.04329 38.3662 9.37207C38.5745 9.70085 38.6787 10.0638 38.6787 10.4609H37.4629C37.4629 10.2266 37.4124 10.0199 37.3115 9.84082C37.2139 9.65853 37.0641 9.5153 36.8623 9.41113C36.6637 9.30697 36.4115 9.25488 36.1055 9.25488C35.8158 9.25488 35.5749 9.29883 35.3828 9.38672C35.1908 9.47461 35.0475 9.59342 34.9531 9.74316C34.8587 9.8929 34.8115 10.0622 34.8115 10.251C34.8115 10.3844 34.8424 10.5065 34.9043 10.6172C34.9661 10.7246 35.0605 10.8255 35.1875 10.9199C35.3145 11.0111 35.474 11.0973 35.666 11.1787C35.8581 11.2601 36.0843 11.3382 36.3447 11.4131C36.7386 11.5303 37.082 11.6605 37.375 11.8037C37.668 11.9437 37.9121 12.1032 38.1074 12.2822C38.3027 12.4613 38.4492 12.6647 38.5469 12.8926C38.6445 13.1172 38.6934 13.3727 38.6934 13.6592C38.6934 13.9587 38.6331 14.2288 38.5127 14.4697C38.3923 14.7074 38.2197 14.9108 37.9951 15.0801C37.7738 15.2461 37.5068 15.3747 37.1943 15.4658C36.8851 15.5537 36.54 15.5977 36.1592 15.5977C35.8174 15.5977 35.4805 15.5521 35.1484 15.4609C34.8197 15.3698 34.5202 15.2314 34.25 15.0459C33.9798 14.8571 33.765 14.6227 33.6055 14.3428C33.446 14.0596 33.3662 13.7292 33.3662 13.3516H34.5918C34.5918 13.5827 34.6309 13.7796 34.709 13.9424C34.7904 14.1051 34.9027 14.2386 35.0459 14.3428C35.1891 14.4437 35.3551 14.5186 35.5439 14.5674C35.736 14.6162 35.9411 14.6406 36.1592 14.6406C36.4456 14.6406 36.6849 14.5999 36.877 14.5186C37.0723 14.4372 37.2188 14.3232 37.3164 14.1768C37.4141 14.0303 37.4629 13.861 37.4629 13.6689ZM42.7021 8.39062V15.5H41.4863V8.39062H42.7021ZM44.9336 8.39062V9.36719H39.2744V8.39062H44.9336ZM48.1709 9.33789L46.0469 15.5H44.7627L47.4385 8.39062H48.2588L48.1709 9.33789ZM49.9482 15.5L47.8193 9.33789L47.7266 8.39062H48.5518L51.2373 15.5H49.9482ZM49.8457 12.8633V13.835H45.9785V12.8633H49.8457ZM52.0332 8.39062H54.5479C55.0882 8.39062 55.5488 8.47201 55.9297 8.63477C56.3105 8.79753 56.6019 9.03841 56.8037 9.35742C57.0088 9.67318 57.1113 10.0638 57.1113 10.5293C57.1113 10.8841 57.0462 11.1966 56.916 11.4668C56.7858 11.737 56.6019 11.9648 56.3643 12.1504C56.1266 12.3327 55.8434 12.4743 55.5146 12.5752L55.1436 12.7559H52.8828L52.873 11.7842H54.5674C54.8604 11.7842 55.1045 11.7321 55.2998 11.6279C55.4951 11.5238 55.6416 11.3822 55.7393 11.2031C55.8402 11.0208 55.8906 10.8158 55.8906 10.5879C55.8906 10.3405 55.8418 10.1257 55.7441 9.94336C55.6497 9.75781 55.5033 9.61621 55.3047 9.51855C55.1061 9.41764 54.8538 9.36719 54.5479 9.36719H53.2588V15.5H52.0332V8.39062ZM56.0908 15.5L54.4209 12.3066L55.7051 12.3018L57.3994 15.4365V15.5H56.0908ZM60.9248 8.39062V15.5H59.709V8.39062H60.9248ZM63.1562 8.39062V9.36719H57.4971V8.39062H63.1562Z" fill="white"/>
<rect x="32" y="17.5" width="32" height="8" rx="4" fill="white"/>
<path d="M36.2822 19.7344H37.0264L38.1221 22.8662L39.2178 19.7344H39.9619L38.4209 24H37.8232L36.2822 19.7344ZM35.8809 19.7344H36.6221L36.7568 22.7871V24H35.8809V19.7344ZM39.6221 19.7344H40.3662V24H39.4873V22.7871L39.6221 19.7344ZM42.9238 20.4639L41.7637 24H40.8291L42.4141 19.7344H43.0088L42.9238 20.4639ZM43.8877 24L42.7246 20.4639L42.6309 19.7344H43.2314L44.8252 24H43.8877ZM43.835 22.4121V23.1006H41.582V22.4121H43.835ZM48.6924 19.7344V24H47.8135L46.0996 21.1406V24H45.2207V19.7344H46.0996L47.8164 22.5967V19.7344H48.6924ZM51.8125 19.7344H52.6885V22.5527C52.6885 22.8809 52.6182 23.1572 52.4775 23.3818C52.3389 23.6064 52.1465 23.7754 51.9004 23.8887C51.6562 24.002 51.375 24.0586 51.0566 24.0586C50.7383 24.0586 50.4551 24.002 50.207 23.8887C49.9609 23.7754 49.7676 23.6064 49.627 23.3818C49.4883 23.1572 49.4189 22.8809 49.4189 22.5527V19.7344H50.2979V22.5527C50.2979 22.7441 50.3281 22.9004 50.3887 23.0215C50.4492 23.1426 50.5361 23.2314 50.6494 23.2881C50.7646 23.3447 50.9004 23.373 51.0566 23.373C51.2168 23.373 51.3525 23.3447 51.4639 23.2881C51.5771 23.2314 51.6631 23.1426 51.7217 23.0215C51.7822 22.9004 51.8125 22.7441 51.8125 22.5527V19.7344ZM55.082 20.4639L53.9219 24H52.9873L54.5723 19.7344H55.167L55.082 20.4639ZM56.0459 24L54.8828 20.4639L54.7891 19.7344H55.3896L56.9834 24H56.0459ZM55.9932 22.4121V23.1006H53.7402V22.4121H55.9932ZM60.1211 23.3145V24H57.9736V23.3145H60.1211ZM58.2578 19.7344V24H57.3789V19.7344H58.2578Z" fill="#8CCB46"/>
<defs>
<clipPath id="clip0_1924_6784">
<rect width="24" height="24" fill="white" transform="translate(4 4)"/>
</clipPath>
</defs>
</svg>

