<svg width="368" height="48" viewBox="0 0 368 48" fill="none" xmlns="http://www.w3.org/2000/svg">
<path d="M24 -1.04907e-06C37.2548 -4.69686e-07 48 10.7452 48 24C48 37.2548 37.2548 48 24 48C10.7452 48 2.18624e-06 37.2548 2.76562e-06 24C3.34501e-06 10.7452 10.7452 -1.62846e-06 24 -1.04907e-06Z" fill="white"/>
<g clip-path="url(#clip0_1507_44034)">
<path d="M31.8427 10.7109C31.8984 12.6398 31.0401 13.8872 29.2899 14.8517C27.1496 16.0362 24.9424 17.2417 22.7797 18.4158C20.3942 19.7052 19.7922 21.2881 21.5089 23.3742C20.9515 24.5273 19.0119 24.3072 17.9417 24.1499C16.7378 23.4581 16.3922 21.959 16.4591 20.7325C16.5594 18.9819 17.5404 17.3256 18.8892 16.141C23.2033 13.0801 27.5063 10.04 31.8315 7C31.8315 8.23698 31.8315 9.47395 31.8427 10.7109Z" fill="#1D9BF0"/>
<path d="M21.521 23.3743C21.521 23.3743 21.2646 23.1751 20.8298 22.8187C18.7898 21.11 16.1367 18.4683 18.8902 16.1411C17.9761 16.791 17.218 17.5668 16.5715 18.3949C14.6207 20.8479 14.9997 24.7999 15.0889 27.7456C15.1335 29.1608 16.9171 29.4753 18.043 28.9092C19.2915 28.2803 20.618 27.5884 21.8331 26.9699C23.6836 26.0474 22.7807 24.3177 21.521 23.3743Z" fill="#1D9BF0"/>
<path d="M15.1275 36.2786C15.0718 34.3498 15.9302 33.1023 17.6803 32.1379C19.8207 30.9533 22.0279 29.7478 24.1905 28.5737C26.5761 27.2843 27.178 25.7014 25.4613 23.6154C26.0187 22.4622 27.9584 22.6824 29.0285 22.8396C30.2325 23.5315 30.578 25.0305 30.5112 26.257C30.4108 27.9972 29.4298 29.664 28.081 30.8485C23.778 33.899 19.4639 36.9495 15.1387 39.9896C15.1387 38.7526 15.1387 37.5156 15.1275 36.2786Z" fill="#1D9BF0"/>
<path d="M25.4505 23.6259C25.4505 23.6259 25.7069 23.8251 26.1416 24.1815C28.1816 25.8902 30.8347 28.5214 28.0813 30.8591C28.9954 30.2091 29.7534 29.4334 30.4 28.6053C32.3508 26.1523 31.9718 22.2002 31.8826 19.2441C31.838 17.8289 30.0544 17.5144 28.9285 18.0805C27.68 18.7094 26.3534 19.4013 25.1495 20.0198C23.2878 20.9528 24.1908 22.672 25.4505 23.6259Z" fill="#1D9BF0"/>
</g>
<path d="M61.707 15.848V28.76H69.243V32H61.299C59.067 32 58.203 30.848 58.203 29V15.848H61.707ZM77.1442 32.312C73.4482 32.312 70.6642 29.744 70.6642 25.952C70.6642 22.52 73.1602 19.688 76.8322 19.688C80.6002 19.688 82.7842 22.472 82.7842 25.712V26.72H73.9522C74.1922 28.304 75.4162 29.36 77.1202 29.36C78.4162 29.36 79.4962 28.736 80.0482 27.632L82.6642 28.952C81.6322 31.088 79.6642 32.312 77.1442 32.312ZM74.0962 24.824H79.4002C79.2562 23.6 78.2482 22.664 76.8082 22.664C75.3202 22.664 74.3362 23.624 74.0962 24.824ZM91.3998 32.336C87.9678 32.336 86.2638 30.272 86.2638 27.296V23H84.0798V20.12H86.2638V17.096H89.6718V20.12H93.8718V23H89.6718V27.2C89.6718 28.52 90.4638 29.288 91.7118 29.288C92.4078 29.288 93.2958 29.072 93.8718 28.712V31.76C93.2718 32.144 92.2398 32.336 91.3998 32.336Z" fill="white"/>
<path d="M100.975 32.336C98.5029 32.336 96.7749 31.424 95.7909 29.648L98.3109 28.232C98.8149 29.192 99.6069 29.6 100.807 29.6C101.911 29.6 102.607 29.168 102.607 28.472C102.607 26.552 96.0789 28.208 96.0789 23.624C96.0789 21.488 97.9509 19.808 100.879 19.808C103.423 19.808 104.959 21.008 105.679 22.376L103.159 23.792C102.775 22.928 101.911 22.52 100.951 22.52C100.111 22.52 99.4869 22.928 99.4869 23.552C99.4869 25.472 106.015 23.936 106.015 28.4C106.015 30.8 103.687 32.336 100.975 32.336ZM112.254 32H108.846V14.648H112.254V24.728H113.382C113.502 24.512 113.646 24.296 113.814 24.08L117.102 20.12H121.158L116.214 26.024L121.134 32H117.078L113.79 27.968C113.622 27.752 113.478 27.512 113.358 27.272H112.254V32ZM128.121 32.312C124.425 32.312 121.641 29.744 121.641 25.952C121.641 22.52 124.137 19.688 127.809 19.688C131.577 19.688 133.761 22.472 133.761 25.712V26.72H124.929C125.169 28.304 126.393 29.36 128.097 29.36C129.393 29.36 130.473 28.736 131.025 27.632L133.641 28.952C132.609 31.088 130.641 32.312 128.121 32.312ZM125.073 24.824H130.377C130.233 23.6 129.225 22.664 127.785 22.664C126.297 22.664 125.313 23.624 125.073 24.824ZM142.088 32.336C138.44 32.336 135.656 29.504 135.656 26.072C135.656 22.376 138.2 19.784 141.896 19.784C143.096 19.784 144.248 20.216 145.112 20.912L145.136 14.648H148.544V26.072C148.544 29.672 145.808 32.336 142.088 32.336ZM142.088 29.12C143.84 29.12 145.136 27.752 145.136 26.072C145.136 24.392 143.84 23 142.088 23C140.336 23 139.064 24.392 139.064 26.072C139.064 27.752 140.336 29.12 142.088 29.12Z" fill="#003489"/>
<defs>
<clipPath id="clip0_1507_44034">
<rect width="17" height="33" fill="white" transform="translate(15 7)"/>
</clipPath>
</defs>
</svg>
