<svg width="60" height="24" viewBox="0 0 60 24" fill="none" xmlns="http://www.w3.org/2000/svg">
<g clip-path="url(#clip0_1510_60758)">
<path d="M12 22C17.5228 22 22 17.5228 22 12C22 6.47715 17.5228 2 12 2C6.47715 2 2 6.47715 2 12C2 17.5228 6.47715 22 12 22Z" stroke="#8CCB46" stroke-width="1.5" stroke-linecap="round" stroke-linejoin="round"/>
<path d="M9.5 8.96533C9.5 8.48805 9.5 8.24941 9.59974 8.11618C9.68666 8.00007 9.81971 7.92744 9.96438 7.9171C10.1304 7.90525 10.3311 8.03429 10.7326 8.29239L15.4532 11.3271C15.8016 11.551 15.9758 11.663 16.0359 11.8054C16.0885 11.9298 16.0885 12.0702 16.0359 12.1946C15.9758 12.337 15.8016 12.449 15.4532 12.6729L10.7326 15.7076C10.3311 15.9657 10.1304 16.0948 9.96438 16.0829C9.81971 16.0726 9.68666 15.9999 9.59974 15.8838C9.5 15.7506 9.5 15.512 9.5 15.0347V8.96533Z" stroke="#8CCB46" stroke-width="1.5" stroke-linecap="round" stroke-linejoin="round"/>
</g>
<path d="M33.4629 9.66895C33.4629 9.52246 33.4401 9.39225 33.3945 9.27832C33.3522 9.16439 33.2757 9.06022 33.165 8.96582C33.0544 8.87142 32.8981 8.78027 32.6963 8.69238C32.4977 8.60124 32.2438 8.50846 31.9346 8.41406C31.596 8.3099 31.2835 8.19434 30.9971 8.06738C30.7139 7.93717 30.4665 7.78743 30.2549 7.61816C30.0433 7.44564 29.8789 7.2487 29.7617 7.02734C29.6445 6.80273 29.5859 6.54395 29.5859 6.25098C29.5859 5.96126 29.6462 5.69759 29.7666 5.45996C29.8903 5.22233 30.0645 5.01725 30.2891 4.84473C30.5169 4.66895 30.7855 4.53385 31.0947 4.43945C31.404 4.3418 31.7458 4.29297 32.1201 4.29297C32.6475 4.29297 33.1016 4.39062 33.4824 4.58594C33.8665 4.78125 34.1611 5.04329 34.3662 5.37207C34.5745 5.70085 34.6787 6.0638 34.6787 6.46094H33.4629C33.4629 6.22656 33.4124 6.01986 33.3115 5.84082C33.2139 5.65853 33.0641 5.5153 32.8623 5.41113C32.6637 5.30697 32.4115 5.25488 32.1055 5.25488C31.8158 5.25488 31.5749 5.29883 31.3828 5.38672C31.1908 5.47461 31.0475 5.59342 30.9531 5.74316C30.8587 5.8929 30.8115 6.06217 30.8115 6.25098C30.8115 6.38444 30.8424 6.50651 30.9043 6.61719C30.9661 6.72461 31.0605 6.82552 31.1875 6.91992C31.3145 7.01107 31.474 7.09733 31.666 7.17871C31.8581 7.26009 32.0843 7.33822 32.3447 7.41309C32.7386 7.53027 33.082 7.66048 33.375 7.80371C33.668 7.94368 33.9121 8.10319 34.1074 8.28223C34.3027 8.46126 34.4492 8.66471 34.5469 8.89258C34.6445 9.11719 34.6934 9.37272 34.6934 9.65918C34.6934 9.95866 34.6331 10.2288 34.5127 10.4697C34.3923 10.7074 34.2197 10.9108 33.9951 11.0801C33.7738 11.2461 33.5068 11.3747 33.1943 11.4658C32.8851 11.5537 32.54 11.5977 32.1592 11.5977C31.8174 11.5977 31.4805 11.5521 31.1484 11.4609C30.8197 11.3698 30.5202 11.2314 30.25 11.0459C29.9798 10.8571 29.765 10.6227 29.6055 10.3428C29.446 10.0596 29.3662 9.72917 29.3662 9.35156H30.5918C30.5918 9.58268 30.6309 9.77962 30.709 9.94238C30.7904 10.1051 30.9027 10.2386 31.0459 10.3428C31.1891 10.4437 31.3551 10.5186 31.5439 10.5674C31.736 10.6162 31.9411 10.6406 32.1592 10.6406C32.4456 10.6406 32.6849 10.5999 32.877 10.5186C33.0723 10.4372 33.2188 10.3232 33.3164 10.1768C33.4141 10.0303 33.4629 9.861 33.4629 9.66895ZM38.7021 4.39062V11.5H37.4863V4.39062H38.7021ZM40.9336 4.39062V5.36719H35.2744V4.39062H40.9336ZM44.1709 5.33789L42.0469 11.5H40.7627L43.4385 4.39062H44.2588L44.1709 5.33789ZM45.9482 11.5L43.8193 5.33789L43.7266 4.39062H44.5518L47.2373 11.5H45.9482ZM45.8457 8.86328V9.83496H41.9785V8.86328H45.8457ZM48.0332 4.39062H50.5479C51.0882 4.39062 51.5488 4.47201 51.9297 4.63477C52.3105 4.79753 52.6019 5.03841 52.8037 5.35742C53.0088 5.67318 53.1113 6.0638 53.1113 6.5293C53.1113 6.88411 53.0462 7.19661 52.916 7.4668C52.7858 7.73698 52.6019 7.96484 52.3643 8.15039C52.1266 8.33268 51.8434 8.47428 51.5146 8.5752L51.1436 8.75586H48.8828L48.873 7.78418H50.5674C50.8604 7.78418 51.1045 7.7321 51.2998 7.62793C51.4951 7.52376 51.6416 7.38216 51.7393 7.20312C51.8402 7.02083 51.8906 6.81576 51.8906 6.58789C51.8906 6.34049 51.8418 6.12565 51.7441 5.94336C51.6497 5.75781 51.5033 5.61621 51.3047 5.51855C51.1061 5.41764 50.8538 5.36719 50.5479 5.36719H49.2588V11.5H48.0332V4.39062ZM52.0908 11.5L50.4209 8.30664L51.7051 8.30176L53.3994 11.4365V11.5H52.0908ZM56.9248 4.39062V11.5H55.709V4.39062H56.9248ZM59.1562 4.39062V5.36719H53.4971V4.39062H59.1562Z" fill="#8CCB46"/>
<rect x="28" y="13.5" width="32" height="8" rx="4" fill="#8CCB46"/>
<path d="M32.2822 15.7344H33.0264L34.1221 18.8662L35.2178 15.7344H35.9619L34.4209 20H33.8232L32.2822 15.7344ZM31.8809 15.7344H32.6221L32.7568 18.7871V20H31.8809V15.7344ZM35.6221 15.7344H36.3662V20H35.4873V18.7871L35.6221 15.7344ZM38.9238 16.4639L37.7637 20H36.8291L38.4141 15.7344H39.0088L38.9238 16.4639ZM39.8877 20L38.7246 16.4639L38.6309 15.7344H39.2314L40.8252 20H39.8877ZM39.835 18.4121V19.1006H37.582V18.4121H39.835ZM44.6924 15.7344V20H43.8135L42.0996 17.1406V20H41.2207V15.7344H42.0996L43.8164 18.5967V15.7344H44.6924ZM47.8125 15.7344H48.6885V18.5527C48.6885 18.8809 48.6182 19.1572 48.4775 19.3818C48.3389 19.6064 48.1465 19.7754 47.9004 19.8887C47.6562 20.002 47.375 20.0586 47.0566 20.0586C46.7383 20.0586 46.4551 20.002 46.207 19.8887C45.9609 19.7754 45.7676 19.6064 45.627 19.3818C45.4883 19.1572 45.4189 18.8809 45.4189 18.5527V15.7344H46.2979V18.5527C46.2979 18.7441 46.3281 18.9004 46.3887 19.0215C46.4492 19.1426 46.5361 19.2314 46.6494 19.2881C46.7646 19.3447 46.9004 19.373 47.0566 19.373C47.2168 19.373 47.3525 19.3447 47.4639 19.2881C47.5771 19.2314 47.6631 19.1426 47.7217 19.0215C47.7822 18.9004 47.8125 18.7441 47.8125 18.5527V15.7344ZM51.082 16.4639L49.9219 20H48.9873L50.5723 15.7344H51.167L51.082 16.4639ZM52.0459 20L50.8828 16.4639L50.7891 15.7344H51.3896L52.9834 20H52.0459ZM51.9932 18.4121V19.1006H49.7402V18.4121H51.9932ZM56.1211 19.3145V20H53.9736V19.3145H56.1211ZM54.2578 15.7344V20H53.3789V15.7344H54.2578Z" fill="white"/>
<defs>
<clipPath id="clip0_1510_60758">
<rect width="24" height="24" fill="white"/>
</clipPath>
</defs>
</svg>

