<svg width="20" height="20" viewBox="0 0 20 20" fill="none" xmlns="http://www.w3.org/2000/svg">
<path fill-rule="evenodd" clip-rule="evenodd" d="M10.8333 2.51724C10.6786 2.50314 10.4493 2.5007 10.0098 2.5007H7.33333C6.61952 2.5007 6.13427 2.50135 5.7592 2.532C5.39385 2.56185 5.20702 2.61595 5.07668 2.68236C4.76308 2.84215 4.50811 3.09712 4.34832 3.41072C4.28192 3.54105 4.22781 3.72789 4.19796 4.09324C4.16732 4.46831 4.16667 4.95355 4.16667 5.66737V14.334C4.16667 15.0479 4.16732 15.5331 4.19796 15.9082C4.22781 16.2735 4.28192 16.4604 4.34832 16.5907C4.50811 16.9043 4.76308 17.1593 5.07668 17.319C5.20702 17.3855 5.39385 17.4396 5.7592 17.4694C6.13427 17.5001 6.61952 17.5007 7.33333 17.5007H12.6667C13.3805 17.5007 13.8657 17.5001 14.2408 17.4694C14.6061 17.4396 14.793 17.3855 14.9233 17.319C15.2369 17.1593 15.4919 16.9043 15.6517 16.5907C15.7181 16.4604 15.7722 16.2735 15.802 15.9082C15.8327 15.5331 15.8333 15.0479 15.8333 14.334V8.32422C15.8333 7.88481 15.8309 7.65551 15.8168 7.50076L12.9734 7.50077C12.7631 7.50079 12.5583 7.50081 12.3848 7.48664C12.1943 7.47108 11.9695 7.43435 11.7433 7.31911C11.4297 7.15932 11.1748 6.90435 11.015 6.59075C10.8997 6.36456 10.863 6.13978 10.8475 5.94929C10.8333 5.77582 10.8333 5.57099 10.8333 5.36066L10.8333 2.51724ZM11.9947 1.12568C11.8064 1.04129 11.6105 0.974438 11.4093 0.926137C11.0237 0.833568 10.6239 0.833758 10.0947 0.83401C10.0668 0.834023 10.0385 0.834037 10.0098 0.834037L7.29892 0.834037C6.62811 0.834026 6.07448 0.834017 5.62348 0.870865C5.15506 0.909136 4.72448 0.991273 4.32003 1.19735C3.69283 1.51693 3.18289 2.02686 2.86331 2.65407C2.65724 3.05851 2.5751 3.4891 2.53683 3.95752C2.49998 4.40851 2.49999 4.96215 2.5 5.63295V14.3685C2.49999 15.0393 2.49998 15.5929 2.53683 16.0439C2.5751 16.5123 2.65724 16.9429 2.86331 17.3473C3.18289 17.9745 3.69283 18.4845 4.32003 18.8041C4.72448 19.0101 5.15506 19.0923 5.62348 19.1305C6.07447 19.1674 6.6281 19.1674 7.2989 19.1674H12.7011C13.3719 19.1674 13.9255 19.1674 14.3765 19.1305C14.8449 19.0923 15.2755 19.0101 15.68 18.8041C16.3072 18.4845 16.8171 17.9745 17.1367 17.3473C17.3428 16.9429 17.4249 16.5123 17.4632 16.0439C17.5 15.5929 17.5 15.0393 17.5 14.3685V8.32422C17.5 8.29556 17.5 8.26726 17.5 8.23933C17.5003 7.71016 17.5005 7.31033 17.4079 6.92475C17.3597 6.72415 17.2931 6.52875 17.2091 6.34101C17.2039 6.32878 17.1984 6.31669 17.1926 6.30477C17.1382 6.18694 17.0768 6.07223 17.0088 5.96124C16.8016 5.62314 16.5188 5.34055 16.1444 4.96655C16.1246 4.94681 16.1046 4.92681 16.0843 4.90654L13.4275 2.24969C13.4072 2.22941 13.3872 2.2094 13.3675 2.18964C12.9935 1.81528 12.7109 1.53243 12.3728 1.32524C12.2614 1.25695 12.1462 1.19537 12.0278 1.14077C12.0169 1.1355 12.0058 1.13047 11.9947 1.12568ZM12.5 3.67921V5.3341C12.5 5.5812 12.5006 5.71641 12.5086 5.81357C12.5089 5.81744 12.5092 5.8211 12.5095 5.82456C12.513 5.82487 12.5167 5.82519 12.5205 5.82551C12.6177 5.83345 12.7529 5.8341 13 5.8341H14.6549L12.5 3.67921ZM5.83333 10.834C5.83333 10.3738 6.20643 10.0007 6.66667 10.0007H13.3333C13.7936 10.0007 14.1667 10.3738 14.1667 10.834C14.1667 11.2943 13.7936 11.6674 13.3333 11.6674H6.66667C6.20643 11.6674 5.83333 11.2943 5.83333 10.834ZM5.83333 14.1674C5.83333 13.7071 6.20643 13.334 6.66667 13.334H11.6667C12.1269 13.334 12.5 13.7071 12.5 14.1674C12.5 14.6276 12.1269 15.0007 11.6667 15.0007H6.66667C6.20643 15.0007 5.83333 14.6276 5.83333 14.1674Z" fill="#0075DB" style="fill:#0075DB;fill:color(display-p3 0.0000 0.4588 0.8588);fill-opacity:1;"/>
</svg>
