<svg xmlns="http://www.w3.org/2000/svg" width="17" height="16" viewBox="0 0 17 16" fill="none">
    <path fill-rule="evenodd" clip-rule="evenodd" d="M7.16607 2.66732C5.87741 2.66732 4.83274 3.71199 4.83274 5.00065C4.83274 6.28932 5.87741 7.33398 7.16607 7.33398C8.45474 7.33398 9.4994 6.28932 9.4994 5.00065C9.4994 3.71199 8.45474 2.66732 7.16607 2.66732ZM3.4994 5.00065C3.4994 2.97561 5.14103 1.33398 7.16607 1.33398C9.19112 1.33398 10.8327 2.97561 10.8327 5.00065C10.8327 7.0257 9.19112 8.66732 7.16607 8.66732C5.14103 8.66732 3.4994 7.0257 3.4994 5.00065ZM13.1661 9.33398C13.5343 9.33398 13.8327 9.63246 13.8327 10.0007V11.334H15.1661C15.5343 11.334 15.8327 11.6325 15.8327 12.0007C15.8327 12.3688 15.5343 12.6673 15.1661 12.6673H13.8327V14.0007C13.8327 14.3688 13.5343 14.6673 13.1661 14.6673C12.7979 14.6673 12.4994 14.3688 12.4994 14.0007V12.6673H11.1661C10.7979 12.6673 10.4994 12.3688 10.4994 12.0007C10.4994 11.6325 10.7979 11.334 11.1661 11.334H12.4994V10.0007C12.4994 9.63246 12.7979 9.33398 13.1661 9.33398ZM5.38358 9.66729C5.42162 9.6673 5.46023 9.66732 5.49941 9.66732H8.4994C8.86759 9.66732 9.16607 9.96579 9.16607 10.334C9.16607 10.7022 8.86759 11.0007 8.4994 11.0007H5.49941C4.52053 11.0007 4.17888 11.0079 3.91883 11.0868C3.27963 11.2807 2.77942 11.7809 2.58552 12.4201C2.50664 12.6801 2.4994 13.0218 2.4994 14.0007C2.4994 14.3688 2.20093 14.6673 1.83274 14.6673C1.46455 14.6673 1.16607 14.3688 1.16607 14.0007C1.16607 13.9615 1.16606 13.9229 1.16604 13.8848C1.16574 13.0666 1.16553 12.508 1.3096 12.033C1.63277 10.9677 2.46645 10.134 3.53179 9.81085C4.00672 9.66678 4.5654 9.66699 5.38358 9.66729Z" fill="#878787"/>
  </svg>