<svg xmlns="http://www.w3.org/2000/svg" width="20" height="20" viewBox="0 0 20 20" fill="none">
  <g clip-path="url(#clip0_4557_24870)">
    <path fill-rule="evenodd" clip-rule="evenodd" d="M9.99967 2.50065C5.85754 2.50065 2.49967 5.85851 2.49967 10.0007C2.49967 14.1428 5.85754 17.5006 9.99967 17.5006C14.1418 17.5006 17.4997 14.1428 17.4997 10.0007C17.4997 5.85851 14.1418 2.50065 9.99967 2.50065ZM0.833008 10.0007C0.833008 4.93804 4.93706 0.833984 9.99967 0.833984C15.0623 0.833984 19.1663 4.93804 19.1663 10.0007C19.1663 15.0633 15.0623 19.1673 9.99967 19.1673C4.93706 19.1673 0.833008 15.0633 0.833008 10.0007ZM6.24967 7.50065C6.24967 6.81029 6.80932 6.25065 7.49967 6.25065C8.19003 6.25065 8.74967 6.81029 8.74967 7.50065C8.74967 8.19101 8.19003 8.75065 7.49967 8.75065C6.80932 8.75065 6.24967 8.19101 6.24967 7.50065ZM11.2497 7.50065C11.2497 6.81029 11.8093 6.25065 12.4997 6.25065C13.19 6.25065 13.7497 6.81029 13.7497 7.50065C13.7497 8.19101 13.19 8.75065 12.4997 8.75065C11.8093 8.75065 11.2497 8.19101 11.2497 7.50065ZM5.41634 11.6673C5.41634 11.2071 5.78944 10.834 6.24967 10.834H13.7497C14.2099 10.834 14.583 11.2071 14.583 11.6673C14.583 12.6877 13.9867 13.6327 13.1847 14.2908C12.3662 14.9624 11.2439 15.4173 9.99967 15.4173C8.75541 15.4173 7.63311 14.9624 6.81467 14.2908C6.01264 13.6327 5.41634 12.6877 5.41634 11.6673ZM7.39556 12.5007C7.51612 12.6693 7.67368 12.8397 7.87187 13.0024C8.40749 13.4419 9.16019 13.7506 9.99967 13.7506C10.8392 13.7506 11.5919 13.4419 12.1275 13.0024C12.3257 12.8397 12.4832 12.6693 12.6038 12.5007H7.39556Z" fill="#878787"/>
  </g>
  <defs>
    <clipPath id="clip0_4557_24870">
      <rect width="20" height="20" fill="white"/>
    </clipPath>
  </defs>
</svg>