<svg width="20" height="20" viewBox="0 0 20 20" fill="none" xmlns="http://www.w3.org/2000/svg">
<g clip-path="url(#clip0_5816_56330)">
<path fill-rule="evenodd" clip-rule="evenodd" d="M9.30187 0.832032H15.6994C16.1387 0.832017 16.5177 0.832004 16.8298 0.857507C17.1593 0.884425 17.487 0.943855 17.8023 1.10452C18.2727 1.3442 18.6552 1.72665 18.8948 2.19706C19.0555 2.51237 19.1149 2.84005 19.1418 3.16951C19.1673 3.48165 19.1673 3.86061 19.1673 4.29989V10.6975C19.1673 11.1368 19.1673 11.5157 19.1418 11.8279C19.1149 12.1573 19.0555 12.485 18.8948 12.8003C18.6552 13.2707 18.2727 13.6532 17.8023 13.8929C17.487 14.0535 17.1593 14.113 16.8298 14.1399C16.5177 14.1654 16.1387 14.1654 15.6994 14.1654H14.1673V15.6975C14.1673 16.1368 14.1673 16.5157 14.1418 16.8279C14.1149 17.1573 14.0555 17.485 13.8948 17.8003C13.6552 18.2708 13.2727 18.6532 12.8023 18.8929C12.487 19.0535 12.1593 19.113 11.8298 19.1399C11.5177 19.1654 11.1387 19.1654 10.6995 19.1654H4.30185C3.86256 19.1654 3.4836 19.1654 3.17146 19.1399C2.84201 19.113 2.51433 19.0535 2.19901 18.8929C1.72861 18.6532 1.34615 18.2708 1.10647 17.8003C0.945808 17.485 0.886378 17.1573 0.85946 16.8279C0.833957 16.5157 0.83397 16.1368 0.833985 15.6975V9.29991C0.83397 8.86062 0.833957 8.48165 0.85946 8.16951C0.886378 7.84005 0.945808 7.51237 1.10647 7.19706C1.34615 6.72665 1.7286 6.3442 2.19901 6.10452C2.51433 5.94385 2.84201 5.88442 3.17146 5.85751C3.48361 5.832 3.86258 5.83202 4.30187 5.83203L5.83399 5.83203L5.83398 4.29991C5.83397 3.86062 5.83396 3.48165 5.85946 3.16951C5.88638 2.84006 5.94581 2.51237 6.10647 2.19706C6.34615 1.72665 6.7286 1.3442 7.19901 1.10452C7.51433 0.943855 7.84201 0.884425 8.17146 0.857507C8.48361 0.832004 8.86257 0.832017 9.30187 0.832032ZM4.33399 7.4987C3.85352 7.4987 3.5433 7.49935 3.30718 7.51864C3.0808 7.53713 2.99686 7.56853 2.95566 7.58953C2.79886 7.66942 2.67138 7.79691 2.59148 7.95371C2.57049 7.99491 2.53909 8.07884 2.52059 8.30523C2.5013 8.54134 2.50065 8.85157 2.50065 9.33203V15.6654C2.50065 16.1458 2.5013 16.4561 2.52059 16.6922C2.53909 16.9186 2.57049 17.0025 2.59148 17.0437C2.67137 17.2005 2.79886 17.328 2.95566 17.4079C2.99686 17.4289 3.0808 17.4603 3.30718 17.4788C3.5433 17.4981 3.85352 17.4987 4.33399 17.4987H10.6673C11.1478 17.4987 11.458 17.4981 11.6941 17.4788C11.9205 17.4603 12.0044 17.4289 12.0456 17.4079C12.2024 17.328 12.3299 17.2005 12.4098 17.0437C12.4308 17.0025 12.4622 16.9186 12.4807 16.6922C12.5 16.4561 12.5007 16.1458 12.5007 15.6654V9.33203C12.5007 8.85157 12.5 8.54134 12.4807 8.30523C12.4622 8.07884 12.4308 7.99491 12.4098 7.95371C12.3299 7.79691 12.2024 7.66942 12.0456 7.58953C12.0044 7.56853 11.9205 7.53713 11.6941 7.51864C11.458 7.49935 11.1478 7.4987 10.6673 7.4987H4.33399ZM14.1673 12.4987V9.29993C14.1673 8.86063 14.1673 8.48166 14.1418 8.16951C14.1149 7.84005 14.0555 7.51237 13.8948 7.19706C13.6552 6.72665 13.2727 6.3442 12.8023 6.10452C12.487 5.94385 12.1593 5.88442 11.8298 5.85751C11.5177 5.832 11.1387 5.83202 10.6994 5.83203L7.50065 5.83203V4.33203C7.50065 3.85157 7.5013 3.54134 7.52059 3.30523C7.53909 3.07884 7.57049 2.99491 7.59148 2.95371C7.67137 2.79691 7.79886 2.66942 7.95566 2.58953C7.99686 2.56853 8.0808 2.53714 8.30718 2.51864C8.5433 2.49935 8.85352 2.4987 9.33399 2.4987H15.6673C16.1478 2.4987 16.458 2.49935 16.6941 2.51864C16.9205 2.53714 17.0044 2.56853 17.0456 2.58953C17.2024 2.66942 17.3299 2.7969 17.4098 2.95371C17.4308 2.99491 17.4622 3.07884 17.4807 3.30523C17.5 3.54134 17.5007 3.85157 17.5007 4.33203V10.6654C17.5007 11.1458 17.5 11.4561 17.4807 11.6922C17.4622 11.9186 17.4308 12.0025 17.4098 12.0437C17.3299 12.2005 17.2024 12.328 17.0456 12.4079C17.0044 12.4289 16.9205 12.4603 16.6941 12.4788C16.458 12.4981 16.1478 12.4987 15.6673 12.4987H14.1673Z" fill="#141414"/>
</g>
<defs>
<clipPath id="clip0_5816_56330">
<rect width="20" height="20" fill="white"/>
</clipPath>
</defs>
</svg>
