<svg width="20" height="20" viewBox="0 0 20 20" fill="none" xmlns="http://www.w3.org/2000/svg">
<g clip-path="url(#clip0_3574_19365)">
<path fill-rule="evenodd" clip-rule="evenodd" d="M13.5357 1.66797H6.46689H6.46687C5.79607 1.66796 5.24244 1.66795 4.79145 1.7048C4.32303 1.74307 3.89245 1.82521 3.488 2.03128C2.86079 2.35086 2.35086 2.86079 2.03128 3.488C1.82521 3.89245 1.74307 4.32303 1.7048 4.79145C1.66795 5.24244 1.66796 5.79607 1.66797 6.46687V6.46689V13.5357V13.5357C1.66796 14.2065 1.66795 14.7602 1.7048 15.2112C1.74307 15.6796 1.82521 16.1102 2.03128 16.5146C2.35086 17.1418 2.86079 17.6517 3.488 17.9713C3.89245 18.1774 4.32303 18.2595 4.79145 18.2978C5.24244 18.3347 5.79607 18.3346 6.46687 18.3346H13.5357C14.2065 18.3346 14.7602 18.3347 15.2112 18.2978C15.6796 18.2595 16.1102 18.1774 16.5146 17.9713C17.1418 17.6517 17.6517 17.1418 17.9713 16.5146C18.1774 16.1102 18.2595 15.6796 18.2978 15.2112C18.3347 14.7602 18.3346 14.2065 18.3346 13.5357V6.46687C18.3346 5.79607 18.3347 5.24244 18.2978 4.79145C18.2595 4.32303 18.1774 3.89245 17.9713 3.488C17.6517 2.86079 17.1418 2.35086 16.5146 2.03128C16.1102 1.82521 15.6796 1.74307 15.2112 1.7048C14.7602 1.66795 14.2065 1.66796 13.5357 1.66797H13.5357ZM5.83463 9.16797C5.3744 9.16797 5.0013 9.54107 5.0013 10.0013C5.0013 10.4615 5.3744 10.8346 5.83464 10.8346H14.168C14.6282 10.8346 15.0013 10.4615 15.0013 10.0013C15.0013 9.54107 14.6282 9.16797 14.168 9.16797H5.83463Z" fill="#B8B8B8"/>
</g>
<defs>
<clipPath id="clip0_3574_19365">
<rect width="20" height="20" fill="white"/>
</clipPath>
</defs>
</svg>
