<svg width="20" height="20" viewBox="0 0 20 20" fill="none" xmlns="http://www.w3.org/2000/svg">
<g clip-path="url(#clip0_4051_24005)">
<path fill-rule="evenodd" clip-rule="evenodd" d="M9.41074 11.0781C9.73618 10.7526 10.2638 10.7526 10.5893 11.0781L14.7559 15.2447C15.0814 15.5702 15.0814 16.0978 14.7559 16.4232C14.4305 16.7487 13.9028 16.7487 13.5774 16.4232L10 12.8458L6.42259 16.4232C6.09715 16.7487 5.56951 16.7487 5.24408 16.4232C4.91864 16.0978 4.91864 15.5702 5.24408 15.2447L9.41074 11.0781Z" fill="#878787"/>
<path fill-rule="evenodd" clip-rule="evenodd" d="M10.5893 8.92324C10.2638 9.24868 9.73618 9.24868 9.41074 8.92324L5.24408 4.75657C4.91864 4.43114 4.91864 3.9035 5.24408 3.57806C5.56951 3.25263 6.09715 3.25263 6.42259 3.57806L10 7.15547L13.5774 3.57806C13.9028 3.25263 14.4305 3.25263 14.7559 3.57806C15.0814 3.9035 15.0814 4.43114 14.7559 4.75657L10.5893 8.92324Z" fill="#878787"/>
</g>
<defs>
<clipPath id="clip0_4051_24005">
<rect width="20" height="20" rx="10" fill="white"/>
</clipPath>
</defs>
</svg>
