<svg width="36" height="36" viewBox="0 0 36 36" fill="none" xmlns="http://www.w3.org/2000/svg">
    <path d="M33 17.25V21.9C33 25.2603 33 26.9405 32.346 28.2239C31.7708 29.3529 30.8529 30.2708 29.7239 30.846C28.4405 31.5 26.7603 31.5 23.4 31.5H12.6C9.23969 31.5 7.55953 31.5 6.27606 30.846C5.14708 30.2708 4.2292 29.3529 3.65396 28.2239C3 26.9405 3 25.2603 3 21.9V14.1C3 10.7397 3 9.05953 3.65396 7.77606C4.2292 6.64708 5.14708 5.7292 6.27606 5.15396C7.55953 4.5 9.23969 4.5 12.6 4.5H18.75M28.5 12V3M24 7.5H33M24 18C24 21.3137 21.3137 24 18 24C14.6863 24 12 21.3137 12 18C12 14.6863 14.6863 12 18 12C21.3137 12 24 14.6863 24 18Z" stroke="white" stroke-width="3" stroke-linecap="round" stroke-linejoin="round"/>
</svg>
    