<svg width="28" height="28" viewBox="0 0 28 28" fill="none" xmlns="http://www.w3.org/2000/svg">
<path fill-rule="evenodd" clip-rule="evenodd" d="M14.0003 4.66602C14.6447 4.66602 15.167 5.18835 15.167 5.83268V12.8327H22.167C22.8113 12.8327 23.3337 13.355 23.3337 13.9993C23.3337 14.6437 22.8113 15.166 22.167 15.166H15.167V22.166C15.167 22.8104 14.6447 23.3327 14.0003 23.3327C13.356 23.3327 12.8337 22.8104 12.8337 22.166V15.166H5.83366C5.18933 15.166 4.66699 14.6437 4.66699 13.9993C4.66699 13.355 5.18933 12.8327 5.83366 12.8327H12.8337V5.83268C12.8337 5.18835 13.356 4.66602 14.0003 4.66602Z" fill="#0098FF"/>
</svg>
