<svg width="20" height="20" viewBox="0 0 20 20" fill="none" xmlns="http://www.w3.org/2000/svg">
<path fill-rule="evenodd" clip-rule="evenodd" d="M8.22404 1.73564C8.46773 1.18734 9.01146 0.833984 9.61147 0.833984C11.2066 0.833984 12.4997 2.12708 12.4997 3.72218V6.66732H15.419C17.4619 6.66732 19.0242 8.48831 18.7135 10.5075L17.8161 16.3408C17.5659 17.9669 16.1668 19.1673 14.5215 19.1673H3.33301C1.9523 19.1673 0.833008 18.048 0.833008 16.6673V10.834C0.833008 9.45327 1.9523 8.33398 3.33301 8.33398H5.29145L8.22404 1.73564ZM6.66634 17.5006H14.5215C15.3442 17.5006 16.0437 16.9005 16.1688 16.0874L17.0663 10.2541C17.2216 9.24448 16.4405 8.33398 15.419 8.33398H12.4997C11.5792 8.33398 10.833 7.58779 10.833 6.66732V3.72218C10.833 3.07946 10.3366 2.55267 9.70629 2.50428L6.81447 9.01088C6.77276 9.10472 6.72305 9.19336 6.66634 9.27614V17.5006ZM4.99967 10.0007V17.5006H3.33301C2.87277 17.5006 2.49967 17.1276 2.49967 16.6673V10.834C2.49967 10.3737 2.87277 10.0007 3.33301 10.0007H4.99967Z" fill="#878787" style="fill:#878787;fill:color(display-p3 0.5294 0.5294 0.5294);fill-opacity:1;"/>
</svg>
