<svg width="16" height="16" viewBox="0 0 16 16" fill="none" xmlns="http://www.w3.org/2000/svg">
<g clip-path="url(#clip0_4324_22867)">
<path fill-rule="evenodd" clip-rule="evenodd" d="M8.00033 1.99935C4.68662 1.99935 2.00033 4.68564 2.00033 7.99935C2.00033 11.3131 4.68662 13.9993 8.00033 13.9993C11.314 13.9993 14.0003 11.3131 14.0003 7.99935C14.0003 4.68564 11.314 1.99935 8.00033 1.99935ZM0.666992 7.99935C0.666992 3.94926 3.95024 0.666016 8.00033 0.666016C12.0504 0.666016 15.3337 3.94926 15.3337 7.99935C15.3337 12.0494 12.0504 15.3327 8.00033 15.3327C3.95024 15.3327 0.666992 12.0494 0.666992 7.99935ZM7.49706 4.95471C7.50336 4.95876 7.50964 4.9628 7.5159 4.96682L10.663 6.98993C10.6687 6.99363 10.6745 6.99734 10.6803 7.00107C10.781 7.06578 10.8911 7.13648 10.9787 7.20486C11.0717 7.27738 11.2185 7.40529 11.3051 7.61013C11.4102 7.85896 11.4102 8.13974 11.3051 8.38857C11.2185 8.5934 11.0717 8.72132 10.9787 8.79384C10.8911 8.86222 10.781 8.93292 10.6803 8.99762C10.6745 9.00136 10.6687 9.00507 10.663 9.00876L7.5159 11.0319C7.50964 11.0359 7.50336 11.0399 7.49706 11.044C7.37991 11.1193 7.25673 11.1986 7.14825 11.255C7.03911 11.3118 6.84107 11.4038 6.59575 11.3863C6.30642 11.3656 6.04032 11.2203 5.86648 10.9881C5.71908 10.7912 5.68932 10.5749 5.67809 10.4524C5.66692 10.3306 5.66696 10.1842 5.66699 10.0449C5.66699 10.0374 5.66699 10.0299 5.66699 10.0225V5.97624C5.66699 5.96879 5.66699 5.96132 5.66699 5.95384C5.66696 5.81454 5.66692 5.66809 5.67809 5.5463C5.68932 5.42378 5.71908 5.20747 5.86648 5.01059C6.04032 4.77839 6.30642 4.63311 6.59575 4.61244C6.84107 4.59492 7.03911 4.68686 7.14825 4.74366C7.25673 4.80013 7.37991 4.87936 7.49706 4.95471ZM7.00033 6.22046V9.77824L9.76749 7.99935L7.00033 6.22046Z" fill="#878787" style="fill:#878787;fill:color(display-p3 0.5294 0.5294 0.5294);fill-opacity:1;"/>
</g>
<defs>
<clipPath id="clip0_4324_22867">
<rect width="16" height="16" fill="white" style="fill:white;fill-opacity:1;"/>
</clipPath>
</defs>
</svg>
