<svg width="20" height="20" viewBox="0 0 20 20" fill="none" xmlns="http://www.w3.org/2000/svg">
<path fill-rule="evenodd" clip-rule="evenodd" d="M6.46697 1.66797H13.5358C14.2066 1.66796 14.7602 1.66795 15.2112 1.7048C15.6797 1.74307 16.1102 1.82521 16.5147 2.03128C17.1419 2.35086 17.6518 2.86079 17.9714 3.488C18.1775 3.89245 18.2596 4.32303 18.2979 4.79145C18.3347 5.24244 18.3347 5.79607 18.3347 6.46687V11.0357C18.3347 11.7065 18.3347 12.2602 18.2979 12.7112C18.2596 13.1796 18.1775 13.6102 17.9714 14.0146C17.6518 14.6418 17.1419 15.1517 16.5147 15.4713C16.1102 15.6774 15.6797 15.7595 15.2112 15.7978C14.7602 15.8347 14.2066 15.8346 13.5358 15.8346H11.4045C10.8511 15.8346 10.6899 15.8386 10.5433 15.8687C10.3962 15.8989 10.2538 15.9488 10.1201 16.0171C9.98676 16.0852 9.85846 16.1828 9.42631 16.5286L7.41537 18.1373C7.2623 18.2598 7.10628 18.3847 6.96911 18.4754C6.83792 18.5621 6.58355 18.7174 6.25273 18.7177C5.87206 18.7181 5.51194 18.545 5.27445 18.2475C5.06807 17.989 5.0304 17.6934 5.01618 17.5367C5.0013 17.373 5.00134 17.1731 5.00138 16.9771L5.00138 15.8278C4.67487 15.817 4.39487 15.7897 4.13865 15.7211C2.98835 15.4128 2.08985 14.5143 1.78163 13.364C1.66738 12.9377 1.66765 12.4454 1.66801 11.7826C1.66803 11.745 1.66805 11.7067 1.66805 11.668L1.66805 6.46689C1.66804 5.79608 1.66803 5.24244 1.70488 4.79145C1.74315 4.32303 1.82529 3.89245 2.03136 3.488C2.35094 2.86079 2.86087 2.35086 3.48808 2.03128C3.89253 1.82521 4.32311 1.74307 4.79153 1.7048C5.24252 1.66795 5.79616 1.66796 6.46697 1.66797ZM4.92725 3.36593C4.5619 3.39578 4.37507 3.44988 4.24473 3.51629C3.93113 3.67608 3.67616 3.93105 3.51637 4.24465C3.44996 4.37499 3.39586 4.56182 3.36601 4.92717C3.33536 5.30224 3.33472 5.78749 3.33472 6.5013V11.668C3.33472 12.4966 3.34187 12.7474 3.39151 12.9327C3.54562 13.5078 3.99486 13.9571 4.57002 14.1112C4.75525 14.1608 5.00609 14.168 5.83472 14.168C6.29495 14.168 6.66805 14.5411 6.66805 15.0013V16.6008L8.38515 15.2271C8.40409 15.2119 8.42279 15.197 8.44124 15.1822C8.79297 14.9006 9.05885 14.6877 9.36183 14.5329C9.62929 14.3963 9.91399 14.2964 10.2082 14.236C10.5415 14.1676 10.8821 14.1678 11.3327 14.168C11.3563 14.168 11.3802 14.168 11.4045 14.168H13.5014C14.2152 14.168 14.7004 14.1673 15.0755 14.1367C15.4409 14.1068 15.6277 14.0527 15.758 13.9863C16.0716 13.8265 16.3266 13.5716 16.4864 13.258C16.5528 13.1276 16.6069 12.9408 16.6368 12.5754C16.6674 12.2004 16.6681 11.7151 16.6681 11.0013V6.5013C16.6681 5.78749 16.6674 5.30224 16.6368 4.92717C16.6069 4.56182 16.5528 4.37499 16.4864 4.24465C16.3266 3.93105 16.0716 3.67608 15.758 3.51629C15.6277 3.44988 15.4409 3.39578 15.0755 3.36593C14.7004 3.33528 14.2152 3.33464 13.5014 3.33464H6.50138C5.78757 3.33464 5.30232 3.33528 4.92725 3.36593ZM10.0014 5.0013C10.4616 5.0013 10.8347 5.3744 10.8347 5.83464V8.7513C10.8347 9.21154 10.4616 9.58464 10.0014 9.58464C9.54114 9.58464 9.16805 9.21154 9.16805 8.7513V5.83464C9.16805 5.3744 9.54114 5.0013 10.0014 5.0013ZM9.16805 11.668C9.16805 11.2077 9.54114 10.8346 10.0014 10.8346H10.0097C10.47 10.8346 10.8431 11.2077 10.8431 11.668C10.8431 12.1282 10.47 12.5013 10.0097 12.5013H10.0014C9.54114 12.5013 9.16805 12.1282 9.16805 11.668Z" fill="#141414"/>
</svg>
