<svg width="68" height="32" viewBox="0 0 68 32" fill="none" xmlns="http://www.w3.org/2000/svg">
<rect width="68" height="32" rx="8" fill="#1D9BF0"/>
<path d="M16 26C21.5228 26 26 21.5228 26 16C26 10.4772 21.5228 6 16 6C10.4772 6 6 10.4772 6 16C6 21.5228 10.4772 26 16 26Z" stroke="white" stroke-width="2" stroke-linecap="round" stroke-linejoin="round"/>
<path d="M12 13.6C12 13.0399 12 12.7599 12.109 12.546C12.2049 12.3578 12.3578 12.2049 12.546 12.109C12.7599 12 13.0399 12 13.6 12H18.4C18.9601 12 19.2401 12 19.454 12.109C19.6422 12.2049 19.7951 12.3578 19.891 12.546C20 12.7599 20 13.0399 20 13.6V18.4C20 18.9601 20 19.2401 19.891 19.454C19.7951 19.6422 19.6422 19.7951 19.454 19.891C19.2401 20 18.9601 20 18.4 20H13.6C13.0399 20 12.7599 20 12.546 19.891C12.3578 19.7951 12.2049 19.6422 12.109 19.454C12 19.2401 12 18.9601 12 18.4V13.6Z" stroke="white" stroke-width="2" stroke-linecap="round" stroke-linejoin="round"/>
<path d="M37.9219 13.1855H39.1426C39.1035 13.651 38.9733 14.0661 38.752 14.4307C38.5306 14.792 38.2197 15.0768 37.8193 15.2852C37.4189 15.4935 36.9323 15.5977 36.3594 15.5977C35.9199 15.5977 35.5244 15.5195 35.1729 15.3633C34.8213 15.2038 34.5202 14.9792 34.2695 14.6895C34.0189 14.3965 33.8268 14.0433 33.6934 13.6299C33.5632 13.2165 33.498 12.7542 33.498 12.2432V11.6523C33.498 11.1413 33.5648 10.679 33.6982 10.2656C33.835 9.85221 34.0303 9.49902 34.2842 9.20605C34.5381 8.90983 34.8424 8.68359 35.1973 8.52734C35.5553 8.37109 35.9574 8.29297 36.4033 8.29297C36.9697 8.29297 37.4482 8.39714 37.8389 8.60547C38.2295 8.8138 38.5322 9.10189 38.7471 9.46973C38.9652 9.83757 39.0986 10.2591 39.1475 10.7344H37.9268C37.8942 10.4284 37.8226 10.1663 37.7119 9.94824C37.6045 9.73014 37.445 9.56413 37.2334 9.4502C37.0218 9.33301 36.7451 9.27441 36.4033 9.27441C36.1234 9.27441 35.8792 9.3265 35.6709 9.43066C35.4626 9.53483 35.2884 9.68783 35.1484 9.88965C35.0085 10.0915 34.9027 10.3405 34.8311 10.6367C34.7627 10.9297 34.7285 11.265 34.7285 11.6426V12.2432C34.7285 12.6012 34.7594 12.9268 34.8213 13.2197C34.8864 13.5094 34.984 13.7585 35.1143 13.9668C35.2477 14.1751 35.417 14.3363 35.6221 14.4502C35.8271 14.5641 36.0729 14.6211 36.3594 14.6211C36.7077 14.6211 36.9893 14.5658 37.2041 14.4551C37.4222 14.3444 37.5866 14.1833 37.6973 13.9717C37.8112 13.7568 37.8861 13.4948 37.9219 13.1855ZM44.709 14.5283V15.5H41.1396V14.5283H44.709ZM41.4814 8.39062V15.5H40.2559V8.39062H41.4814ZM51.0029 11.75V12.1406C51.0029 12.6777 50.9329 13.1595 50.793 13.5859C50.653 14.0124 50.4528 14.3753 50.1924 14.6748C49.9352 14.9743 49.626 15.2038 49.2646 15.3633C48.9033 15.5195 48.5029 15.5977 48.0635 15.5977C47.6273 15.5977 47.2285 15.5195 46.8672 15.3633C46.5091 15.2038 46.1982 14.9743 45.9346 14.6748C45.6709 14.3753 45.4658 14.0124 45.3193 13.5859C45.1761 13.1595 45.1045 12.6777 45.1045 12.1406V11.75C45.1045 11.2129 45.1761 10.7327 45.3193 10.3096C45.4626 9.88314 45.6644 9.52018 45.9248 9.2207C46.1885 8.91797 46.4993 8.68848 46.8574 8.53223C47.2188 8.37272 47.6175 8.29297 48.0537 8.29297C48.4932 8.29297 48.8936 8.37272 49.2549 8.53223C49.6162 8.68848 49.9271 8.91797 50.1875 9.2207C50.4479 9.52018 50.6481 9.88314 50.7881 10.3096C50.9313 10.7327 51.0029 11.2129 51.0029 11.75ZM49.7773 12.1406V11.7402C49.7773 11.3431 49.7383 10.9932 49.6602 10.6904C49.5853 10.3844 49.473 10.1289 49.3232 9.92383C49.1768 9.71549 48.9961 9.55924 48.7812 9.45508C48.5664 9.34766 48.3239 9.29395 48.0537 9.29395C47.7835 9.29395 47.5426 9.34766 47.3311 9.45508C47.1195 9.55924 46.9388 9.71549 46.7891 9.92383C46.6426 10.1289 46.5303 10.3844 46.4521 10.6904C46.374 10.9932 46.335 11.3431 46.335 11.7402V12.1406C46.335 12.5378 46.374 12.8893 46.4521 13.1953C46.5303 13.5013 46.6442 13.7601 46.7939 13.9717C46.9469 14.18 47.1292 14.3379 47.3408 14.4453C47.5524 14.5495 47.7933 14.6016 48.0635 14.6016C48.3369 14.6016 48.5794 14.5495 48.791 14.4453C49.0026 14.3379 49.1816 14.18 49.3281 13.9717C49.4746 13.7601 49.5853 13.5013 49.6602 13.1953C49.7383 12.8893 49.7773 12.5378 49.7773 12.1406ZM55.9688 13.6689C55.9688 13.5225 55.946 13.3923 55.9004 13.2783C55.8581 13.1644 55.7816 13.0602 55.6709 12.9658C55.5602 12.8714 55.404 12.7803 55.2021 12.6924C55.0036 12.6012 54.7497 12.5085 54.4404 12.4141C54.1019 12.3099 53.7894 12.1943 53.5029 12.0674C53.2197 11.9372 52.9723 11.7874 52.7607 11.6182C52.5492 11.4456 52.3848 11.2487 52.2676 11.0273C52.1504 10.8027 52.0918 10.5439 52.0918 10.251C52.0918 9.96126 52.152 9.69759 52.2725 9.45996C52.3962 9.22233 52.5703 9.01725 52.7949 8.84473C53.0228 8.66895 53.2913 8.53385 53.6006 8.43945C53.9098 8.3418 54.2516 8.29297 54.626 8.29297C55.1533 8.29297 55.6074 8.39062 55.9883 8.58594C56.3724 8.78125 56.667 9.04329 56.8721 9.37207C57.0804 9.70085 57.1846 10.0638 57.1846 10.4609H55.9688C55.9688 10.2266 55.9183 10.0199 55.8174 9.84082C55.7197 9.65853 55.57 9.5153 55.3682 9.41113C55.1696 9.30697 54.9173 9.25488 54.6113 9.25488C54.3216 9.25488 54.0807 9.29883 53.8887 9.38672C53.6966 9.47461 53.5534 9.59342 53.459 9.74316C53.3646 9.8929 53.3174 10.0622 53.3174 10.251C53.3174 10.3844 53.3483 10.5065 53.4102 10.6172C53.472 10.7246 53.5664 10.8255 53.6934 10.9199C53.8203 11.0111 53.9798 11.0973 54.1719 11.1787C54.3639 11.2601 54.5902 11.3382 54.8506 11.4131C55.2445 11.5303 55.5879 11.6605 55.8809 11.8037C56.1738 11.9437 56.418 12.1032 56.6133 12.2822C56.8086 12.4613 56.9551 12.6647 57.0527 12.8926C57.1504 13.1172 57.1992 13.3727 57.1992 13.6592C57.1992 13.9587 57.139 14.2288 57.0186 14.4697C56.8981 14.7074 56.7256 14.9108 56.501 15.0801C56.2796 15.2461 56.0127 15.3747 55.7002 15.4658C55.391 15.5537 55.0459 15.5977 54.665 15.5977C54.3232 15.5977 53.9863 15.5521 53.6543 15.4609C53.3255 15.3698 53.026 15.2314 52.7559 15.0459C52.4857 14.8571 52.2708 14.6227 52.1113 14.3428C51.9518 14.0596 51.8721 13.7292 51.8721 13.3516H53.0977C53.0977 13.5827 53.1367 13.7796 53.2148 13.9424C53.2962 14.1051 53.4085 14.2386 53.5518 14.3428C53.695 14.4437 53.861 14.5186 54.0498 14.5674C54.2419 14.6162 54.4469 14.6406 54.665 14.6406C54.9515 14.6406 55.1908 14.5999 55.3828 14.5186C55.5781 14.4372 55.7246 14.3232 55.8223 14.1768C55.9199 14.0303 55.9688 13.861 55.9688 13.6689ZM62.9365 14.5283V15.5H59.1621V14.5283H62.9365ZM59.5088 8.39062V15.5H58.2832V8.39062H59.5088ZM62.4434 11.3594V12.3164H59.1621V11.3594H62.4434ZM62.9121 8.39062V9.36719H59.1621V8.39062H62.9121Z" fill="white"/>
<rect x="32" y="17.5" width="32" height="8" rx="4" fill="white"/>
<path d="M36.2822 19.7344H37.0264L38.1221 22.8662L39.2178 19.7344H39.9619L38.4209 24H37.8232L36.2822 19.7344ZM35.8809 19.7344H36.6221L36.7568 22.7871V24H35.8809V19.7344ZM39.6221 19.7344H40.3662V24H39.4873V22.7871L39.6221 19.7344ZM42.9238 20.4639L41.7637 24H40.8291L42.4141 19.7344H43.0088L42.9238 20.4639ZM43.8877 24L42.7246 20.4639L42.6309 19.7344H43.2314L44.8252 24H43.8877ZM43.835 22.4121V23.1006H41.582V22.4121H43.835ZM48.6924 19.7344V24H47.8135L46.0996 21.1406V24H45.2207V19.7344H46.0996L47.8164 22.5967V19.7344H48.6924ZM51.8125 19.7344H52.6885V22.5527C52.6885 22.8809 52.6182 23.1572 52.4775 23.3818C52.3389 23.6064 52.1465 23.7754 51.9004 23.8887C51.6562 24.002 51.375 24.0586 51.0566 24.0586C50.7383 24.0586 50.4551 24.002 50.207 23.8887C49.9609 23.7754 49.7676 23.6064 49.627 23.3818C49.4883 23.1572 49.4189 22.8809 49.4189 22.5527V19.7344H50.2979V22.5527C50.2979 22.7441 50.3281 22.9004 50.3887 23.0215C50.4492 23.1426 50.5361 23.2314 50.6494 23.2881C50.7646 23.3447 50.9004 23.373 51.0566 23.373C51.2168 23.373 51.3525 23.3447 51.4639 23.2881C51.5771 23.2314 51.6631 23.1426 51.7217 23.0215C51.7822 22.9004 51.8125 22.7441 51.8125 22.5527V19.7344ZM55.082 20.4639L53.9219 24H52.9873L54.5723 19.7344H55.167L55.082 20.4639ZM56.0459 24L54.8828 20.4639L54.7891 19.7344H55.3896L56.9834 24H56.0459ZM55.9932 22.4121V23.1006H53.7402V22.4121H55.9932ZM60.1211 23.3145V24H57.9736V23.3145H60.1211ZM58.2578 19.7344V24H57.3789V19.7344H58.2578Z" fill="#1D9BF0"/>
</svg>
