<svg xmlns="http://www.w3.org/2000/svg" width="14" height="14" viewBox="0 0 14 14" fill="none">
  <path fill-rule="evenodd" clip-rule="evenodd" d="M4.02825 2.13571C3.86271 2.05198 3.66722 2.05198 3.50168 2.13571C3.43943 2.1672 3.36182 2.23444 3.01939 2.57687L2.92744 2.66882C2.60064 2.99562 2.51256 3.09013 2.44214 3.21548C2.36053 3.36077 2.29215 3.6237 2.29265 3.79034C2.29309 3.93863 2.31498 4.02793 2.41138 4.36758C2.88715 6.04383 3.78467 7.6257 5.10552 8.94655C6.42638 10.2674 8.00825 11.1649 9.6845 11.6407C10.0241 11.7371 10.1134 11.759 10.2617 11.7594C10.4284 11.7599 10.6913 11.6916 10.8366 11.6099C10.9619 11.5395 11.0565 11.4514 11.3833 11.1246L11.4752 11.0327C11.8176 10.6903 11.8849 10.6127 11.9164 10.5504C12.0001 10.3849 12.0001 10.1894 11.9164 10.0238C11.8849 9.96157 11.8176 9.88396 11.4752 9.54153L11.8877 9.12906L11.4752 9.54153L11.3615 9.42786C11.1365 9.20286 11.0859 9.15679 11.0476 9.13186C10.8543 9.00616 10.605 9.00616 10.4117 9.13186C10.3733 9.15679 10.3227 9.20286 10.0977 9.42786C10.0933 9.4323 10.0887 9.43687 10.0841 9.44156C10.0317 9.49409 9.96545 9.5606 9.88587 9.61759L9.54625 9.14331L9.88586 9.61759C9.60179 9.82101 9.21558 9.88686 8.88015 9.78908C8.78659 9.76181 8.70959 9.72469 8.64968 9.69581C8.64495 9.69352 8.64031 9.69129 8.63579 9.68912C7.73165 9.25502 6.88483 8.66347 6.13672 7.91536C5.38861 7.16725 4.79706 6.32043 4.36296 5.41628C4.36078 5.41176 4.35855 5.40713 4.35627 5.40239C4.32739 5.34249 4.29027 5.26548 4.263 5.17193L4.82302 5.00868L4.263 5.17193C4.16522 4.83649 4.23107 4.45029 4.43448 4.16621L4.43448 4.16621C4.49147 4.08662 4.55799 4.02035 4.61053 3.968C4.61521 3.96334 4.61978 3.95879 4.62422 3.95435C4.84921 3.72935 4.89528 3.67876 4.92021 3.64042L4.92021 3.64041C5.04592 3.44707 5.04592 3.19782 4.92022 3.00448C4.89528 2.96613 4.84921 2.91554 4.62422 2.69054L4.51054 2.57687C4.16811 2.23444 4.09051 2.1672 4.02825 2.13571ZM2.97511 1.09464C3.47173 0.843454 4.05821 0.843453 4.55482 1.09464C4.80717 1.22228 5.02624 1.44191 5.27967 1.69598C5.29809 1.71445 5.31669 1.7331 5.3355 1.75191L5.44917 1.86558C5.46157 1.87798 5.47385 1.89024 5.486 1.90237C5.65322 2.06931 5.79726 2.21311 5.89832 2.36854L5.40927 2.68651L5.89832 2.36854C6.27544 2.94857 6.27544 3.69632 5.89832 4.27635C5.79726 4.43178 5.65322 4.57558 5.48601 4.74252C5.47385 4.75465 5.46157 4.76691 5.44917 4.7793C5.41557 4.81291 5.39843 4.83014 5.38649 4.84277C5.38627 4.84373 5.38605 4.84478 5.38586 4.84591C5.38564 4.84718 5.38549 4.84835 5.38537 4.84941C5.3873 4.85367 5.3899 4.85931 5.39349 4.86693C5.39909 4.87885 5.40568 4.89258 5.41468 4.91133C5.79258 5.69841 6.30795 6.43667 6.96168 7.0904C7.61541 7.74413 8.35367 8.2595 9.14075 8.63739L8.88827 9.16326L9.14075 8.63739C9.1595 8.6464 9.17323 8.65299 9.18515 8.65859C9.19277 8.66218 9.19841 8.66478 9.20267 8.6667C9.20373 8.66659 9.2049 8.66643 9.20616 8.66622C9.2073 8.66602 9.20835 8.66581 9.2093 8.66559C9.22194 8.65365 9.23917 8.6365 9.27277 8.6029C9.28517 8.59051 9.29743 8.57822 9.30957 8.56606C9.4765 8.39885 9.6203 8.25481 9.77572 8.15376C10.3558 7.77664 11.1035 7.77664 11.6835 8.15376C11.839 8.25481 11.9828 8.39885 12.1497 8.56607C12.1618 8.57822 12.1741 8.59051 12.1865 8.6029L11.774 9.01538L12.1865 8.6029L12.3002 8.71658C12.319 8.73539 12.3376 8.75399 12.3561 8.77241C12.6102 9.02583 12.8298 9.24491 12.9574 9.49725C13.2086 9.99387 13.2086 10.5804 12.9574 11.077C12.8298 11.3293 12.6102 11.5484 12.3561 11.8018C12.3376 11.8202 12.319 11.8388 12.3002 11.8576L12.2082 11.9496C12.1949 11.9629 12.1817 11.9761 12.1687 11.9891C11.8973 12.2608 11.6892 12.4691 11.408 12.6271C11.0872 12.8073 10.6262 12.9272 10.2583 12.9261C9.93633 12.9251 9.70156 12.8584 9.39881 12.7724C9.38794 12.7693 9.37699 12.7662 9.36595 12.763C7.50323 12.2343 5.74569 11.2366 4.28056 9.77151C2.81544 8.30639 1.81774 6.54884 1.28905 4.68613C1.28591 4.67509 1.2828 4.66414 1.27971 4.65328C1.19367 4.35052 1.12694 4.11575 1.12598 3.79381C1.12489 3.42586 1.24477 2.96489 1.42498 2.64409L1.42498 2.64409C1.58294 2.36288 1.79128 2.15476 2.06296 1.88336C2.07599 1.87034 2.08916 1.85718 2.10248 1.84386L2.19443 1.75191C2.21324 1.7331 2.23184 1.71445 2.25027 1.69598C2.50369 1.44191 2.72276 1.22228 2.97511 1.09464L3.23541 1.60928L2.97511 1.09464Z" fill="#525252"/>
</svg>