<svg width="16" height="16" viewBox="0 0 16 16" fill="none" xmlns="http://www.w3.org/2000/svg">
<path fill-rule="evenodd" clip-rule="evenodd" d="M3.80506 1.52925C4.06541 1.7896 4.06541 2.21171 3.80506 2.47206L1.80506 4.47206C1.54471 4.73241 1.1226 4.73241 0.862254 4.47206C0.601905 4.21171 0.601905 3.7896 0.862254 3.52925L2.86225 1.52925C3.1226 1.2689 3.54471 1.2689 3.80506 1.52925ZM12.1956 1.52925C12.4559 1.2689 12.878 1.2689 13.1384 1.52925L15.1384 3.52925C15.3987 3.7896 15.3987 4.21171 15.1384 4.47206C14.878 4.73241 14.4559 4.73241 14.1956 4.47206L12.1956 2.47206C11.9352 2.21171 11.9352 1.7896 12.1956 1.52925ZM3.75768 4.42468C4.8829 3.29946 6.40903 2.66732 8.00033 2.66732C9.59162 2.66732 11.1177 3.29946 12.243 4.42468C13.3682 5.5499 14.0003 7.07602 14.0003 8.66732C14.0003 10.0348 13.5335 11.3541 12.6881 12.4123L13.8051 13.5292C14.0654 13.7896 14.0654 14.2117 13.8051 14.4721C13.5447 14.7324 13.1226 14.7324 12.8623 14.4721L11.7453 13.3551C10.6871 14.2005 9.3678 14.6673 8.00033 14.6673C6.63285 14.6673 5.3135 14.2005 4.25534 13.3551L3.1384 14.4721C2.87805 14.7324 2.45594 14.7324 2.19559 14.4721C1.93524 14.2117 1.93524 13.7896 2.19559 13.5292L3.31254 12.4123C2.46715 11.3541 2.00033 10.0348 2.00033 8.66732C2.00033 7.07602 2.63247 5.5499 3.75768 4.42468ZM8.00033 4.00065C6.76265 4.00065 5.57566 4.49232 4.70049 5.36749C3.82532 6.24266 3.33366 7.42964 3.33366 8.66732C3.33366 9.90499 3.82532 11.092 4.70049 11.9671C5.57566 12.8423 6.76265 13.334 8.00033 13.334C9.238 13.334 10.425 12.8423 11.3002 11.9671C12.1753 11.092 12.667 9.90499 12.667 8.66732C12.667 7.42964 12.1753 6.24266 11.3002 5.36749C10.425 4.49232 9.238 4.00065 8.00033 4.00065ZM8.00033 5.33398C8.36852 5.33398 8.66699 5.63246 8.66699 6.00065V8.39118L9.80506 9.52925C10.0654 9.7896 10.0654 10.2117 9.80506 10.4721C9.54471 10.7324 9.1226 10.7324 8.86225 10.4721L7.52892 9.13872C7.4039 9.0137 7.33366 8.84413 7.33366 8.66732V6.00065C7.33366 5.63246 7.63213 5.33398 8.00033 5.33398Z" fill="#878787" style="fill:#878787;fill:color(display-p3 0.5294 0.5294 0.5294);fill-opacity:1;"/>
</svg>
