<svg width="48" height="48" viewBox="0 0 48 48" fill="none" xmlns="http://www.w3.org/2000/svg">
<path d="M24 -1.04907e-06C37.2548 -4.69686e-07 48 10.7452 48 24C48 37.2548 37.2548 48 24 48C10.7452 48 2.18624e-06 37.2548 2.76562e-06 24C3.34501e-06 10.7452 10.7452 -1.62846e-06 24 -1.04907e-06Z" fill="#1D9BF0"/>
<g clip-path="url(#clip0_341_13061)">
<path d="M31.8437 10.7109C31.8994 12.6398 31.041 13.8872 29.2909 14.8517C27.1505 16.0362 24.9433 17.2417 22.7807 18.4158C20.3951 19.7052 19.7932 21.2881 21.5099 23.3742C20.9525 24.5273 19.0128 24.3072 17.9427 24.1499C16.7387 23.4581 16.3932 21.959 16.4601 20.7325C16.5604 18.9819 17.5414 17.3256 18.8902 16.141C23.2043 13.0801 27.5073 10.04 31.8325 7C31.8325 8.23698 31.8325 9.47395 31.8437 10.7109Z" fill="white"/>
<path d="M21.521 23.3743C21.521 23.3743 21.2646 23.1751 20.8298 22.8187C18.7898 21.11 16.1367 18.4683 18.8902 16.1411C17.9761 16.791 17.218 17.5668 16.5715 18.3949C14.6207 20.8479 14.9997 24.7999 15.0889 27.7456C15.1335 29.1608 16.9171 29.4753 18.043 28.9092C19.2915 28.2803 20.618 27.5884 21.8331 26.9699C23.6836 26.0474 22.7807 24.3177 21.521 23.3743Z" fill="white"/>
<path d="M15.1275 36.2786C15.0718 34.3498 15.9302 33.1023 17.6803 32.1379C19.8207 30.9533 22.0279 29.7478 24.1905 28.5737C26.5761 27.2843 27.178 25.7014 25.4613 23.6154C26.0187 22.4622 27.9584 22.6824 29.0285 22.8396C30.2325 23.5315 30.578 25.0305 30.5112 26.257C30.4108 27.9972 29.4298 29.664 28.081 30.8485C23.778 33.899 19.4639 36.9495 15.1387 39.9896C15.1387 38.7526 15.1387 37.5156 15.1275 36.2786Z" fill="white"/>
<path d="M25.4505 23.6259C25.4505 23.6259 25.7069 23.8251 26.1416 24.1815C28.1816 25.8902 30.8347 28.5214 28.0813 30.8591C28.9954 30.2091 29.7534 29.4334 30.4 28.6053C32.3508 26.1523 31.9718 22.2002 31.8826 19.2441C31.838 17.8289 30.0544 17.5144 28.9285 18.0805C27.68 18.7094 26.3534 19.4013 25.1495 20.0198C23.2878 20.9528 24.1908 22.672 25.4505 23.6259Z" fill="white"/>
</g>
<defs>
<clipPath id="clip0_341_13061">
<rect width="17" height="33" fill="white" transform="translate(15 7)"/>
</clipPath>
</defs>
</svg>
