<svg width="150" height="48" viewBox="0 0 150 48" fill="none" xmlns="http://www.w3.org/2000/svg">
<path d="M24 -1.04907e-06C37.2548 -4.69686e-07 48 10.7452 48 24C48 37.2548 37.2548 48 24 48C10.7452 48 2.18624e-06 37.2548 2.76562e-06 24C3.34501e-06 10.7452 10.7452 -1.62846e-06 24 -1.04907e-06Z" fill="#1D9BF0"/>
<g clip-path="url(#clip0_341_13061)">
<path d="M31.8437 10.7109C31.8994 12.6398 31.041 13.8872 29.2909 14.8517C27.1505 16.0362 24.9433 17.2417 22.7807 18.4158C20.3951 19.7052 19.7932 21.2881 21.5099 23.3742C20.9525 24.5273 19.0128 24.3072 17.9427 24.1499C16.7387 23.4581 16.3932 21.959 16.4601 20.7325C16.5604 18.9819 17.5414 17.3256 18.8902 16.141C23.2043 13.0801 27.5073 10.04 31.8325 7C31.8325 8.23698 31.8325 9.47395 31.8437 10.7109Z" fill="white"/>
<path d="M21.521 23.3743C21.521 23.3743 21.2646 23.1751 20.8298 22.8187C18.7898 21.11 16.1367 18.4683 18.8902 16.1411C17.9761 16.791 17.218 17.5668 16.5715 18.3949C14.6207 20.8479 14.9997 24.7999 15.0889 27.7456C15.1335 29.1608 16.9171 29.4753 18.043 28.9092C19.2915 28.2803 20.618 27.5884 21.8331 26.9699C23.6836 26.0474 22.7807 24.3177 21.521 23.3743Z" fill="white"/>
<path d="M15.1275 36.2786C15.0718 34.3498 15.9302 33.1023 17.6803 32.1379C19.8207 30.9533 22.0279 29.7478 24.1905 28.5737C26.5761 27.2843 27.178 25.7014 25.4613 23.6154C26.0187 22.4622 27.9584 22.6824 29.0285 22.8396C30.2325 23.5315 30.578 25.0305 30.5112 26.257C30.4108 27.9972 29.4298 29.664 28.081 30.8485C23.778 33.899 19.4639 36.9495 15.1387 39.9896C15.1387 38.7526 15.1387 37.5156 15.1275 36.2786Z" fill="white"/>
<path d="M25.4505 23.6259C25.4505 23.6259 25.7069 23.8251 26.1416 24.1815C28.1816 25.8902 30.8347 28.5214 28.0813 30.8591C28.9954 30.2091 29.7534 29.4334 30.4 28.6053C32.3508 26.1523 31.9718 22.2002 31.8826 19.2441C31.838 17.8289 30.0544 17.5144 28.9285 18.0805C27.68 18.7094 26.3534 19.4013 25.1495 20.0198C23.2878 20.9528 24.1908 22.672 25.4505 23.6259Z" fill="white"/>
</g>
<path d="M61.707 15.848H58.203V29C58.203 30.848 59.067 32 61.299 32H69.243V28.76H61.707V15.848ZM77.1442 32.312C79.6642 32.312 81.6322 31.088 82.6642 28.952L80.0482 27.632C79.4962 28.736 78.4162 29.36 77.1202 29.36C75.4162 29.36 74.1922 28.304 73.9522 26.72H82.7842V25.712C82.7842 22.472 80.6002 19.688 76.8322 19.688C73.1602 19.688 70.6642 22.52 70.6642 25.952C70.6642 29.744 73.4482 32.312 77.1442 32.312ZM74.0962 24.824C74.3362 23.624 75.3202 22.664 76.8082 22.664C78.2482 22.664 79.2562 23.6 79.4002 24.824H74.0962ZM91.3998 32.336C92.2398 32.336 93.2718 32.144 93.8718 31.76V28.712C93.2958 29.072 92.4078 29.288 91.7118 29.288C90.4638 29.288 89.6718 28.52 89.6718 27.2V23H93.8718V20.12H89.6718V17.096H86.2638V20.12H84.0798V23H86.2638V27.296C86.2638 30.272 87.9678 32.336 91.3998 32.336Z" fill="#1D9BF0"/>
<path d="M100.975 32.336C103.687 32.336 106.015 30.8 106.015 28.4C106.015 23.936 99.4869 25.472 99.4869 23.552C99.4869 22.928 100.111 22.52 100.951 22.52C101.911 22.52 102.775 22.928 103.159 23.792L105.679 22.376C104.959 21.008 103.423 19.808 100.879 19.808C97.9509 19.808 96.0789 21.488 96.0789 23.624C96.0789 28.208 102.607 26.552 102.607 28.472C102.607 29.168 101.911 29.6 100.807 29.6C99.6069 29.6 98.8149 29.192 98.3109 28.232L95.7909 29.648C96.7749 31.424 98.5029 32.336 100.975 32.336ZM112.254 32V27.272H113.358C113.478 27.512 113.622 27.752 113.79 27.968L117.078 32H121.134L116.214 26.024L121.158 20.12H117.102L113.814 24.08C113.646 24.296 113.502 24.512 113.382 24.728H112.254V14.648H108.846V32H112.254ZM128.121 32.312C130.641 32.312 132.609 31.088 133.641 28.952L131.025 27.632C130.473 28.736 129.393 29.36 128.097 29.36C126.393 29.36 125.169 28.304 124.929 26.72H133.761V25.712C133.761 22.472 131.577 19.688 127.809 19.688C124.137 19.688 121.641 22.52 121.641 25.952C121.641 29.744 124.425 32.312 128.121 32.312ZM125.073 24.824C125.313 23.624 126.297 22.664 127.785 22.664C129.225 22.664 130.233 23.6 130.377 24.824H125.073ZM142.088 32.336C145.808 32.336 148.544 29.672 148.544 26.072V14.648H145.136L145.112 20.912C144.248 20.216 143.096 19.784 141.896 19.784C138.2 19.784 135.656 22.376 135.656 26.072C135.656 29.504 138.44 32.336 142.088 32.336ZM142.088 29.12C140.336 29.12 139.064 27.752 139.064 26.072C139.064 24.392 140.336 23 142.088 23C143.84 23 145.136 24.392 145.136 26.072C145.136 27.752 143.84 29.12 142.088 29.12Z" fill="#003489"/>
<defs>
<clipPath id="clip0_341_13061">
<rect width="17" height="33" fill="white" transform="translate(15 7)"/>
</clipPath>
</defs>
</svg>
