<svg width="24" height="24" viewBox="0 0 24 24" fill="none" xmlns="http://www.w3.org/2000/svg">
<path fill-rule="evenodd" clip-rule="evenodd" d="M12.667 3C7.69643 3 3.66699 7.02944 3.66699 12C3.66699 16.9706 7.69643 21 12.667 21C17.6376 21 21.667 16.9706 21.667 12C21.667 7.02944 17.6376 3 12.667 3ZM1.66699 12C1.66699 5.92487 6.59186 1 12.667 1C18.7421 1 23.667 5.92487 23.667 12C23.667 18.0751 18.7421 23 12.667 23C6.59186 23 1.66699 18.0751 1.66699 12ZM10.167 8C10.7193 8 11.167 8.44772 11.167 9V15C11.167 15.5523 10.7193 16 10.167 16C9.61471 16 9.16699 15.5523 9.16699 15V9C9.16699 8.44772 9.61471 8 10.167 8ZM15.167 8C15.7193 8 16.167 8.44772 16.167 9V15C16.167 15.5523 15.7193 16 15.167 16C14.6147 16 14.167 15.5523 14.167 15V9C14.167 8.44772 14.6147 8 15.167 8Z" fill="#141414"/>
</svg>
