<svg width="20" height="20" viewBox="0 0 20 20" fill="none" xmlns="http://www.w3.org/2000/svg">
<g clip-path="url(#clip0_4014_8894)">
<path fill-rule="evenodd" clip-rule="evenodd" d="M9.65529 1.38986C10.0864 1.19817 10.5785 1.19817 11.0096 1.38986C11.3426 1.5379 11.5588 1.79867 11.7093 2.01115C11.8573 2.22005 12.0157 2.49373 12.1899 2.79471L19.0792 14.6944C19.2542 14.9965 19.4131 15.271 19.5209 15.504C19.6305 15.7408 19.7493 16.0591 19.7114 16.4224C19.6624 16.8924 19.4161 17.3196 19.0339 17.5975C18.7385 17.8123 18.4035 17.869 18.1437 17.8928C17.888 17.9163 17.5708 17.9162 17.2217 17.9162H3.44319C3.0941 17.9162 2.77688 17.9163 2.52124 17.8928C2.26144 17.869 1.92645 17.8123 1.63103 17.5975L2.1211 16.9235M10.3156 2.97449C10.2174 3.11319 10.0974 3.31881 9.89974 3.66017L3.04567 15.499C2.84735 15.8416 2.72829 16.0489 2.65662 16.2038C2.65226 16.2132 2.6483 16.222 2.64469 16.2302C2.65358 16.2312 2.66318 16.2322 2.67351 16.2331C2.84348 16.2487 3.08257 16.2495 3.47839 16.2495H17.1865C17.5823 16.2495 17.8214 16.2487 17.9914 16.2331C18.0017 16.2322 18.0113 16.2312 18.0202 16.2302C18.0166 16.222 18.0126 16.2132 18.0083 16.2038C17.9366 16.0489 17.8176 15.8416 17.6192 15.499L10.7652 3.66017C10.5675 3.31881 10.4475 3.11319 10.3493 2.97449C10.3433 2.96608 10.3377 2.95832 10.3325 2.95117C10.3272 2.95832 10.3216 2.96608 10.3156 2.97449ZM9.65529 1.38986C9.32235 1.5379 9.10607 1.79867 8.95557 2.01115L9.65529 1.38986ZM8.95557 2.01115C8.8076 2.22006 8.64918 2.49374 8.47495 2.79474L8.95557 2.01115ZM10.3325 6.66621C10.7927 6.66621 11.1658 7.0393 11.1658 7.49954V10.8329C11.1658 11.2931 10.7927 11.6662 10.3325 11.6662C9.87222 11.6662 9.49912 11.2931 9.49912 10.8329V7.49954C9.49912 7.0393 9.87222 6.66621 10.3325 6.66621ZM9.49912 14.1662C9.49912 13.706 9.87222 13.3329 10.3325 13.3329H10.3408C10.801 13.3329 11.1741 13.706 11.1741 14.1662C11.1741 14.6264 10.801 14.9995 10.3408 14.9995H10.3325C9.87222 14.9995 9.49912 14.6264 9.49912 14.1662ZM1.58567 14.6944C1.41074 14.9965 1.25177 15.271 1.14398 15.504L1.58567 14.6944ZM1.14398 15.504C1.03444 15.7408 0.915605 16.0591 0.953479 16.4224L1.14398 15.504ZM0.953479 16.4224C1.00249 16.8924 1.24877 17.3196 1.63103 17.5975L0.953479 16.4224Z" fill="#FF3838"/>
<path fill-rule="evenodd" clip-rule="evenodd" d="M11.0096 1.38986C10.5785 1.19817 10.0864 1.19817 9.65529 1.38986C9.32235 1.5379 9.10607 1.79867 8.95557 2.01115C8.8076 2.22006 8.64918 2.49374 8.47495 2.79474L1.58567 14.6944C1.41074 14.9965 1.25177 15.271 1.14398 15.504C1.03444 15.7408 0.915605 16.0591 0.953479 16.4224C1.00249 16.8924 1.24877 17.3196 1.63103 17.5975C1.92645 17.8123 2.26144 17.869 2.52124 17.8928C2.77688 17.9163 3.0941 17.9162 3.44319 17.9162H17.2217C17.5708 17.9162 17.888 17.9163 18.1437 17.8928C18.4035 17.869 18.7385 17.8123 19.0339 17.5975L18.5434 16.9237M10.3493 2.97449C10.4475 3.11319 10.5675 3.31881 10.7652 3.66017L17.6192 15.499C17.8176 15.8416 17.9366 16.0489 18.0083 16.2038C18.0126 16.2132 18.0166 16.222 18.0202 16.2302C18.0113 16.2312 18.0017 16.2322 17.9914 16.2331C17.8214 16.2487 17.5823 16.2495 17.1865 16.2495H3.47839C3.08257 16.2495 2.84348 16.2487 2.67351 16.2331C2.66318 16.2322 2.65358 16.2312 2.64469 16.2302C2.6483 16.222 2.65226 16.2132 2.65662 16.2038C2.72829 16.0489 2.84735 15.8416 3.04567 15.499L9.89974 3.66017C10.0974 3.31881 10.2174 3.11319 10.3156 2.97449C10.3216 2.96608 10.3272 2.95832 10.3325 2.95117C10.3377 2.95832 10.3433 2.96608 10.3493 2.97449ZM11.7093 2.01115C11.5588 1.79867 11.3426 1.5379 11.0096 1.38986L11.7093 2.01115ZM12.1899 2.79471C12.0157 2.49373 11.8573 2.22005 11.7093 2.01115L12.1899 2.79471ZM12.1899 2.79471L12.2072 2.82532L12.1899 2.79471ZM12.2072 2.82532L19.0612 14.6642L12.2072 2.82532ZM10.3325 6.66621C9.87222 6.66621 9.49912 7.0393 9.49912 7.49954V10.8329C9.49912 11.2931 9.87222 11.6662 10.3325 11.6662C10.7927 11.6662 11.1658 11.2931 11.1658 10.8329V7.49954C11.1658 7.0393 10.7927 6.66621 10.3325 6.66621ZM11.1654 14.1664C11.1654 13.7062 10.7927 13.3329 10.3325 13.3329L10.3237 13.3331C9.8635 13.3331 9.49041 13.7062 9.49041 14.1664C9.49041 14.6266 9.8635 14.9997 10.3237 14.9997L10.3325 14.9995C10.7927 14.9995 11.1654 14.6266 11.1654 14.1664ZM19.0612 14.6642L19.0792 14.6944L19.0612 14.6642ZM19.5209 15.504C19.4131 15.271 19.2542 14.9965 19.0792 14.6944L19.5209 15.504ZM19.7114 16.4224C19.7493 16.0591 19.6305 15.7408 19.5209 15.504L19.7114 16.4224ZM19.0339 17.5975C19.4161 17.3196 19.6624 16.8924 19.7114 16.4224L19.0339 17.5975Z" fill="#FF3838"/>
</g>
<defs>
<clipPath id="clip0_4014_8894">
<rect width="20" height="20" fill="white" transform="translate(0.333008)"/>
</clipPath>
</defs>
</svg>