<svg width="24" height="24" viewBox="0 0 25 24" fill="none" xmlns="http://www.w3.org/2000/svg">
<path fill-rule="evenodd" clip-rule="evenodd" d="M12.6667 3C7.69619 3 3.66675 7.02944 3.66675 12C3.66675 16.9706 7.69619 21 12.6667 21C17.6373 21 21.6667 16.9706 21.6667 12C21.6667 7.02944 17.6373 3 12.6667 3ZM1.66675 12C1.66675 5.92487 6.59162 1 12.6667 1C18.7419 1 23.6667 5.92487 23.6667 12C23.6667 18.0751 18.7419 23 12.6667 23C6.59162 23 1.66675 18.0751 1.66675 12ZM10.2348 7C10.2455 7 10.2561 7 10.2667 7L15.0986 7C15.351 6.99997 15.5968 6.99994 15.805 7.01695C16.0336 7.03562 16.3033 7.07969 16.5747 7.21799C16.9511 7.40973 17.257 7.7157 17.4488 8.09202C17.5871 8.36344 17.6311 8.63318 17.6498 8.86177C17.6668 9.06993 17.6668 9.31573 17.6667 9.56812V14.4319C17.6668 14.6843 17.6668 14.9301 17.6498 15.1382C17.6311 15.3668 17.5871 15.6366 17.4488 15.908C17.257 16.2843 16.9511 16.5903 16.5747 16.782C16.3033 16.9203 16.0336 16.9644 15.805 16.9831C15.5968 17.0001 15.351 17 15.0986 17H10.2349C9.98248 17 9.73668 17.0001 9.52852 16.9831C9.29992 16.9644 9.03019 16.9203 8.75877 16.782C8.38244 16.5903 8.07648 16.2843 7.88474 15.908C7.74644 15.6366 7.70237 15.3668 7.68369 15.1382C7.66669 14.9301 7.66672 14.6843 7.66675 14.4319L7.66675 9.6C7.66675 9.58936 7.66675 9.57872 7.66675 9.5681C7.66672 9.31572 7.66669 9.06993 7.68369 8.86177C7.70237 8.63318 7.74644 8.36344 7.88474 8.09202C8.07648 7.71569 8.38244 7.40973 8.75877 7.21799C9.03019 7.07969 9.29992 7.03562 9.52852 7.01695C9.73668 6.99994 9.98247 6.99997 10.2348 7ZM9.6782 9.01145C9.67781 9.0156 9.67743 9.01999 9.67705 9.02463C9.66753 9.14122 9.66675 9.30347 9.66675 9.6V14.4C9.66675 14.6965 9.66753 14.8588 9.67705 14.9754C9.67743 14.98 9.67781 14.9844 9.6782 14.9886C9.68235 14.9889 9.68674 14.9893 9.69138 14.9897C9.80797 14.9992 9.97022 15 10.2667 15H15.0667C15.3633 15 15.5255 14.9992 15.6421 14.9897C15.6468 14.9893 15.6511 14.9889 15.6553 14.9886C15.6557 14.9844 15.6561 14.98 15.6564 14.9754C15.666 14.8588 15.6667 14.6965 15.6667 14.4V9.6C15.6667 9.30347 15.666 9.14122 15.6564 9.02463C15.6561 9.01999 15.6557 9.0156 15.6553 9.01145C15.6511 9.01106 15.6468 9.01068 15.6421 9.0103C15.5255 9.00078 15.3633 9 15.0667 9H10.2667C9.97022 9 9.80797 9.00078 9.69138 9.0103C9.68674 9.01068 9.68235 9.01106 9.6782 9.01145Z" fill="#141414"/>
</svg>
