<svg width="24" height="24" viewBox="0 0 24 24" fill="none" xmlns="http://www.w3.org/2000/svg">
<path fill-rule="evenodd" clip-rule="evenodd" d="M12.333 3C7.36244 3 3.33301 7.02944 3.33301 12C3.33301 16.9706 7.36244 21 12.333 21C17.3036 21 21.333 16.9706 21.333 12C21.333 7.02944 17.3036 3 12.333 3ZM1.33301 12C1.33301 5.92487 6.25788 1 12.333 1C18.4081 1 23.333 5.92487 23.333 12C23.333 18.0751 18.4081 23 12.333 23C6.25788 23 1.33301 18.0751 1.33301 12ZM17.5401 8.29289C17.9306 8.68342 17.9306 9.31658 17.5401 9.70711L11.5401 15.7071C11.1496 16.0976 10.5164 16.0976 10.1259 15.7071L7.1259 12.7071C6.73538 12.3166 6.73538 11.6834 7.1259 11.2929C7.51643 10.9024 8.14959 10.9024 8.54011 11.2929L10.833 13.5858L16.1259 8.29289C16.5164 7.90237 17.1496 7.90237 17.5401 8.29289Z" fill="#141414"/>
</svg>
