<svg width="20" height="20" viewBox="0 0 20 20" fill="none" xmlns="http://www.w3.org/2000/svg">
<path fill-rule="evenodd" clip-rule="evenodd" d="M10.8333 2.51529C10.6786 2.50119 10.4493 2.49875 10.0098 2.49875H7.33333C6.61952 2.49875 6.13427 2.4994 5.7592 2.53004C5.39385 2.55989 5.20702 2.614 5.07668 2.68041C4.76308 2.8402 4.50811 3.09516 4.34832 3.40877C4.28192 3.5391 4.22781 3.72594 4.19796 4.09128C4.16732 4.46636 4.16667 4.9516 4.16667 5.66542V14.3321C4.16667 15.0459 4.16732 15.5311 4.19796 15.9062C4.22781 16.2716 4.28192 16.4584 4.34832 16.5887C4.50811 16.9023 4.76308 17.1573 5.07668 17.3171C5.20702 17.3835 5.39385 17.4376 5.7592 17.4675C6.13427 17.4981 6.61952 17.4988 7.33333 17.4988H12.6667C13.3805 17.4988 13.8657 17.4981 14.2408 17.4675C14.6061 17.4376 14.793 17.3835 14.9233 17.3171C15.2369 17.1573 15.4919 16.9023 15.6517 16.5887C15.7181 16.4584 15.7722 16.2716 15.802 15.9062C15.8327 15.5311 15.8333 15.0459 15.8333 14.3321V8.32227C15.8333 7.88285 15.8309 7.65356 15.8168 7.49881L12.9734 7.49881C12.7631 7.49884 12.5583 7.49886 12.3848 7.48469C12.1943 7.46912 11.9695 7.4324 11.7433 7.31715C11.4297 7.15736 11.1748 6.9024 11.015 6.58879C10.8997 6.36261 10.863 6.13783 10.8475 5.94733C10.8333 5.77387 10.8333 5.56904 10.8333 5.35871L10.8333 2.51529ZM11.9947 1.12372C11.8064 1.03934 11.6105 0.972485 11.4093 0.924184C11.0237 0.831615 10.6239 0.831805 10.0947 0.832057C10.0668 0.83207 10.0385 0.832084 10.0098 0.832084L7.29892 0.832083C6.62811 0.832073 6.07448 0.832064 5.62348 0.868912C5.15506 0.907183 4.72448 0.98932 4.32003 1.1954C3.69283 1.51497 3.18289 2.02491 2.86331 2.65212C2.65724 3.05656 2.5751 3.48715 2.53683 3.95556C2.49998 4.40656 2.49999 4.96019 2.5 5.631V14.3665C2.49999 15.0373 2.49998 15.5909 2.53683 16.0419C2.5751 16.5104 2.65724 16.9409 2.86331 17.3454C3.18289 17.9726 3.69283 18.4825 4.32003 18.8021C4.72448 19.0082 5.15506 19.0903 5.62348 19.1286C6.07447 19.1654 6.6281 19.1654 7.2989 19.1654H12.7011C13.3719 19.1654 13.9255 19.1654 14.3765 19.1286C14.8449 19.0903 15.2755 19.0082 15.68 18.8021C16.3072 18.4825 16.8171 17.9726 17.1367 17.3454C17.3428 16.9409 17.4249 16.5104 17.4632 16.0419C17.5 15.5909 17.5 15.0373 17.5 14.3665V8.32227C17.5 8.2936 17.5 8.26531 17.5 8.23738C17.5003 7.70821 17.5005 7.30838 17.4079 6.9228C17.3597 6.72219 17.2931 6.5268 17.2091 6.33906C17.2039 6.32682 17.1984 6.31474 17.1926 6.30282C17.1382 6.18499 17.0768 6.07028 17.0088 5.95929C16.8016 5.62118 16.5188 5.3386 16.1444 4.96459C16.1246 4.94485 16.1046 4.92486 16.0843 4.90459L13.4275 2.24773C13.4072 2.22746 13.3872 2.20744 13.3675 2.18768C12.9935 1.81333 12.7109 1.53047 12.3728 1.32328C12.2614 1.25499 12.1462 1.19342 12.0278 1.13881C12.0169 1.13355 12.0058 1.12852 11.9947 1.12372ZM12.5 3.67726V5.33214C12.5 5.57925 12.5006 5.71446 12.5086 5.81161C12.5089 5.81548 12.5092 5.81914 12.5095 5.8226C12.513 5.82292 12.5167 5.82324 12.5205 5.82356C12.6177 5.83149 12.7529 5.83214 13 5.83214H14.6549L12.5 3.67726ZM5.83333 10.8321C5.83333 10.3718 6.20643 9.99875 6.66667 9.99875H13.3333C13.7936 9.99875 14.1667 10.3718 14.1667 10.8321C14.1667 11.2923 13.7936 11.6654 13.3333 11.6654H6.66667C6.20643 11.6654 5.83333 11.2923 5.83333 10.8321ZM5.83333 14.1654C5.83333 13.7052 6.20643 13.3321 6.66667 13.3321H11.6667C12.1269 13.3321 12.5 13.7052 12.5 14.1654C12.5 14.6257 12.1269 14.9987 11.6667 14.9987H6.66667C6.20643 14.9987 5.83333 14.6257 5.83333 14.1654Z" fill="#7A7A7A"/>
</svg>
