<svg width="20" height="20" viewBox="0 0 20 20" fill="none" xmlns="http://www.w3.org/2000/svg">
<g clip-path="url(#clip0_4603_29414)">
<path fill-rule="evenodd" clip-rule="evenodd" d="M4.41205 4.41205C4.73748 4.08661 5.26512 4.08661 5.59056 4.41205L10.0013 8.82279L14.412 4.41205C14.7375 4.08661 15.2651 4.08661 15.5906 4.41205C15.916 4.73748 15.916 5.26512 15.5906 5.59056L11.1798 10.0013L15.5906 14.412C15.916 14.7375 15.916 15.2651 15.5906 15.5906C15.2651 15.916 14.7375 15.916 14.412 15.5906L10.0013 11.1798L5.59056 15.5906C5.26512 15.916 4.73748 15.916 4.41205 15.5906C4.08661 15.2651 4.08661 14.7375 4.41205 14.412L8.82279 10.0013L4.41205 5.59056C4.08661 5.26512 4.08661 4.73748 4.41205 4.41205Z" fill="#878787"/>
</g>
<defs>
<clipPath id="clip0_4603_29414">
<rect width="20" height="20" rx="10" fill="white"/>
</clipPath>
</defs>
</svg>
